<?xml version="1.0" encoding="UTF-8" standalone="no"?>
<!-- Created with Inkscape (http://www.inkscape.org/) -->

<svg
   width="43.325218mm"
   height="43.345306mm"
   viewBox="0 0 43.325218 43.345306"
   version="1.1"
   id="svg5"
   xml:space="preserve"
   xmlns="http://www.w3.org/2000/svg"
   xmlns:svg="http://www.w3.org/2000/svg"><defs
     id="defs2" /><path
     style="fill:#efeeda;fill-opacity:1;stroke-width:0.445148"
     d="m 0.03574512,21.74461 c 0,-21.5897204 0,-21.5897204 21.58970488,-21.5897204 21.589704,0 21.589704,0 21.589704,21.5897204 0,21.589703 0,21.589703 -21.589704,21.589703 -21.58970488,0 -21.58970488,0 -21.58970488,-21.589703 z M 41.434561,21.522022 c 0,-19.5865269 0,-19.5865269 -19.809111,-19.5865269 -19.8091112,0 -19.8091112,0 -19.8091112,19.5865269 0,19.586543 0,19.586543 19.8091112,19.586543 19.809111,0 19.809111,0 19.809111,-19.586543 z M 11.498319,26.919713 C 9.1112104,24.522926 7.1581217,22.339777 7.1581217,22.068246 c 0,-1.505188 1.3616146,-0.726246 4.9175513,2.81321 3.580037,3.563449 4.005689,3.858618 4.738407,3.285777 0.442767,-0.346147 4.66804,-4.436809 9.389493,-9.090351 9.358072,-9.223485 9.077922,-8.993376 9.836633,-8.079183 0.462407,0.557161 -18.471316,19.785056 -19.878567,20.187415 -0.177716,0.05081 -2.276211,-1.868632 -4.66332,-4.265401 z"
     id="path39782" /></svg>
