<?xml version="1.0" encoding="UTF-8" standalone="no"?>
<!-- Created with Inkscape (http://www.inkscape.org/) -->

<svg
   width="43.325218mm"
   height="43.345306mm"
   viewBox="0 0 43.325218 43.345306"
   version="1.1"
   id="svg5"
   xml:space="preserve"
   sodipodi:docname="colaboradores3.svg"
   inkscape:version="1.3 (0e150ed6c4, 2023-07-21)"
   xmlns:inkscape="http://www.inkscape.org/namespaces/inkscape"
   xmlns:sodipodi="http://sodipodi.sourceforge.net/DTD/sodipodi-0.dtd"
   xmlns="http://www.w3.org/2000/svg"
   xmlns:svg="http://www.w3.org/2000/svg"><sodipodi:namedview
     id="namedview69544"
     pagecolor="#ffffff"
     bordercolor="#000000"
     borderopacity="0.25"
     inkscape:showpageshadow="2"
     inkscape:pageopacity="0.0"
     inkscape:pagecheckerboard="0"
     inkscape:deskcolor="#d1d1d1"
     inkscape:document-units="mm"
     showgrid="false"
     inkscape:zoom="5.1091172"
     inkscape:cx="81.91239"
     inkscape:cy="128.88724"
     inkscape:window-width="1920"
     inkscape:window-height="991"
     inkscape:window-x="-9"
     inkscape:window-y="-9"
     inkscape:window-maximized="1"
     inkscape:current-layer="svg5" /><defs
     id="defs2" /><path
     style="fill:#0074b1;fill-opacity:1;stroke-width:1.32003"
     d="M 1.8267598,43.112774 C 1.423296,42.913916 0.87007057,42.43842 0.59737046,42.056118 L 0.1015493,41.361025 V 21.802551 2.2440783 L 0.60007916,1.5451784 C 1.667123,0.04926824 0.61222346,0.12058706 21.671751,0.12058706 c 21.059532,0 20.004629,-0.07131869 21.071671,1.42459134 l 0.498532,0.6988999 V 21.802551 41.361025 l -0.498532,0.698899 c -1.067434,1.49646 -0.0069,1.425131 -21.105452,1.419501 C 4.5218808,43.474805 2.4849039,43.437158 1.8267598,43.112774 Z M 41.073756,41.204556 c 0.388673,-0.388673 0.388673,-38.4153374 0,-38.80401 -0.388673,-0.3886724 -38.4153378,-0.3886724 -38.8040094,0 -0.3886728,0.3886726 -0.3886728,38.415337 0,38.80401 0.3886716,0.388673 38.4153364,0.388673 38.8040094,0 z m -21.75999,-4.305332 c -6.852379,-1.244811 -9.6577391,-7.653797 -5.238367,-11.967317 1.390846,-1.357534 3.249645,-2.224327 5.631033,-2.625861 1.736646,-0.292822 2.193994,-0.292822 3.93064,0 4.678147,0.788797 7.753709,3.692283 7.753709,7.319895 0,3.52561 -3.041826,6.492789 -7.465054,7.281862 -2.03824,0.363607 -2.568599,0.362621 -4.611961,-0.0086 z m 6.001188,-1.636513 c 1.77205,-0.641897 3.266849,-1.767648 4.068209,-3.063818 0.569535,-0.921201 0.670791,-1.309589 0.670791,-2.572952 0,-1.267059 -0.100718,-1.650878 -0.678376,-2.585221 -1.412936,-2.285371 -4.173628,-3.561728 -7.703827,-3.561728 -3.506609,0 -6.292007,1.278166 -7.680875,3.524605 -2.096591,3.391157 0.08809,7.166153 4.956749,8.564985 1.514272,0.435071 4.751105,0.279582 6.367329,-0.305871 z m 4.490785,-12.926786 c -2.754153,-1.850817 -3.436988,-2.921079 -2.218018,-3.476479 0.488792,-0.222709 0.689582,-0.146859 1.769399,0.668412 l 1.218038,0.919628 1.702361,-2.116536 c 1.247145,-1.550566 1.837932,-2.116534 2.209353,-2.116534 0.587719,0 1.043632,0.385925 1.043047,0.882926 -4.22e-4,0.358153 -3.546804,5.048131 -4.191731,5.543429 -0.488875,0.375453 -0.533248,0.366626 -1.532449,-0.304846 z m -9.548873,-3.131454 c -1.9852,-0.60992 -3.726198,-2.99913 -3.726198,-5.113546 0,-1.211672 0.724134,-2.85939 1.674145,-3.809401 3.084855,-3.0848555 8.189459,-1.5016765 9.091854,2.819814 0.546777,2.618468 -1.080521,5.357843 -3.633072,6.115869 -1.42301,0.422588 -1.996794,0.420443 -3.406729,-0.01267 z m 3.369731,-1.322139 c 1.108431,-0.463132 1.606913,-0.939711 2.095271,-2.003204 0.522713,-1.138306 0.522713,-2.438101 0,-3.576406 -0.488358,-1.063493 -0.98684,-1.540072 -2.095271,-2.003204 -1.4501,-0.6058903 -3.335829,-0.3009867 -4.492895,0.726458 -0.632006,0.561205 -1.251347,2.047382 -1.256974,3.016247 -0.0054,0.936257 0.47699,2.259437 1.065362,2.922039 1.004774,1.131537 3.161845,1.554279 4.684507,0.91807 z"
     id="path1" /></svg>
