<?xml version="1.0" encoding="UTF-8" standalone="no"?>
<!-- Created with Inkscape (http://www.inkscape.org/) -->

<svg
   width="43.325218mm"
   height="43.345306mm"
   viewBox="0 0 43.325218 43.345306"
   version="1.1"
   id="svg5"
   xml:space="preserve"
   sodipodi:docname="riesgos.svg"
   inkscape:version="1.3 (0e150ed6c4, 2023-07-21)"
   xmlns:inkscape="http://www.inkscape.org/namespaces/inkscape"
   xmlns:sodipodi="http://sodipodi.sourceforge.net/DTD/sodipodi-0.dtd"
   xmlns="http://www.w3.org/2000/svg"
   xmlns:svg="http://www.w3.org/2000/svg"><sodipodi:namedview
     id="namedview67840"
     pagecolor="#ffffff"
     bordercolor="#000000"
     borderopacity="0.25"
     inkscape:showpageshadow="2"
     inkscape:pageopacity="0.0"
     inkscape:pagecheckerboard="0"
     inkscape:deskcolor="#d1d1d1"
     inkscape:document-units="mm"
     showgrid="false"
     inkscape:zoom="5.1091172"
     inkscape:cx="81.91239"
     inkscape:cy="24.759659"
     inkscape:window-width="1920"
     inkscape:window-height="991"
     inkscape:window-x="-9"
     inkscape:window-y="-9"
     inkscape:window-maximized="1"
     inkscape:current-layer="svg5" /><defs
     id="defs2" /><path
     style="fill:#0074b1;fill-opacity:1;stroke-width:1.32001"
     d="M 1.9758666,42.967074 C 1.3056329,42.635312 0.90617536,42.231705 0.57885127,41.555544 0.1277771,40.623749 0.1204563,40.307436 0.1204563,21.750355 0.1204563,3.1655107 0.12718817,2.8782907 0.5809369,1.9408567 0.91526108,1.2502356 1.3020215,0.863474 1.9926427,0.52915014 2.9300777,0.07534602 3.2172971,0.0686695 21.802141,0.0686695 c 18.584843,0 18.872062,0.0066754 19.809498,0.46048064 0.69062,0.33432386 1.077381,0.72108546 1.411705,1.41170656 0.453804,0.937434 0.460481,1.224654 0.460481,19.8094983 0,18.584843 -0.0068,18.872062 -0.460481,19.809498 -0.334324,0.69062 -0.721085,1.077381 -1.411705,1.411705 C 40.674177,43.425376 40.38731,43.432037 21.78745,43.431863 3.1268668,43.43169 2.9039255,43.426451 1.9758666,42.967074 Z M 41.063359,41.05041 c 0.389861,-0.352822 0.408763,-1.243515 0.408763,-19.261218 0,-17.2648707 -0.03185,-18.9264825 -0.369926,-19.3000551 C 40.749374,2.0992746 39.858681,2.0803721 21.840978,2.0803721 4.5761072,2.0803721 2.9144962,2.11222 2.5409227,2.4502992 2.1510616,2.8031196 2.132159,3.6938132 2.132159,21.711516 c 0,17.26487 0.031852,18.926482 0.3699262,19.300057 0.3528203,0.389861 1.2435148,0.408763 19.2612178,0.408763 17.26487,0 18.926481,-0.03185 19.300056,-0.369926 z M 20.125721,39.072734 c -0.491749,-0.173951 -1.264359,-0.711436 -1.71691,-1.19441 -1.311569,-1.399736 -1.593229,-3.305432 -0.734092,-4.96682 0.436741,-0.844564 1.818385,-1.993139 2.581078,-2.145679 0.652254,-0.130457 0.652254,-0.130457 0.652254,-2.896541 v -2.766091 h -4.666604 c -3.875406,0 -4.713782,-0.05684 -4.944865,-0.335284 -0.222,-0.267493 -0.222,-0.403075 0,-0.670568 0.419235,-0.505146 20.36836,-0.505146 20.787594,0 0.222001,0.267493 0.222001,0.403075 0,0.670568 -0.231463,0.278896 -1.081876,0.335284 -5.056626,0.335284 h -4.778364 v 2.766091 c 0,2.76609 0,2.76609 0.700346,2.906161 1.008399,0.201679 2.547447,1.824924 2.871585,3.028679 0.607714,2.256875 -0.81039,4.742021 -3.062897,5.367547 -1.092034,0.303262 -1.543481,0.286295 -2.632499,-0.09894 z m 3.653642,-1.984058 c 0.757537,-0.757536 0.81681,-0.913588 0.81681,-2.150493 0,-1.244165 -0.05652,-1.390195 -0.841935,-2.175619 -0.785424,-0.785424 -0.931454,-0.841934 -2.17562,-0.841934 -1.244165,0 -1.390196,0.05651 -2.175619,0.841934 -0.783865,0.783865 -0.841935,0.933167 -0.841935,2.164668 0,1.163249 0.08086,1.408154 0.670568,2.031201 0.889389,0.93966 1.355508,1.120284 2.64779,1.026043 0.894012,-0.06519 1.22575,-0.221608 1.899941,-0.8958 z M 11.296582,20.297459 c -0.222,-0.267493 -0.222,-0.403076 0,-0.670568 0.231083,-0.278439 1.069459,-0.335283 4.944865,-0.335283 h 4.666604 v -3.213137 c 0,-3.213137 0,-3.213137 -0.652254,-3.343587 -0.762693,-0.152539 -2.144337,-1.301115 -2.581078,-2.14568 -0.822813,-1.591145 -0.590052,-3.4869041 0.593648,-4.835063 1.690209,-1.9250422 4.257862,-2.1356481 6.118636,-0.5018674 1.38389,1.2150714 1.88527,2.7688468 1.434114,4.4443131 -0.324138,1.2037533 -1.863186,2.8269993 -2.871585,3.0286783 -0.700346,0.140069 -0.700346,0.140069 -0.700346,3.353206 v 3.213137 h 4.778364 c 3.97475,0 4.825163,0.05639 5.056626,0.335283 0.222001,0.267492 0.222001,0.403075 0,0.670568 -0.239842,0.288991 -1.674895,0.335283 -10.393795,0.335283 -8.718903,0 -10.153958,-0.0463 -10.393799,-0.335283 z m 12.482781,-9.58444 c 0.757537,-0.7575372 0.81681,-0.9135892 0.81681,-2.150494 0,-1.2441646 -0.05652,-1.3901957 -0.841935,-2.1756191 -0.785424,-0.7854234 -0.931454,-0.8419346 -2.17562,-0.8419346 -1.244165,0 -1.390196,0.05651 -2.175619,0.8419346 -0.783865,0.7838658 -0.841935,0.9331665 -0.841935,2.1646673 0,1.1632507 0.08086,1.4081542 0.670568,2.0312028 0.889389,0.93966 1.355508,1.120283 2.64779,1.026042 0.894012,-0.06519 1.22575,-0.221607 1.899941,-0.895799 z"
     id="path1" /></svg>
