<svg id="a8a4cc5b-9d29-410c-9e49-fcb01f77a8b8" data-name="Capa 1" xmlns="http://www.w3.org/2000/svg" xmlns:xlink="http://www.w3.org/1999/xlink" viewBox="0 0 136.96 317.05"><defs><radialGradient id="e905d411-beaa-427f-8295-3c9053a383b0" cx="958.65" cy="697.48" r="112.85" gradientUnits="userSpaceOnUse"><stop offset="0" stop-color="#3f5861"/><stop offset="0.27" stop-color="#31444b"/><stop offset="0.83" stop-color="#0c1113"/><stop offset="1"/></radialGradient><linearGradient id="b16b1815-4119-4153-892f-bf47adfd8faf" x1="1910.34" y1="1084.84" x2="2017.59" y2="1084.84" gradientTransform="translate(879.08 -1541.16) rotate(59.06)" gradientUnits="userSpaceOnUse"><stop offset="0.05" stop-color="#a09682"/><stop offset="0.23" stop-color="#9c9079"/><stop offset="0.36" stop-color="#978970"/><stop offset="0.45" stop-color="#a1947b"/><stop offset="0.62" stop-color="#bdb19a"/><stop offset="0.84" stop-color="#eae0cb"/><stop offset="0.9" stop-color="#f6ecd8"/></linearGradient></defs><path d="M961.56,541.2a3.54,3.54,0,0,0-6.59,0c-10.66,27.16-13.41,239.67-13.33,252.93C941.8,820.68,932.52,856,959,856s16.17-36.13,16-62.7C974.92,780,972.55,568.38,961.56,541.2Z" transform="translate(-889.38 -538.95)" style="fill:url(#e905d411-beaa-427f-8295-3c9053a383b0)"/><circle cx="68.48" cy="161.48" r="68.48" style="fill:#151719"/><path d="M985.84,747.1a53.63,53.63,0,1,1,18.42-73.56A53.62,53.62,0,0,1,985.84,747.1Z" transform="translate(-889.38 -538.95)" style="fill:url(#b16b1815-4119-4153-892f-bf47adfd8faf)"/></svg>