<svg id="a580837d-ab6c-4849-ab53-1d167167d1c8" data-name="Capa 1" xmlns="http://www.w3.org/2000/svg" xmlns:xlink="http://www.w3.org/1999/xlink" viewBox="0 0 294.32 257.83"><defs><linearGradient id="e0a5722e-15e6-47e1-8536-fa9b92bdd38b" x1="169.77" y1="481.99" x2="464.08" y2="481.99" gradientUnits="userSpaceOnUse"><stop offset="0.05" stop-color="#a09682"/><stop offset="0.23" stop-color="#9c9079"/><stop offset="0.36" stop-color="#978970"/><stop offset="0.45" stop-color="#a1947b"/><stop offset="0.62" stop-color="#bdb19a"/><stop offset="0.84" stop-color="#eae0cb"/><stop offset="0.9" stop-color="#f6ecd8"/></linearGradient></defs><path d="M413,610.9a9.52,9.52,0,0,0,9.53-9.52V499.54h25.06a16.55,16.55,0,0,0,10.35-29.46L425.53,442v-46.7a9.9,9.9,0,0,0-9.89-9.9H395.18a9.9,9.9,0,0,0-9.9,9.9v11.77l-57.52-50a16.55,16.55,0,0,0-21.69,0L175.46,470.5a16.55,16.55,0,0,0,10.84,29h25V601.38a9.52,9.52,0,0,0,9.53,9.52h56.28v-74a18.94,18.94,0,0,1,18.94-19h41.67a19,19,0,0,1,18.95,19v74Z" transform="translate(-169.77 -353.07)" style="fill:url(#e0a5722e-15e6-47e1-8536-fa9b92bdd38b)"/><rect x="82.23" y="74.93" width="130" height="130" rx="65" style="fill:#151719"/></svg>