<svg id="b1e50759-ceda-4d3f-be8c-4ce34c6569d1" data-name="Capa 1" xmlns="http://www.w3.org/2000/svg" xmlns:xlink="http://www.w3.org/1999/xlink" viewBox="0 0 258.64 258.64"><defs><linearGradient id="a72ec35b-d424-424e-bd6c-d4d19bf9c107" x1="158.69" y1="73.79" x2="215.34" y2="73.79" gradientUnits="userSpaceOnUse"><stop offset="0.05" stop-color="#a09682"/><stop offset="0.23" stop-color="#9c9079"/><stop offset="0.36" stop-color="#978970"/><stop offset="0.45" stop-color="#a1947b"/><stop offset="0.62" stop-color="#bdb19a"/><stop offset="0.84" stop-color="#eae0cb"/><stop offset="0.9" stop-color="#f6ecd8"/></linearGradient><linearGradient id="a537b7b1-492d-41dd-9ac4-e87f0bccd6c0" x1="1235.89" y1="856.29" x2="1282.08" y2="856.29" xlink:href="#a72ec35b-d424-424e-bd6c-d4d19bf9c107"/><linearGradient id="b23bc7af-28f0-4c84-85ef-55fcff1326ff" x1="1230.66" y1="742.43" x2="1287.31" y2="742.43" xlink:href="#a72ec35b-d424-424e-bd6c-d4d19bf9c107"/></defs><path d="M1440.16,668.64h-247a5.85,5.85,0,0,0-5.84,5.84v247a5.85,5.85,0,0,0,5.84,5.84h247a5.85,5.85,0,0,0,5.84-5.84v-247A5.85,5.85,0,0,0,1440.16,668.64Zm-138,149.68v74.73a5.85,5.85,0,0,1-5.85,5.84h-74.73a5.85,5.85,0,0,1-5.84-5.84V818.32a5.85,5.85,0,0,1,5.84-5.85h74.73A5.85,5.85,0,0,1,1302.15,818.32Zm0-115.45V777.6a5.84,5.84,0,0,1-5.85,5.84h-74.73a5.84,5.84,0,0,1-5.84-5.84V702.87a5.84,5.84,0,0,1,5.84-5.84h74.73A5.84,5.84,0,0,1,1302.15,702.87Zm115.48,115.45v74.73a5.85,5.85,0,0,1-5.84,5.84h-74.73a5.84,5.84,0,0,1-5.84-5.84V818.32a5.84,5.84,0,0,1,5.84-5.85h74.73A5.85,5.85,0,0,1,1417.63,818.32Zm0-115.45V777.6a5.84,5.84,0,0,1-5.84,5.84h-74.73a5.83,5.83,0,0,1-5.84-5.84V702.87a5.83,5.83,0,0,1,5.84-5.84h74.73A5.84,5.84,0,0,1,1417.63,702.87Z" transform="translate(-1187.36 -668.64)" style="fill:#151719"/><rect x="158.69" y="66.03" width="56.65" height="15.53" rx="5.84" style="fill:url(#a72ec35b-d424-424e-bd6c-d4d19bf9c107)"/><rect x="158.69" y="178.83" width="56.65" height="15.54" rx="5.84" style="fill:#151719"/><rect x="180.95" y="160.01" width="12.14" height="11.69" rx="5.84" style="fill:#151719"/><rect x="180.95" y="201.48" width="12.14" height="11.69" rx="5.84" style="fill:#151719"/><path d="M1269.39,834.9l-6.27,6.28a5.85,5.85,0,0,1-8.27,0l-6.27-6.28a5.83,5.83,0,0,0-8.26,0l-2.72,2.72a5.84,5.84,0,0,0,0,8.26l6.27,6.27a5.85,5.85,0,0,1,0,8.27l-6.27,6.27a5.84,5.84,0,0,0,0,8.26l2.72,2.72a5.84,5.84,0,0,0,8.26,0l6.27-6.27a5.85,5.85,0,0,1,8.27,0l6.27,6.27a5.84,5.84,0,0,0,8.26,0l2.72-2.72a5.84,5.84,0,0,0,0-8.26l-6.27-6.27a5.85,5.85,0,0,1,0-8.27l6.27-6.27a5.84,5.84,0,0,0,0-8.26l-2.72-2.73A5.84,5.84,0,0,0,1269.39,834.9Z" transform="translate(-1187.36 -668.64)" style="fill:url(#a537b7b1-492d-41dd-9ac4-e87f0bccd6c0)"/><path d="M1260.91,714.11h-3.85a5.84,5.84,0,0,0-5.84,5.84v8.87a5.85,5.85,0,0,1-5.84,5.85h-8.88a5.84,5.84,0,0,0-5.84,5.84v3.84a5.84,5.84,0,0,0,5.84,5.84h8.88a5.85,5.85,0,0,1,5.84,5.85v8.87a5.84,5.84,0,0,0,5.84,5.84h3.85a5.84,5.84,0,0,0,5.84-5.84V756a5.85,5.85,0,0,1,5.84-5.85h8.87a5.84,5.84,0,0,0,5.85-5.84v-3.84a5.84,5.84,0,0,0-5.85-5.84h-8.87a5.85,5.85,0,0,1-5.84-5.85V720A5.84,5.84,0,0,0,1260.91,714.11Z" transform="translate(-1187.36 -668.64)" style="fill:url(#b23bc7af-28f0-4c84-85ef-55fcff1326ff)"/></svg>