<svg id="f243cf5a-8a47-474f-8211-c098dbc86044" data-name="Capa 1" xmlns="http://www.w3.org/2000/svg" xmlns:xlink="http://www.w3.org/1999/xlink" viewBox="0 0 228.59 261.2"><defs><linearGradient id="e99effa8-90eb-486f-b9e1-279325543227" x1="464.98" y1="710.76" x2="639.76" y2="710.76" gradientUnits="userSpaceOnUse"><stop offset="0.05" stop-color="#a09682"/><stop offset="0.23" stop-color="#9c9079"/><stop offset="0.36" stop-color="#978970"/><stop offset="0.45" stop-color="#a1947b"/><stop offset="0.62" stop-color="#bdb19a"/><stop offset="0.84" stop-color="#eae0cb"/><stop offset="0.9" stop-color="#f6ecd8"/></linearGradient></defs><path d="M525.52,611.82h-.18v0c-6.26.62-22.64,5.1-43,12.93-20.51,7.88-40.58,10.77-57.37,15.1s-13.59,24.28-13.59,24.28,6.25,80.81,8.79,94.12C432.34,821.88,524.11,873,524.11,873h0s93.54-49.6,106.19-114.39c2.66-13.6,9.2-96.33,9.2-96.33s3.21-20.51-14.21-24.55-38.12-6.51-59.06-14c-20.61-7.36-34.39-11.46-40.56-11.91v0Zm33.09,29.7c16,5.76,31.56,8.79,45.29,11.47,0,0,12.41,3,14.56,3.47,0,0,.53-.08.37,3.39,0,.54-.09.62-.14,1.22-2.48,31.54-7.09,85-8.88,94.13-5.44,27.89-30.66,53.67-50.78,70.3a320.4,320.4,0,0,1-34.91,25A325.86,325.86,0,0,1,490,825.38c-20-16.9-44.8-42.76-50.1-70.4-1.72-9-6.17-61.45-8.56-92.36a10.08,10.08,0,0,0-.13-1.19,13.88,13.88,0,0,1,.22-3.78c4.39-1.1,9.16-2.13,14.18-3.22,13.34-2.88,28.49-6.17,44.26-12.2,17.75-6.8,30.4-10.21,35.49-11.22C528.69,631.67,537.44,633.91,558.61,641.52Z" transform="translate(-411.17 -611.8)" style="fill:#151719"/><path d="M525.16,638.09H525v0c-4.62.46-16.75,3.93-31.82,10s-30.12,8.37-42.59,11.74-10.11,19.07-10.11,19.07,4.65,63.53,6.54,74c9,50,77.08,89.89,77.08,89.89h0s69-39.05,78.32-89.72c1.95-10.64,6.76-75.29,6.76-75.29s2.36-16-10.44-19.22-28.08-5.17-43.53-11.08c-15.21-5.81-25.4-9.06-30-9.43v0Z" transform="translate(-411.17 -611.8)" style="fill:#151719"/><path d="M628.3,622.13a107.34,107.34,0,0,0-16.57,1.6c-6.87,1.11-11.61,2.39-14.46,3.92s-7.16,5.34-13.17,11.64c-5.81,6.11-13.26,15.7-22.14,28.5s-16.65,25.17-23.2,36.9c-5.87,10.49-11.85,22-17.83,34.32a61.31,61.31,0,0,0-13.13-12.69c-5.76-4-11.27-6-16.39-6s-10.92,2.28-17,6.78c-6.28,4.69-9.47,10-9.47,15.84,0,4.38,2.72,9.49,8.31,15.65a193.91,193.91,0,0,1,19.54,24.65,102.79,102.79,0,0,0,7.53,10.65,15.55,15.55,0,0,0,6.33,4.17c2.42.87,6.46,1.3,12.32,1.3,8.06,0,13.54-.86,16.78-2.62a19.14,19.14,0,0,0,7.59-7.47c1.63-2.88,4.18-8.62,7.8-17.55,9-22.4,21.21-45.85,36.32-69.68s29.84-42.4,43.87-55.37c3.45-3.13,5.54-5.35,6.6-7a11.75,11.75,0,0,0,1.79-6.44,10.89,10.89,0,0,0-3.18-7.86A11.13,11.13,0,0,0,628.3,622.13Z" transform="translate(-411.17 -611.8)" style="fill:url(#e99effa8-90eb-486f-b9e1-279325543227)"/></svg>