<svg id="fdde2fb3-87a0-443a-96b9-badc4e608a09" data-name="Capa 1" xmlns="http://www.w3.org/2000/svg" xmlns:xlink="http://www.w3.org/1999/xlink" viewBox="0 0 253.32 253.32"><defs><clipPath id="a51e60a6-e9b0-4f1f-83b3-4847da5da323" transform="translate(-637.34 -362)"><path d="M835,500.31a70.24,70.24,0,0,0,.58-7.29h0c0-.77,0-1.54,0-2.31a70.57,70.57,0,0,0-1-11.35l0-.15c0-.15,0-.29-.08-.44l-.15-.84a1.69,1.69,0,0,0-1.44-1.36,1.89,1.89,0,0,0-.53,0,1.7,1.7,0,0,0-1.35,2,67.78,67.78,0,0,1-68.47,80.19,67.73,67.73,0,0,1-65.81-69.58,67.8,67.8,0,0,1,69.59-65.82q3.45.11,6.86.54a67.73,67.73,0,0,1,27.64,10,1.6,1.6,0,0,0,.69.25,1.66,1.66,0,0,0,1.63-.76,1.68,1.68,0,0,0-.51-2.33,70.82,70.82,0,0,0-29-10.52,71.07,71.07,0,0,0-80.25,68.52A71.1,71.1,0,0,0,835,500.31Z" style="fill:none"/></clipPath><linearGradient id="ee5a7429-2978-4608-8e60-37320e48a795" x1="674.1" y1="488.27" x2="853.47" y2="488.27" gradientUnits="userSpaceOnUse"><stop offset="0.05" stop-color="#a09682"/><stop offset="0.23" stop-color="#9c9079"/><stop offset="0.36" stop-color="#978970"/><stop offset="0.45" stop-color="#a1947b"/><stop offset="0.62" stop-color="#bdb19a"/><stop offset="0.84" stop-color="#eae0cb"/><stop offset="0.9" stop-color="#f6ecd8"/></linearGradient><linearGradient id="f95b70d4-bafc-4cfe-b05a-492f5eca63bb" x1="720.14" y1="241.06" x2="720.14" y2="327.55" gradientTransform="translate(178.97 -19.02) rotate(19.42)" xlink:href="#ee5a7429-2978-4608-8e60-37320e48a795"/></defs><path d="M845.88,391.42a2,2,0,0,0-2.24-.44l-21.85,9.9a104.23,104.23,0,0,0-30.89-13.83l-7.18-22.87a2,2,0,0,0-1.82-1.38l-28.76-.8a2,2,0,0,0-1.9,1.28l-8.44,22.43a104.42,104.42,0,0,0-31.61,12.08l-21.26-11.1a2,2,0,0,0-2.27.32l-20.9,19.77a2,2,0,0,0-.44,2.24l9.9,21.85a104.23,104.23,0,0,0-13.83,30.89l-22.87,7.18a2,2,0,0,0-1.38,1.82l-.8,28.76a2,2,0,0,0,1.28,1.9l22.43,8.44a104.34,104.34,0,0,0,12.09,31.62L662,562.73a2,2,0,0,0,.32,2.27l19.77,20.9a2,2,0,0,0,2.24.44l21.85-9.9a104.23,104.23,0,0,0,30.89,13.83l7.18,22.87a2,2,0,0,0,1.82,1.38l28.76.8a2,2,0,0,0,1.9-1.28l8.44-22.43a104.58,104.58,0,0,0,31.62-12.08l21.25,11.1a2,2,0,0,0,2.27-.32l20.9-19.77a2,2,0,0,0,.44-2.24l-9.9-21.85a104.23,104.23,0,0,0,13.83-30.89l22.87-7.18a2,2,0,0,0,1.38-1.82l.8-28.76a2,2,0,0,0-1.28-1.9L867,467.46a104.42,104.42,0,0,0-12.08-31.61L866,414.59a2,2,0,0,0-.32-2.27Z" transform="translate(-637.34 -362)" style="fill:#151719"/><path d="M732,404.45a89.66,89.66,0,1,0,115.65,52A89.66,89.66,0,0,0,732,404.45Zm47.12,124.11a43.1,43.1,0,1,1,25-55.59A43.1,43.1,0,0,1,779.08,528.56Z" transform="translate(-637.34 -362)" style="fill:url(#ee5a7429-2978-4608-8e60-37320e48a795)"/><path d="M762.58,445.33a43.23,43.23,0,1,1-42.19,44.25,43.23,43.23,0,0,1,42.19-44.25m-10.76,11a34.13,34.13,0,1,0,44,19.79,34.17,34.17,0,0,0-44-19.79Z" transform="translate(-637.34 -362)" style="fill:url(#f95b70d4-bafc-4cfe-b05a-492f5eca63bb)"/></svg>