<svg id="f7fc9d20-bcde-492a-a2f5-8c755be96877" data-name="Capa 1" xmlns="http://www.w3.org/2000/svg" xmlns:xlink="http://www.w3.org/1999/xlink" viewBox="0 0 368.78 254.33"><defs><linearGradient id="fea60326-daff-4dc3-8878-e62708a34078" x1="-440.29" y1="750.83" x2="-269.46" y2="750.83" gradientUnits="userSpaceOnUse"><stop offset="0.05" stop-color="#a09682"/><stop offset="0.23" stop-color="#9c9079"/><stop offset="0.36" stop-color="#978970"/><stop offset="0.45" stop-color="#a1947b"/><stop offset="0.62" stop-color="#bdb19a"/><stop offset="0.84" stop-color="#eae0cb"/><stop offset="0.9" stop-color="#f6ecd8"/></linearGradient></defs><path d="M-395.78,747.15l-43.26.5.25,24.2a7.22,7.22,0,0,1-3.89,6.47,7.2,7.2,0,0,1-7.54-.57l-82.15-59.66a7.2,7.2,0,0,1-3-5.76,7.18,7.18,0,0,1,2.86-5.81l80.88-61a7.21,7.21,0,0,1,7.51-.71,7.21,7.21,0,0,1,4,6.38l.25,24.2,44.43-.47Z" transform="translate(535.34 -623.67)" style="fill:#151719"/><path d="M-304.76,754.11l43.25,1.06.63-24.19a7.23,7.23,0,0,1,4.12-6.33,7.24,7.24,0,0,1,7.51.85l79.93,62.61a7.24,7.24,0,0,1,2.76,5.87,7.14,7.14,0,0,1-3.08,5.7l-83,58a7.2,7.2,0,0,1-7.53.45,7.22,7.22,0,0,1-3.79-6.53l.62-24.2-44.41-1.14Z" transform="translate(535.34 -623.67)" style="fill:#151719"/><path d="M-363.14,878h18.48a10.08,10.08,0,0,0,10.09-10.07V850.75c14.79-2.21,27.69-6.84,38.62-14q25.86-17.1,26.48-47.11.38-18.75-10.42-31.84-17.52-20.91-54.68-26.13v-34.8a54.77,54.77,0,0,1,12.59,8.3,13.31,13.31,0,0,0,8.65,3.13c2.65,0,6.3-1.84,6.3-1.84l.06,0,20.71-13c2.83-1.79,4.28-4.07,4.33-6.85a7.56,7.56,0,0,0-2.71-5.85q-19.38-22.05-49.93-27.36V633.77a10.1,10.1,0,0,0-10.09-10.1h-18.48a10.1,10.1,0,0,0-10.1,10.1v19.08a92.41,92.41,0,0,0-25.91,7.27c-24.86,11.32-37.06,28.29-36.64,50.76a48.82,48.82,0,0,0,10,29.37q16.21,21.75,52.59,27.32V811q-15.7-5.57-29.7-20.7a9.79,9.79,0,0,0-8.17-4c-1.87,0-5.53,1.61-5.53,1.61l-.06,0L-435.55,799c-3.22,1.87-4.79,4.35-4.74,7.39a8.08,8.08,0,0,0,2.21,5.38,93.8,93.8,0,0,0,19.74,19.68,98,98,0,0,0,45.1,19.31v17.15A10.08,10.08,0,0,0-363.14,878Zm28.57-105.78c10,3.15,15,8.95,14.95,17.52-.06,8-3.71,14.11-10.9,18.49a33.81,33.81,0,0,1-4.05,2.12ZM-385.43,711q-.06-9.33,10.77-14.52l1.42-.56v30.86C-381.31,723.66-385.37,718.42-385.43,711Z" transform="translate(535.34 -623.67)" style="fill:url(#fea60326-daff-4dc3-8878-e62708a34078)"/></svg>