<svg id="b8f1e5ca-850e-4328-970f-74062a5fa69c" data-name="Capa 1" xmlns="http://www.w3.org/2000/svg" viewBox="0 0 240.49 252.85"><path d="M282.66,729.12a20,20,0,0,0,20,20L503,749a20,20,0,0,0,20-20s-.12-181.46-.12-184.16c0-4.37-1.06-8-3.88-10.76l-31.82-31.8c-3.59-3.57-10.34-5.95-15.36-5.95l-169.29.11a20,20,0,0,0-20,20ZM461.81,508.69l.05,68.46c0,6-6.12,11.66-12.07,11.66l-87,.06c-5.95,0-11.53-5.69-11.53-11.64l-.05-68.46Z" transform="translate(-282.51 -496.29)" style="fill:#151719"/><path d="M420,578.34l22.71,0a6.78,6.78,0,0,0,6.77-6.77l0-45.59a6.77,6.77,0,0,0-6.78-6.76H420a6.78,6.78,0,0,0-6.77,6.77l0,45.59A6.78,6.78,0,0,0,420,578.34Z" transform="translate(-282.51 -496.29)" style="fill:#151719"/><path d="M489.29,728.62H316.22V633a12.78,12.78,0,0,1,12.5-13H476.79a12.78,12.78,0,0,1,12.5,13Z" transform="translate(-282.51 -496.29)" style="fill:#151719"/></svg>