<svg id="b46f620b-476d-4330-91d4-93f995f99415" data-name="Capa 1" xmlns="http://www.w3.org/2000/svg" xmlns:xlink="http://www.w3.org/1999/xlink" viewBox="0 0 271.23 253.3"><defs><linearGradient id="b92b74c5-2eee-4ec5-806e-898f279d5648" x1="685.95" y1="745.88" x2="957.18" y2="745.88" gradientUnits="userSpaceOnUse"><stop offset="0.26" stop-color="#a09682"/><stop offset="0.5" stop-color="#9c9079"/><stop offset="0.67" stop-color="#978970"/><stop offset="0.81" stop-color="#998b72"/><stop offset="0.87" stop-color="#9f9179"/><stop offset="0.91" stop-color="#aa9c84"/><stop offset="0.94" stop-color="#b9ad95"/><stop offset="0.96" stop-color="#cdc2ab"/><stop offset="0.99" stop-color="#e6dbc6"/><stop offset="1" stop-color="#f6ecd8"/></linearGradient><linearGradient id="ea7a0afd-4475-48f1-b911-9fb818aee62a" x1="730.73" y1="632.5" x2="749.49" y2="632.5" gradientUnits="userSpaceOnUse"><stop offset="0.15" stop-color="#a09682"/><stop offset="0.47" stop-color="#9c9079"/><stop offset="0.68" stop-color="#978970"/><stop offset="0.82" stop-color="#998b72"/><stop offset="0.87" stop-color="#9f9179"/><stop offset="0.91" stop-color="#aa9c84"/><stop offset="0.94" stop-color="#b9ad95"/><stop offset="0.97" stop-color="#cdc2ab"/><stop offset="0.99" stop-color="#e6dbc6"/><stop offset="1" stop-color="#f6ecd8"/></linearGradient><linearGradient id="b9f5046c-a426-41a4-b5ea-11503608b753" x1="894.61" y1="631.55" x2="913.37" y2="631.55" xlink:href="#ea7a0afd-4475-48f1-b911-9fb818aee62a"/></defs><path d="M711.54,621.35A25.59,25.59,0,0,0,686,646.94V844.82a25.59,25.59,0,0,0,25.59,25.59H931.59a25.59,25.59,0,0,0,25.59-25.59V646.94a25.59,25.59,0,0,0-25.59-25.59h-9v16.21a19.62,19.62,0,0,1-39.24,0V621.35H759.73v16.21a19.62,19.62,0,0,1-39.24,0V621.35Zm16.21,57.56H915.38a10.19,10.19,0,0,1,10.24,10.15v140.5a10.19,10.19,0,0,1-10.24,10.14H727.75a10.19,10.19,0,0,1-10.24-10.14V689.06A10.19,10.19,0,0,1,727.75,678.91Z" transform="translate(-685.95 -617.11)" style="fill:url(#b92b74c5-2eee-4ec5-806e-898f279d5648)"/><path d="M730.73,622.73v19.54c0,2.58,4.21,4.67,9.38,4.67s9.38-2.09,9.38-4.67V622.73c0-2.58-4.21-4.67-9.38-4.67S730.73,620.15,730.73,622.73Z" transform="translate(-685.95 -617.11)" style="fill:url(#ea7a0afd-4475-48f1-b911-9fb818aee62a)"/><path d="M894.61,621.78v19.54c0,2.58,4.21,4.67,9.38,4.67s9.38-2.09,9.38-4.67V621.78c0-2.58-4.21-4.67-9.38-4.67S894.61,619.2,894.61,621.78Z" transform="translate(-685.95 -617.11)" style="fill:url(#b9f5046c-a426-41a4-b5ea-11503608b753)"/></svg>