<svg id="aee299b9-8c2f-4554-bcbc-b801f97bbc9f" data-name="svg8" xmlns="http://www.w3.org/2000/svg" xmlns:xlink="http://www.w3.org/1999/xlink" viewBox="0 0 698.14 416.22"><defs><linearGradient id="ad5e9221-5097-4350-9424-8a46acce24c9" x1="142.34" x2="840.48" gradientUnits="userSpaceOnUse"><stop offset="0.19" stop-color="#a09682"/><stop offset="0.25" stop-color="#9b8f79"/><stop offset="0.36" stop-color="#988a72"/><stop offset="0.64" stop-color="#978970"/><stop offset="0.8" stop-color="#998b72"/><stop offset="0.86" stop-color="#9f9179"/><stop offset="0.9" stop-color="#aa9c84"/><stop offset="0.93" stop-color="#b9ad95"/><stop offset="0.96" stop-color="#cdc2ab"/><stop offset="0.99" stop-color="#e6dbc6"/><stop offset="1" stop-color="#f6ecd8"/></linearGradient></defs><g id="bf64980a-a920-40a9-b87a-1a1e0071bf92" data-name="layer1"><path id="f0e8e442-6d67-413f-9d8b-5fb940e08c05" data-name="path26" d="M150.82,195.19c-11.74-13-10.39-37.11,2.59-46.2,9.32-6.52,43.13-7.45,271.26-7.45,190.36,0,248.55-.65,280-5.81,44.91-7.37,72.8-61.25,61-100.65-6.9-23-28.58-47.93-51.76-59.45-16.56-8.24-34.4-9-233.46-10.18L264.9-35.81,302.17-1c32,29.85,37.25,37,37.12,50.43-.12,13-2.89,17-16.41,23.4C295.4,85.92,290.61,82.93,182.28-15,124.64-67.16,124.17-65.3,215.4-144.81c59.77-52.08,75.28-63.3,87.54-63.3,22.16,0,36.2,11.86,36.2,30.57,0,13.49-5,20.1-36.21,47.63l-36.22,32H472.08c127.87,0,216,2,233.64,5.23,54,10,99.54,42.07,120.65,85.06,18,36.6,18.88,88.13,2.11,120.46-15.68,30.23-44.81,59-76.68,74.88-21.7,10.81-47.68,14.56-69.58,15.63-86.61,5.39-171.82,2.71-244.08,4.8-202-1-280.2,2.14-285.4-11.14a13.67,13.67,0,0,1-1.92-1.78Z" transform="translate(-142.34 208.11)" style="fill:url(#ad5e9221-5097-4350-9424-8a46acce24c9)"/></g></svg>