<svg xmlns="http://www.w3.org/2000/svg" xmlns:xlink="http://www.w3.org/1999/xlink" viewBox="0 0 184.71 228.49"><defs><filter id="ba54e8b7-1279-40aa-accf-10e6dbd33cac" x="1224.7" y="-8704" width="35.59" height="32766" filterUnits="userSpaceOnUse" color-interpolation-filters="sRGB"><feFlood flood-color="#fff" result="bg"/><feBlend in="SourceGraphic" in2="bg"/></filter><mask id="ea78fa3f-d13c-4d1a-b4bf-ab32958c5a0b" x="1224.7" y="-8704" width="35.59" height="32766" maskUnits="userSpaceOnUse"><g style="filter:url(#ba54e8b7-1279-40aa-accf-10e6dbd33cac)"/></mask><linearGradient id="b68df7d6-cef1-4b12-b1b7-cf630b521042" x1="-284.58" y1="1144.97" x2="-245.63" y2="1217.12" gradientTransform="translate(2333.91 135.61) rotate(51.52)" gradientUnits="userSpaceOnUse"><stop offset="0.21" stop-color="gray"/><stop offset="0.6" stop-color="gray"/></linearGradient><filter id="b7393f55-b07d-47d8-904b-a318951a655d" x="1224.7" y="636.73" width="35.59" height="42.75" filterUnits="userSpaceOnUse" color-interpolation-filters="sRGB"><feFlood flood-color="#fff" result="bg"/><feBlend in="SourceGraphic" in2="bg"/></filter><mask id="f3a5f032-e5ba-4a43-b2f6-8b933c8c5d98" x="67.7" y="40.07" width="35.59" height="42.75" maskUnits="userSpaceOnUse"><g style="filter:url(#b7393f55-b07d-47d8-904b-a318951a655d)"><g transform="translate(-1157 -596.66)"><g style="mask:url(#ea78fa3f-d13c-4d1a-b4bf-ab32958c5a0b)"><path d="M1246.68,638.26c-3.5,1.79-7.35,6.22-13.92,16.58s-17.72,22.36,8.55,24.53c25.79,2.14,18.41-28.92,16.64-36C1255.74,634.51,1250.18,636.48,1246.68,638.26Z" style="mix-blend-mode:multiply;fill:url(#b68df7d6-cef1-4b12-b1b7-cf630b521042)"/></g></g></g></mask><linearGradient id="b661b8d9-2a19-4ac8-a043-5331415db173" x1="-284.58" y1="1144.97" x2="-245.63" y2="1217.12" gradientTransform="translate(2333.91 135.61) rotate(51.52)" gradientUnits="userSpaceOnUse"><stop offset="0.21" stop-color="#babcbe"/><stop offset="0.31" stop-color="#d5d6d8"/><stop offset="0.42" stop-color="#eceded"/><stop offset="0.52" stop-color="#fafafa"/><stop offset="0.6" stop-color="#fff"/></linearGradient><linearGradient id="f4d7adee-ac17-4ee8-b6be-786aa12d824f" x1="-297.4" y1="1135.26" x2="-276.78" y2="1163.96" gradientTransform="translate(2333.91 135.61) rotate(51.52)" gradientUnits="userSpaceOnUse"><stop offset="0.53" stop-color="#272425"/><stop offset="0.98" stop-color="#babcbe"/></linearGradient><linearGradient id="ea356ed7-3284-4340-92a9-0cbb7d71d7b5" x1="-603.06" y1="541.1" x2="-585.53" y2="579.06" gradientTransform="matrix(0.91, 0.41, -0.41, 0.91, 2025.62, 348.1)" gradientUnits="userSpaceOnUse"><stop offset="0.05" stop-color="#a09682"/><stop offset="0.23" stop-color="#9c9079"/><stop offset="0.36" stop-color="#978970"/><stop offset="0.45" stop-color="#a1947b"/><stop offset="0.62" stop-color="#bdb19a"/><stop offset="0.84" stop-color="#eae0cb"/><stop offset="0.9" stop-color="#f6ecd8"/></linearGradient><linearGradient id="a416c733-75b9-4381-b10c-b5ee7357c15c" x1="-599.64" y1="546.42" x2="-582.1" y2="584.38" xlink:href="#ea356ed7-3284-4340-92a9-0cbb7d71d7b5"/><linearGradient id="bccc4c32-4347-4291-ae9e-5e5c5629cf18" x1="-583.71" y1="572.14" x2="-597.92" y2="537.42" xlink:href="#ea356ed7-3284-4340-92a9-0cbb7d71d7b5"/><linearGradient id="af5c0785-4b66-4253-8f0a-e35faaba9d42" x1="-605.26" y1="529.32" x2="-579.44" y2="555.13" xlink:href="#ea356ed7-3284-4340-92a9-0cbb7d71d7b5"/><linearGradient id="a94bcbf5-9ac2-4795-910b-733a961fef56" x1="-601.5" y1="532.63" x2="-576.88" y2="557.25" xlink:href="#ea356ed7-3284-4340-92a9-0cbb7d71d7b5"/><linearGradient id="bf6905d6-688c-425c-a0b9-bb1b274edd17" x1="-595.94" y1="530.83" x2="-587.91" y2="548.22" xlink:href="#ea356ed7-3284-4340-92a9-0cbb7d71d7b5"/><linearGradient id="b0008086-f3b5-44b2-81fc-d447e6c9fe7c" x1="-587.82" y1="549.77" x2="-589.59" y2="545.45" xlink:href="#ea356ed7-3284-4340-92a9-0cbb7d71d7b5"/><linearGradient id="fdb15e59-06f7-4455-b217-c3e1a4719b9c" x1="-621.73" y1="299.39" x2="-623.5" y2="295.06" gradientTransform="translate(1931.26 474.47) rotate(12.2)" gradientUnits="userSpaceOnUse"><stop offset="0.33" stop-color="#fff"/><stop offset="0.42" stop-color="#d5e9fa"/><stop offset="0.57" stop-color="#97c8f2"/><stop offset="0.68" stop-color="#70b3ed"/><stop offset="0.74" stop-color="#61abeb"/></linearGradient></defs><g style="isolation:isolate"><g id="e9be9c74-0cc2-4eb7-8b73-002bf1b32169" data-name="Capa 1"><path d="M1158.21,619l183,1.62s.69,168.46.39,189.72c0,0-63.62,14.8-87.63,14.81s-97-15-97-15Z" transform="translate(-1157 -596.66)" style="fill:#151719"/><g style="mask:url(#f3a5f032-e5ba-4a43-b2f6-8b933c8c5d98)"><path d="M1246.68,638.26c-3.5,1.79-7.35,6.22-13.92,16.58s-17.72,22.36,8.55,24.53c25.79,2.14,18.41-28.92,16.64-36C1255.74,634.51,1250.18,636.48,1246.68,638.26Z" transform="translate(-1157 -596.66)" style="mix-blend-mode:multiply;fill:url(#b661b8d9-2a19-4ac8-a043-5331415db173)"/></g><path d="M1252.48,640.91a2.32,2.32,0,0,1-1.81.43c-1-.24-1.11-1.4-1.11-1.4l3.09-11.58,3.81,1.4Z" transform="translate(-1157 -596.66)" style="fill:url(#f4d7adee-ac17-4ee8-b6be-786aa12d824f)"/><path d="M1252.91,632.08c-6.13-2.71-9.68-8.41-8.68-13.36a7.47,7.47,0,0,0-1.07,1.73c-2.22,5,1.53,11.54,8.37,14.57s14.2,1.43,16.42-3.59a7.58,7.58,0,0,0,.49-1.6C1265.35,633.67,1258.9,634.74,1252.91,632.08Z" transform="translate(-1157 -596.66)" style="fill:url(#ea356ed7-3284-4340-92a9-0cbb7d71d7b5)"/><path d="M1252.91,632.08c6,2.66,12.44,1.59,15.53-2.25.91-4.73-2.72-10.25-8.86-13-6-2.65-12.35-1.76-15.35,1.86C1243.23,623.67,1246.78,629.37,1252.91,632.08Z" transform="translate(-1157 -596.66)" style="fill:url(#a416c733-75b9-4381-b10c-b5ee7357c15c)"/><path d="M1258.07,603.39s-.28,5.4-6.59,14.31c0,0-.65,4.4,4.74,6.58,5.23,2.12,7.76-1.24,7.76-1.24s2.13-12.1,6.13-15.45C1270.11,607.59,1262.89,601.87,1258.07,603.39Z" transform="translate(-1157 -596.66)" style="fill:url(#bccc4c32-4347-4291-ae9e-5e5c5629cf18)"/><path d="M1273.69,608.39c-1.59,3.59-7,4.68-12,2.45s-7.86-7-6.27-10.55,7-4.68,12-2.44S1275.28,604.81,1273.69,608.39Z" transform="translate(-1157 -596.66)" style="fill:url(#af5c0785-4b66-4253-8f0a-e35faaba9d42)"/><path d="M1273.81,608.14c-1.28,2.91-6.42,3.45-11.47,1.22s-8.1-6.41-6.81-9.32,6.84-4.43,11.89-2.19S1275.1,605.23,1273.81,608.14Z" transform="translate(-1157 -596.66)" style="fill:url(#a94bcbf5-9ac2-4795-910b-733a961fef56)"/><path d="M1273.35,604.89c-.86,2-5.44,1.74-9.07.14s-6.76-5-5.9-6.93,5.11-1.82,8.73-.21S1274.22,602.94,1273.35,604.89Z" transform="translate(-1157 -596.66)" style="fill:url(#bf6905d6-688c-425c-a0b9-bb1b274edd17)"/><path d="M1259.56,607.83a26.69,26.69,0,0,0,6.57,2.43,11.12,11.12,0,0,0,5.45-.11S1267.25,612.67,1259.56,607.83Z" transform="translate(-1157 -596.66)" style="fill:url(#b0008086-f3b5-44b2-81fc-d447e6c9fe7c)"/><path d="M1253.56,632.21a26.49,26.49,0,0,0,6.92,1,11.18,11.18,0,0,0,5.32-1.2S1262.07,635.38,1253.56,632.21Z" transform="translate(-1157 -596.66)" style="fill:url(#fdb15e59-06f7-4455-b217-c3e1a4719b9c)"/><path d="M1266.76,626.63c.49,1-2.16,1.75-3.3,2.14s-4.17,1.18-4.33.72,2.49-2,3.64-2.39S1266.16,625.43,1266.76,626.63Z" transform="translate(-1157 -596.66)" style="fill:#fff"/><path d="M1258.73,629.48c0,.15-.58.51-1,.64s-1.37.39-1.43.24.82-.54,1.19-.67S1258.68,629.33,1258.73,629.48Z" transform="translate(-1157 -596.66)" style="fill:#fff"/><path d="M1271.65,607.63c.06.15-.57.51-1,.64s-1.38.39-1.43.24.81-.55,1.19-.67S1271.6,607.47,1271.65,607.63Z" transform="translate(-1157 -596.66)" style="fill:#fff"/><path d="M1269,608.59c0,.08-.34.3-.56.37s-.8.23-.83.14.48-.32.7-.39S1269,608.5,1269,608.59Z" transform="translate(-1157 -596.66)" style="fill:#fff"/></g></g></svg>