<svg id="b71d1656-5518-4c8c-b392-5debcbb7e259" data-name="Capa 1" xmlns="http://www.w3.org/2000/svg" xmlns:xlink="http://www.w3.org/1999/xlink" viewBox="0 0 186.46 231.7"><defs><linearGradient id="b8d36b2a-c1f7-4c49-b508-fb0aca8c26b8" x1="190.24" y1="654.44" x2="214.24" y2="654.44" gradientUnits="userSpaceOnUse"><stop offset="0.05" stop-color="#a09682"/><stop offset="0.23" stop-color="#9c9079"/><stop offset="0.36" stop-color="#978970"/><stop offset="0.45" stop-color="#a1947b"/><stop offset="0.62" stop-color="#bdb19a"/><stop offset="0.84" stop-color="#eae0cb"/><stop offset="0.9" stop-color="#f6ecd8"/></linearGradient><linearGradient id="ed923f30-6ec3-4e27-9a4a-782be720fde6" x1="193.6" y1="634.34" x2="196.04" y2="634.34" xlink:href="#b8d36b2a-c1f7-4c49-b508-fb0aca8c26b8"/><linearGradient id="a4099bae-63ed-4ed9-a41d-e35b824d8814" x1="167.3" y1="620.85" x2="264.68" y2="718.23" xlink:href="#b8d36b2a-c1f7-4c49-b508-fb0aca8c26b8"/><linearGradient id="bb892919-f9de-46ef-925d-dfc9f8540f26" x1="193.33" y1="632.26" x2="199.66" y2="638.59" xlink:href="#b8d36b2a-c1f7-4c49-b508-fb0aca8c26b8"/><linearGradient id="bd50f83d-1416-44c2-962f-551927c1581f" x1="0.7" y1="43.46" x2="1.2" y2="43.46" xlink:href="#b8d36b2a-c1f7-4c49-b508-fb0aca8c26b8"/><linearGradient id="a804397a-236d-4e8f-a02d-fbbbc24b9794" x1="22.95" y1="49.09" x2="23.24" y2="49.09" xlink:href="#b8d36b2a-c1f7-4c49-b508-fb0aca8c26b8"/><linearGradient id="be5cadbe-6b7f-454b-bd1a-98a132839eda" x1="19.68" y1="18.99" x2="20.24" y2="18.99" xlink:href="#b8d36b2a-c1f7-4c49-b508-fb0aca8c26b8"/><linearGradient id="a0ee66c7-9521-49ae-b30e-2b341df58293" x1="3.94" y1="23.9" x2="4.48" y2="23.9" xlink:href="#b8d36b2a-c1f7-4c49-b508-fb0aca8c26b8"/><linearGradient id="a889b5a1-1500-463b-b70b-3a166b7fb8a6" x1="190.94" y1="616.14" x2="196.89" y2="616.14" xlink:href="#b8d36b2a-c1f7-4c49-b508-fb0aca8c26b8"/><linearGradient id="fe4817a7-cc1a-4159-a140-d4cfbfb6444a" x1="207.56" y1="692.21" x2="213.5" y2="692.21" xlink:href="#b8d36b2a-c1f7-4c49-b508-fb0aca8c26b8"/></defs><path d="M193.21,636l183,1.62s.69,168.46.39,189.72c0,0-63.62,14.8-87.63,14.81s-97-15-97-15Z" transform="translate(-190.24 -610.45)" style="fill:#151719"/><path d="M213,631.35a1.41,1.41,0,0,0-1.17.48v55.31c0,5-4.9,8.87-9.62,8.87-4.94,0-9.54-4-9.54-8.87v-65.4c0-5.22,3.22-8.87,7.83-8.87s7.91,3.65,7.91,8.87v15l2.45-.08,0-14.93c0-6.54-4.34-11.29-10.33-11.29s-10.25,4.75-10.25,11.29v65.4c0,6.22,5.68,11.29,12,11.29,6,0,12-4.83,12-11.29V631.83A1.68,1.68,0,0,0,213,631.35Z" transform="translate(-190.24 -610.45)" style="fill:url(#b8d36b2a-c1f7-4c49-b508-fb0aca8c26b8)"/><path d="M196,632.11s-.24-.56-1.19-.56a1.32,1.32,0,0,0-1.23.56l0,5,2.44-.09Z" transform="translate(-190.24 -610.45)" style="fill:url(#ed923f30-6ec3-4e27-9a4a-782be720fde6)"/><path d="M211.82,631.83v55.31c0,5-4.9,8.87-9.62,8.87-4.94,0-9.54-4-9.54-8.87v-65.4c0-5.22,3.22-8.87,7.83-8.87s7.91,3.65,7.91,8.87v15l1,0c0-4.6,0-9.76,0-12.73,0-12.58-9-12-9-12s-8.54.68-8.54,8.84v66.66s.75,9.34,10.47,9.34c0,0,10-1.18,10-9V631.45Z" transform="translate(-190.24 -610.45)" style="fill:url(#a4099bae-63ed-4ed9-a41d-e35b824d8814)"/><path d="M196,632.11l-.74-.47c0,.92,0,3.72,0,5.43l.76,0Z" transform="translate(-190.24 -610.45)" style="fill:url(#bb892919-f9de-46ef-925d-dfc9f8540f26)"/><polygon points="0.7 10.84 0.7 76.73 0.8 74.65 1.2 10.2 0.7 10.84" style="fill:url(#bd50f83d-1416-44c2-962f-551927c1581f)"/><polygon points="22.95 20.95 22.95 77.23 23.24 76.93 23.09 21.54 22.95 20.95" style="fill:url(#a804397a-236d-4e8f-a02d-fbbbc24b9794)"/><polygon points="20.24 11.73 19.71 12.71 19.68 26.26 20.1 26.25 20.24 11.73" style="fill:url(#be5cadbe-6b7f-454b-bd1a-98a132839eda)"/><polygon points="4.48 21.12 3.94 22.09 3.94 26.68 4.42 26.66 4.48 21.12" style="fill:url(#a0ee66c7-9521-49ae-b30e-2b341df58293)"/><path d="M190.94,620.65l.45-.45s.64-6.44,5.5-8.57c0,0-3.82,1.44-5,4.71A22.92,22.92,0,0,0,190.94,620.65Z" transform="translate(-190.24 -610.45)" style="fill:url(#a889b5a1-1500-463b-b70b-3a166b7fb8a6)"/><path d="M213.5,687.71l-.44.44s-.65,6.44-5.5,8.57c0,0,3.81-1.43,4.95-4.7A23.09,23.09,0,0,0,213.5,687.71Z" transform="translate(-190.24 -610.45)" style="fill:url(#fe4817a7-cc1a-4159-a140-d4cfbfb6444a)"/></svg>