<svg id="ac2af1c3-fb8c-41b5-8c15-09c39f01a372" data-name="Capa 1" xmlns="http://www.w3.org/2000/svg" xmlns:xlink="http://www.w3.org/1999/xlink" viewBox="0 0 258.58 260.2"><defs><linearGradient id="e9419601-8472-4119-a168-6ee992212711" x1="767.74" y1="191.39" x2="1023.89" y2="191.39" gradientUnits="userSpaceOnUse"><stop offset="0.04" stop-color="#151719"/><stop offset="0.21" stop-color="#1a1a1a"/><stop offset="0.28" stop-color="#1f1f1e"/><stop offset="0.36" stop-color="#2f2d2a"/><stop offset="0.46" stop-color="#49453e"/><stop offset="0.56" stop-color="#6d665a"/><stop offset="0.67" stop-color="#9a917d"/><stop offset="0.68" stop-color="#a09682"/><stop offset="0.71" stop-color="#b1a793"/><stop offset="0.8" stop-color="#d7cdb9"/><stop offset="0.87" stop-color="#eee4d0"/><stop offset="0.91" stop-color="#f6ecd8"/></linearGradient><linearGradient id="ad1956c4-958a-49d6-b026-3757734a434f" x1="846.3" y1="246.62" x2="961.48" y2="246.62" gradientUnits="userSpaceOnUse"><stop offset="0.05" stop-color="#a09682"/><stop offset="0.23" stop-color="#9c9079"/><stop offset="0.36" stop-color="#978970"/><stop offset="0.45" stop-color="#a1947b"/><stop offset="0.62" stop-color="#bdb19a"/><stop offset="0.84" stop-color="#eae0cb"/><stop offset="0.9" stop-color="#f6ecd8"/></linearGradient><linearGradient id="a4896847-4db4-4e10-9621-f3c02337e3fe" x1="98.45" y1="127.7" x2="163.14" y2="127.7" xlink:href="#ad1956c4-958a-49d6-b026-3757734a434f"/></defs><circle cx="129.29" cy="130.91" r="129.29" style="fill:#151719"/><path d="M1023.89,256c0-70.74-57.34-129.3-128.07-129.3S767.74,185.3,767.74,256Z" transform="translate(-765.31 -126.74)" style="fill:url(#e9419601-8472-4119-a168-6ee992212711)"/><path d="M961.41,171.4a2.1,2.1,0,0,0-3.17-2.29C943.68,178.5,868.59,280,864,286.37c-9.14,12.85-25.86,26.64-13.12,35.84s20.34-11.8,29.48-24.66C885,291.14,957.28,188.31,961.41,171.4Z" transform="translate(-765.31 -126.74)" style="fill:url(#ad1956c4-958a-49d6-b026-3757734a434f)"/><circle cx="130.8" cy="127.7" r="32.35" style="fill:url(#a4896847-4db4-4e10-9621-f3c02337e3fe)"/><circle cx="130.22" cy="127.92" r="21.96" style="fill:#151719"/></svg>