<?xml version="1.0" encoding="UTF-8"?>
<svg id="Capa_1" data-name="Capa 1" xmlns="http://www.w3.org/2000/svg" viewBox="0 0 111.25 111.25">
  <defs>
    <style>
      .cls-1 {
        fill: #222539;
      }

      .cls-2 {
        fill: #14162a;
      }
    </style>
  </defs>
  <path class="cls-2" d="M94.92,55.88c0,21.56-17.48,39.04-39.04,39.04S16.83,77.44,16.83,55.88,34.31,16.83,55.88,16.83s39.04,17.48,39.04,39.04Zm16.33,0c0,30.58-24.79,55.37-55.37,55.37S.5,86.46,.5,55.88,25.3,.5,55.88,.5s55.37,24.79,55.37,55.37Zm-11.61,0c0-24.17-19.59-43.76-43.76-43.76S12.11,31.71,12.11,55.88s19.59,43.76,43.76,43.76,43.76-19.59,43.76-43.76Z"/>
  <path class="cls-1" d="M94.42,55.37c0,21.56-17.48,39.04-39.04,39.04S16.33,76.94,16.33,55.37,33.81,16.33,55.37,16.33s39.04,17.48,39.04,39.04Zm16.33,0c0,30.58-24.79,55.37-55.37,55.37S0,85.96,0,55.37,24.79,0,55.37,0s55.37,24.79,55.37,55.37Zm-11.61,0c0-24.17-19.59-43.76-43.76-43.76S11.61,31.2,11.61,55.37s19.59,43.76,43.76,43.76,43.76-19.59,43.76-43.76Z"/>
</svg>