<?xml version="1.0" encoding="UTF-8" standalone="no"?>
<!-- Created with Inkscape (http://www.inkscape.org/) -->

<svg
   width="43.325218mm"
   height="43.345306mm"
   viewBox="0 0 43.325218 43.345306"
   version="1.1"
   id="svg5"
   xml:space="preserve"
   xmlns="http://www.w3.org/2000/svg"
   xmlns:svg="http://www.w3.org/2000/svg"><defs
     id="defs2" /><path
     style="fill:#27243f;fill-opacity:1;stroke-width:0.828954"
     d="m -0.16568527,21.506321 c 0,-21.5528582 0,-21.5528582 21.55284727,-21.5528582 21.55283,0 21.55283,0 21.55283,21.5528582 0,21.552832 0,21.552832 -21.55283,21.552832 -21.55284727,0 -21.55284727,0 -21.55284727,-21.552832 z m 41.44780127,0 c 0,-19.89493 0,-19.89493 -19.894954,-19.89493 -19.8949191,0 -19.8949191,0 -19.8949191,19.89493 0,19.89493 0,19.89493 19.8949191,19.89493 19.894954,0 19.894954,0 19.894954,-19.89493 z M 10.190611,32.273613 c -0.3902264,-0.631404 1.265356,-2.891905 4.451696,-6.078279 5.072991,-5.072976 5.072991,-5.072976 -0.05451,-10.246523 -2.820159,-2.845477 -4.8550246,-5.446145 -4.521888,-5.779274 0.333139,-0.3331548 2.916595,1.70519 5.741024,4.529604 5.135289,5.135305 5.135289,5.135305 10.248021,0.06804 3.175791,-3.147532 5.49009,-4.8340578 6.108801,-4.451712 0.670353,0.414306 -0.717566,2.344598 -4.244569,5.90323 -5.240614,5.287649 -5.240614,5.287649 -0.06024,10.514402 2.849176,2.874726 4.910699,5.496405 4.581115,5.825963 -0.32956,0.329584 -2.95126,-1.731937 -5.825975,-4.581089 -5.226762,-5.180326 -5.226762,-5.180326 -10.51439,0.06022 -3.591833,3.559909 -5.486872,4.918233 -5.908923,4.235343 z"
     id="path39942" /></svg>
