<?xml version="1.0" encoding="UTF-8" standalone="no"?>
<!-- Created with Inkscape (http://www.inkscape.org/) -->

<svg
   width="43.325218mm"
   height="43.345306mm"
   viewBox="0 0 43.325218 43.345306"
   version="1.1"
   id="svg5"
   xml:space="preserve"
   sodipodi:docname="objetivos 3.svg"
   inkscape:version="1.3 (0e150ed6c4, 2023-07-21)"
   xmlns:inkscape="http://www.inkscape.org/namespaces/inkscape"
   xmlns:sodipodi="http://sodipodi.sourceforge.net/DTD/sodipodi-0.dtd"
   xmlns="http://www.w3.org/2000/svg"
   xmlns:svg="http://www.w3.org/2000/svg"><sodipodi:namedview
     id="namedview68692"
     pagecolor="#ffffff"
     bordercolor="#000000"
     borderopacity="0.25"
     inkscape:showpageshadow="2"
     inkscape:pageopacity="0.0"
     inkscape:pagecheckerboard="0"
     inkscape:deskcolor="#d1d1d1"
     inkscape:document-units="mm"
     showgrid="false"
     inkscape:zoom="3.6108377"
     inkscape:cx="81.836966"
     inkscape:cy="81.836966"
     inkscape:window-width="1920"
     inkscape:window-height="991"
     inkscape:window-x="-9"
     inkscape:window-y="-9"
     inkscape:window-maximized="1"
     inkscape:current-layer="svg5" /><defs
     id="defs2" /><path
     style="fill:#0074b1;fill-opacity:1;stroke-width:1.31897"
     d="M 1.5783133,42.91615 C 0.09535055,42.011934 0.17156438,43.161939 0.17156438,21.689335 0.17156438,0.21673036 0.0953545,1.3667346 1.5783133,0.46251975 2.273042,0.03891917 2.8469018,0.02651825 21.791282,0.02570709 c 21.522297,-9.2196e-4 20.367212,-0.07726506 21.27156,1.40591401 0.423637,0.6947894 0.435978,1.2681744 0.435978,20.2577139 0,18.989539 -0.0124,19.562924 -0.435978,20.257713 -0.904348,1.48318 0.250737,1.406836 -21.27156,1.405914 C 2.8469018,43.352151 2.273042,43.339746 1.5783133,42.91615 Z M 21.165992,39.142059 c 0,-2.201632 0,-2.201632 -1.357732,-2.343543 C 16.711702,36.474861 13.680834,34.960262 11.234639,32.514067 8.7494771,30.028906 7.2370433,26.961176 6.9426355,23.808428 6.8073201,22.35937 6.8073201,22.35937 4.4944953,22.35937 c -2.312826,0 -2.312826,0 -2.312826,9.045471 0,8.747678 0.014706,9.060177 0.4466904,9.492161 0.4319839,0.431985 0.7444826,0.446691 9.4921603,0.446691 9.045472,0 9.045472,0 9.045472,-2.201634 z m 19.877702,1.754943 c 0.431801,-0.431799 0.446691,-0.744483 0.446691,-9.380488 0,-8.9338 0,-8.9338 -2.313305,-8.9338 -2.313306,0 -2.313306,0 -2.455217,1.357732 -0.323654,3.096558 -1.838254,6.127426 -4.284448,8.573621 -2.446195,2.446195 -5.477064,3.960794 -8.573621,4.284449 -1.357732,0.141911 -1.357732,0.141911 -1.357732,2.343543 0,2.201634 0,2.201634 9.045471,2.201634 8.747679,0 9.060177,-0.01471 9.492161,-0.446691 z m -19.877702,-6.55743 c 0,-1.197151 0,-1.197151 -1.172561,-1.320117 C 15.344,32.53187 10.836954,28.076292 10.285803,23.422685 10.159868,22.35937 10.159868,22.35937 9.1859257,22.35937 c -0.9696158,0 -0.973942,0.0036 -0.973942,0.805305 0,1.17811 0.6007998,3.302865 1.4088975,4.982623 0.9386848,1.951205 3.9461148,4.997281 5.8498138,5.924983 1.647564,0.802882 3.741685,1.427327 4.857753,1.448531 0.837544,0.01591 0.837544,0.01591 0.837544,-1.18124 z m 4.080602,0.846485 c 0.744297,-0.192867 2.01512,-0.669071 2.824051,-1.058231 2.033498,-0.978274 5.002254,-3.94703 5.980528,-5.980528 0.779602,-1.620527 1.408897,-3.796176 1.408897,-4.870951 0,-0.68822 -0.0092,-0.693633 -1.177296,-0.693633 -1.177296,0 -1.177296,0 -1.438809,1.37608 -0.816605,4.296964 -4.66486,8.145218 -8.961824,8.961823 -1.376079,0.261514 -1.376079,0.261514 -1.376079,1.438811 0,1.168109 0.0054,1.177296 0.693632,1.177296 0.381498,0 1.302604,-0.157801 2.0469,-0.350667 z M 21.20959,30.678971 c 0.0619,-0.964566 0.118773,-1.06089 0.626437,-1.06089 0.507666,0 0.564542,0.09632 0.626436,1.06089 0.06108,0.951983 0.123099,1.060888 0.604039,1.060888 0.975641,0 3.438905,-1.04629 4.63096,-1.967035 0.645663,-0.498711 1.564811,-1.420118 2.042554,-2.047573 0.891434,-1.170789 1.92319,-3.628675 1.92319,-4.581492 0,-0.470167 -0.115594,-0.543724 -0.949216,-0.604039 -0.849365,-0.06145 -0.956651,-0.133287 -1.019888,-0.682877 -0.06797,-0.590683 -0.03163,-0.614199 0.949216,-0.614199 1.014131,0 1.019888,-0.0044 1.019888,-0.771546 0,-1.163707 -0.946656,-3.535122 -1.92319,-4.817678 -0.477743,-0.627456 -1.396891,-1.548864 -2.042554,-2.047574 -1.192617,-0.921179 -3.655439,-1.967035 -4.632052,-1.967035 -0.497146,0 -0.542034,0.09544 -0.604039,1.284234 -0.06274,1.20309 -0.102259,1.284234 -0.625344,1.284234 -0.523083,0 -0.562595,-0.08114 -0.625345,-1.284234 -0.06698,-1.284234 -0.06698,-1.284234 -0.827383,-1.284234 -1.153694,0 -3.528796,0.950327 -4.806533,1.92319 -0.627455,0.477743 -1.548862,1.396891 -2.047573,2.042554 -0.96366,1.247615 -1.967035,3.667365 -1.967035,4.743723 0,0.633096 0.03096,0.650344 1.284235,0.715712 1.203089,0.06274 1.284232,0.10226 1.284232,0.625345 0,0.523083 -0.08114,0.562594 -1.284232,0.625344 -1.253284,0.06537 -1.284235,0.08262 -1.284235,0.715712 0,1.076359 1.003375,3.496108 1.967035,4.743725 1.68257,2.178363 4.679535,3.924389 6.787018,3.954106 0.825306,0.01161 0.825306,0.01161 0.893379,-1.049251 z m -2.167001,-3.484475 c -2.185234,-1.017613 -3.450411,-3.07716 -3.450411,-5.616834 0,-3.567347 2.52123,-6.137623 6.020504,-6.137623 3.499275,0 6.020504,2.570276 6.020504,6.137623 0,3.567348 -2.521229,6.137624 -6.020504,6.137624 -1.051956,0 -1.759719,-0.143418 -2.570093,-0.52079 z m 5.181806,-1.846524 c 2.541536,-2.043107 2.537806,-5.500424 -0.0082,-7.547209 -0.794857,-0.639015 -0.987237,-0.69 -2.603573,-0.69 -1.616336,0 -1.808717,0.05099 -2.603572,0.69 -2.822255,2.268919 -2.466932,6.3085 0.705139,8.016553 0.477651,0.257198 1.099287,0.339727 2.165024,0.287429 1.273564,-0.06249 1.620904,-0.174584 2.345122,-0.756773 z m 11.235675,-4.79896 c 0,-1.074775 -0.629295,-3.250423 -1.408897,-4.87095 -0.978274,-2.033498 -3.94703,-5.002254 -5.980528,-5.9805284 -1.620527,-0.7796015 -3.796175,-1.4088975 -4.870951,-1.4088975 -0.667682,0 -0.693632,0.035691 -0.693632,0.9539517 0,0.9539512 0,0.9539512 1.376079,1.2154642 2.834288,0.538635 5.59562,2.426942 7.315677,5.002749 0.968611,1.450505 1.805458,3.77902 1.805458,5.023663 0,0.75818 0,0.75818 1.228397,0.75818 1.225276,0 1.228397,-0.0017 1.228397,-0.693632 z m 6.030315,-8.463511 c 0,-8.8593509 -0.01452,-9.1716715 -0.446691,-9.6038349 -0.431984,-0.4319839 -0.744482,-0.446689 -9.492161,-0.446689 -9.045471,0 -9.045471,0 -9.045471,2.4249778 0,2.4249778 0,2.4249778 1.357732,2.5668893 3.096557,0.3236533 6.127426,1.8382541 8.573621,4.2844488 2.446194,2.446193 3.960794,5.477063 4.284448,8.57362 0.141911,1.357731 0.141911,1.357731 2.455217,1.357731 2.313305,0 2.313305,0 2.313305,-9.157143 z M 7.0385508,19.339053 C 8.0468491,13.001814 13.567289,7.6791549 19.80826,7.0268442 c 1.357732,-0.1419115 1.357732,-0.1419115 1.357732,-2.5668893 0,-2.4249778 0,-2.4249778 -9.045472,-2.4249778 -8.7476777,0 -9.0601764,0.014706 -9.4921603,0.446689 -0.431984,0.431984 -0.4466904,0.744484 -0.4466904,9.4921619 0,9.045472 0,9.045472 2.2947707,9.045472 2.2947721,0 2.2947721,0 2.5621108,-1.680247 z m 3.2472522,0.616932 c 0.551151,-4.653608 5.058197,-9.109186 9.707628,-9.596771 1.172561,-0.122967 1.172561,-0.122967 1.172561,-1.0967718 0,-0.9404719 -0.02374,-0.9738061 -0.693633,-0.9738061 -1.074775,0 -3.250424,0.629296 -4.870951,1.4088975 -2.033498,0.9782744 -5.002253,3.9470304 -5.9805268,5.9805284 -0.7480979,1.55504 -1.4088975,3.78723 -1.4088975,4.759278 0,0.538079 0.07344,0.58196 0.973942,0.58196 0.9739433,0 0.9739433,0 1.0998773,-1.063315 z"
     id="path4" /></svg>
