<?xml version="1.0" encoding="UTF-8" standalone="no"?>
<!-- Created with Inkscape (http://www.inkscape.org/) -->

<svg
   width="43.325218mm"
   height="43.345306mm"
   viewBox="0 0 43.325218 43.345306"
   version="1.1"
   id="svg5"
   xml:space="preserve"
   xmlns="http://www.w3.org/2000/svg"
   xmlns:svg="http://www.w3.org/2000/svg"><defs
     id="defs2" /><path
     style="fill:#000000;stroke-width:0.860917"
     d="m 12.413845,43.033275 c -0.07658,-0.199593 -0.139257,-2.968337 -0.139257,-6.152764 V 31.090645 L 7.5480663,31.089793 C 3.2091601,31.089011 2.7597097,31.051242 2.0675389,30.629237 0.71266112,29.803192 0.65745646,29.426555 0.65886532,21.018511 0.65958845,16.703404 0.75757092,13.086623 0.88630294,12.623211 1.0106951,12.175424 1.3768366,11.560407 1.6999508,11.256506 2.2610784,10.728746 2.4448282,10.70069 5.7962536,10.631041 l 3.5088222,-0.07292 0.061106,-5.2800079 0.061106,-5.28000831 12.9690802,-0.05884269 c 10.224379,-0.04639196 13.007592,0.001812 13.151049,0.22778428 0.100085,0.15764637 0.183537,2.55873442 0.185456,5.33575102 l 0.0035,5.0491216 2.710212,0.07602 c 2.322383,0.06515 2.783221,0.141214 3.220417,0.531591 1.078992,0.963445 1.131527,1.4154 1.117824,9.616564 -0.0142,8.501377 -0.07516,8.950037 -1.330588,9.794149 -0.74735,0.502494 -0.945138,0.520402 -5.747829,0.520402 h -4.973847 l -0.06067,6.093227 -0.06067,6.093227 -9.029056,0.05954 c -8.085281,0.05331 -9.043612,0.02161 -9.168313,-0.303361 z m 17.118271,-9.038382 0.05983,-8.143285 H 21.61662 13.641297 v 8.203182 8.203182 l 7.915501,-0.05989 7.915499,-0.05989 z M 16.144503,39.62964 c -0.202506,-0.244005 -0.222966,-0.43228 -0.06422,-0.59102 0.183991,-0.18399 3.051223,-0.290316 5.720144,-0.212119 0.179727,0.0052 0.271308,0.214864 0.227784,0.52132 -0.07033,0.495131 -0.166296,0.514675 -2.829657,0.576203 -2.282495,0.05274 -2.808005,0.0021 -3.054043,-0.294384 z m -0.07356,-3.397197 c -0.280803,-0.731762 0.415162,-0.82312 5.799068,-0.761222 l 5.324447,0.06122 0.07279,0.512514 0.07279,0.512514 h -5.572183 c -4.616029,0 -5.593587,-0.05576 -5.696909,-0.325022 z m 0.09937,-3.177451 c -0.207824,-0.250413 -0.185931,-0.402559 0.09891,-0.687402 0.314122,-0.314122 1.079618,-0.365316 5.417736,-0.362321 2.77856,0.0019 5.190143,0.09107 5.359071,0.198133 0.168928,0.107055 0.270081,0.387367 0.224783,0.622919 -0.07744,0.402659 -0.403858,0.431921 -5.457981,0.489268 -4.406044,0.05 -5.423762,0.003 -5.64252,-0.260597 z m -0.09184,-3.408655 c -0.301018,-0.784437 0.123806,-0.842989 5.66521,-0.780807 l 5.450769,0.06117 0.07279,0.512514 0.07279,0.512515 h -5.572184 c -4.448634,0 -5.595813,-0.06158 -5.689373,-0.305387 z m -7.3989452,-2.484969 0.064406,-2.562574 12.5281302,-0.063 c 6.890471,-0.03465 12.758761,-0.0071 13.040644,0.06129 0.492835,0.119516 0.512514,0.220331 0.512514,2.625576 v 2.501286 h 2.886313 c 2.366089,0 2.961392,-0.06794 3.30287,-0.37698 0.383474,-0.34704 0.416558,-0.853592 0.416558,-6.377958 V 16.96803 H 21.727631 2.0243001 v 5.961399 c 0,5.22749 0.046411,6.012681 0.3769799,6.377957 0.3278447,0.362265 0.7573665,0.416558 3.2954104,0.416558 h 2.9184304 z m 3.5950612,0.626406 V 25.851608 H 11.021775 9.768962 v 1.936166 1.936165 h 1.252813 1.252813 z m 21.411712,0 v -1.936166 h -1.480596 -1.480597 v 1.936166 1.936165 h 1.480597 1.480596 z m 7.744667,-13.631748 c 0,-2.49852 1.966856,-2.271569 -19.701651,-2.273324 C 0.05656975,11.880989 2.0243011,11.653935 2.0243011,14.156026 v 1.445295 H 21.727631 41.430963 Z M 4.6187135,14.137441 C 4.3420661,13.416509 4.7778438,13.323478 8.4315427,13.323478 H 12.07849 l -0.07279,0.512515 c -0.07153,0.503657 -0.134875,0.513599 -3.6653095,0.57527 -2.9993519,0.0524 -3.6138461,0.0072 -3.721678,-0.273822 z m 30.0356695,0.174102 c -0.405851,-0.163764 -0.352685,-0.976285 0.0746,-1.140253 0.197637,-0.07583 0.521966,0.02474 0.720732,0.223501 0.29788,0.297879 0.309889,0.423449 0.06834,0.7145 -0.306613,0.369446 -0.396918,0.390593 -0.863678,0.202252 z m 2.986621,-0.19082 c -0.201134,-0.524146 0.098,-1.067563 0.540731,-0.982302 0.494233,0.09519 0.667043,0.860284 0.2535,1.122358 -0.444797,0.28188 -0.645928,0.246412 -0.794231,-0.140056 z M 34.369653,5.8066011 V 1.0231334 H 22.524875 c -7.725679,0 -11.854679,0.079213 -11.873249,0.2277841 -0.07646,0.6116631 -0.103793,9.0198975 -0.02981,9.1683135 0.04684,0.09397 5.409265,0.170837 11.916499,0.170837 h 11.831334 z"
     id="path1" /></svg>
