<svg id="eaac9e6e-9227-40dc-96da-2160c0c74366" data-name="Capa 1" xmlns="http://www.w3.org/2000/svg" xmlns:xlink="http://www.w3.org/1999/xlink" viewBox="0 0 315 254.99"><defs><linearGradient id="a033ebd4-50b5-4e66-a278-b975fe15e35a" x1="76.66" y1="107.33" x2="121.67" y2="107.33" gradientUnits="userSpaceOnUse"><stop offset="0.05" stop-color="#a09682"/><stop offset="0.23" stop-color="#9c9079"/><stop offset="0.36" stop-color="#978970"/><stop offset="0.45" stop-color="#a1947b"/><stop offset="0.62" stop-color="#bdb19a"/><stop offset="0.84" stop-color="#eae0cb"/><stop offset="0.9" stop-color="#f6ecd8"/></linearGradient><linearGradient id="a846b48e-204e-4b1b-b341-a819fd3de3d3" x1="134.85" y1="107.33" x2="179.86" y2="107.33" xlink:href="#a033ebd4-50b5-4e66-a278-b975fe15e35a"/><linearGradient id="baea5cb5-6fdb-4f1c-9659-316403652041" x1="193.05" y1="107.33" x2="238.06" y2="107.33" xlink:href="#a033ebd4-50b5-4e66-a278-b975fe15e35a"/><linearGradient id="eabeffc0-7065-47bf-bfb5-654aa9d6c7f9" x1="251.26" y1="107.33" x2="296.26" y2="107.33" xlink:href="#a033ebd4-50b5-4e66-a278-b975fe15e35a"/><linearGradient id="b702be3c-738d-4c58-b75a-2338e9aec8e1" x1="18.46" y1="158.44" x2="63.47" y2="158.44" xlink:href="#a033ebd4-50b5-4e66-a278-b975fe15e35a"/><linearGradient id="e8e12743-8377-471a-bad9-51c0fab93d2e" x1="76.66" y1="158.44" x2="121.67" y2="158.44" xlink:href="#a033ebd4-50b5-4e66-a278-b975fe15e35a"/><linearGradient id="ae3cdf87-cc98-4681-8931-051cd6ae8319" x1="134.85" y1="158.44" x2="179.86" y2="158.44" xlink:href="#a033ebd4-50b5-4e66-a278-b975fe15e35a"/><linearGradient id="af8a5e81-f72a-4ad8-b55f-bc2102c03be2" x1="193.05" y1="158.44" x2="238.06" y2="158.44" xlink:href="#a033ebd4-50b5-4e66-a278-b975fe15e35a"/><linearGradient id="ab198c72-1c6b-4429-a968-311dd53de257" x1="251.26" y1="158.44" x2="296.26" y2="158.44" xlink:href="#a033ebd4-50b5-4e66-a278-b975fe15e35a"/><linearGradient id="bc752a44-924f-47fd-93b4-efd61f080b7a" x1="18.46" y1="209.54" x2="63.47" y2="209.54" xlink:href="#a033ebd4-50b5-4e66-a278-b975fe15e35a"/><linearGradient id="ae3e7828-77c6-460b-bdc0-553d01941fd6" x1="76.66" y1="209.54" x2="121.67" y2="209.54" xlink:href="#a033ebd4-50b5-4e66-a278-b975fe15e35a"/><linearGradient id="b5428a4c-f828-4e18-81d5-7a5ace4ab12f" x1="134.85" y1="209.54" x2="179.86" y2="209.54" xlink:href="#a033ebd4-50b5-4e66-a278-b975fe15e35a"/><linearGradient id="bad9eacc-b8b9-479c-b944-7b936a126f1d" x1="193.05" y1="209.54" x2="238.06" y2="209.54" xlink:href="#a033ebd4-50b5-4e66-a278-b975fe15e35a"/><linearGradient id="e5cee3cf-5b92-4027-8649-932127aa47a6" y1="21" x2="315" y2="21" gradientUnits="userSpaceOnUse"><stop offset="0.31" stop-color="#978970"/><stop offset="0.62" stop-color="#998b72"/><stop offset="0.73" stop-color="#9f9179"/><stop offset="0.81" stop-color="#aa9c84"/><stop offset="0.87" stop-color="#b9ad95"/><stop offset="0.93" stop-color="#cdc2ab"/><stop offset="0.97" stop-color="#e6dbc6"/><stop offset="1" stop-color="#f6ecd8"/></linearGradient></defs><path d="M596.87,805.28A19.64,19.64,0,0,0,610.66,811h275.4a19.5,19.5,0,0,0,19.5-19.5V630.23H591.16V791.49A19.67,19.67,0,0,0,596.87,805.28Zm245.39-162h45v40h-45Zm0,51.11h45v40h-45Zm-58.21-51.11h45v40h-45Zm0,51.11h45v40h-45Zm0,51.11h45v40h-45Zm-58.2-102.22h45v40h-45Zm0,51.11h45v40h-45Zm0,51.11h45v40h-45ZM667.66,643.31h45v40h-45Zm0,51.11h45v40h-45Zm0,51.11h45v40h-45Zm-58.2-51.11h45v40h-45Zm0,51.11h45v40h-45Z" transform="translate(-591 -556)" style="fill:#151719"/><rect x="0.16" y="53.02" width="314.4" height="11.54" style="fill:#151719"/><rect x="76.66" y="87.31" width="45.01" height="40.04" style="fill:url(#a033ebd4-50b5-4e66-a278-b975fe15e35a)"/><rect x="134.85" y="87.31" width="45.01" height="40.04" style="fill:url(#a846b48e-204e-4b1b-b341-a819fd3de3d3)"/><rect x="193.05" y="87.31" width="45.01" height="40.04" style="fill:url(#baea5cb5-6fdb-4f1c-9659-316403652041)"/><rect x="251.26" y="87.31" width="45" height="40.04" style="fill:url(#eabeffc0-7065-47bf-bfb5-654aa9d6c7f9)"/><rect x="18.46" y="138.42" width="45.01" height="40.03" style="fill:url(#b702be3c-738d-4c58-b75a-2338e9aec8e1)"/><rect x="76.66" y="138.42" width="45.01" height="40.03" style="fill:url(#e8e12743-8377-471a-bad9-51c0fab93d2e)"/><rect x="134.85" y="138.42" width="45.01" height="40.03" style="fill:url(#ae3cdf87-cc98-4681-8931-051cd6ae8319)"/><rect x="193.05" y="138.42" width="45.01" height="40.03" style="fill:url(#af8a5e81-f72a-4ad8-b55f-bc2102c03be2)"/><rect x="251.26" y="138.42" width="45" height="40.03" style="fill:url(#ab198c72-1c6b-4429-a968-311dd53de257)"/><rect x="18.46" y="189.53" width="45.01" height="40.03" style="fill:url(#bc752a44-924f-47fd-93b4-efd61f080b7a)"/><rect x="76.66" y="189.53" width="45.01" height="40.03" style="fill:url(#ae3e7828-77c6-460b-bdc0-553d01941fd6)"/><rect x="134.85" y="189.53" width="45.01" height="40.03" style="fill:url(#b5428a4c-f828-4e18-81d5-7a5ace4ab12f)"/><rect x="193.05" y="189.53" width="45.01" height="40.03" style="fill:url(#bad9eacc-b8b9-479c-b944-7b936a126f1d)"/><path d="M15.38,0h287A12.66,12.66,0,0,1,315,12.66V42a0,0,0,0,1,0,0H0a0,0,0,0,1,0,0V15.38A15.38,15.38,0,0,1,15.38,0Z" style="fill:url(#e5cee3cf-5b92-4027-8649-932127aa47a6)"/></svg>