<svg id="a113c590-e8b0-4c81-99c6-e1eecba0d0df" data-name="Capa 1" xmlns="http://www.w3.org/2000/svg" xmlns:xlink="http://www.w3.org/1999/xlink" viewBox="0 0 433 328.6"><defs><linearGradient id="bfdb3e44-87f7-43a5-a088-3724ae2f92be" x1="863.07" y1="748.09" x2="998.05" y2="748.09" gradientUnits="userSpaceOnUse"><stop offset="0.05" stop-color="#a09682"/><stop offset="0.23" stop-color="#9c9079"/><stop offset="0.36" stop-color="#978970"/><stop offset="0.45" stop-color="#a1947b"/><stop offset="0.62" stop-color="#bdb19a"/><stop offset="0.84" stop-color="#eae0cb"/><stop offset="0.9" stop-color="#f6ecd8"/></linearGradient><linearGradient id="aaa75218-fb4f-4b58-bc88-723345ffa082" x1="199.67" y1="57.6" x2="315.65" y2="57.6" xlink:href="#bfdb3e44-87f7-43a5-a088-3724ae2f92be"/><linearGradient id="afe79f16-de92-48c7-b2cb-341fb73d841f" x1="778.26" y1="686.42" x2="821" y2="686.42" xlink:href="#bfdb3e44-87f7-43a5-a088-3724ae2f92be"/></defs><circle cx="41.5" cy="165.34" r="41.5" style="fill:#151719"/><path d="M860.91,786.73a1.94,1.94,0,0,0-1.35,1.14L839.9,836l-5,12.14a1.93,1.93,0,0,0,.46,2.12,1.91,1.91,0,0,0,2.13.33l11.89-5.71,47.09-22.6a1.91,1.91,0,0,0,.47-3.12L862.63,787.2A1.94,1.94,0,0,0,860.91,786.73Z" transform="translate(-759 -522.16)" style="fill:#151719"/><path d="M902.55,817.23c27.4-21,60.77-51.27,95.5-87.16L943.12,679c-33.32,37.24-61,72.71-80,101.55Z" transform="translate(-759 -522.16)" style="fill:url(#bfdb3e44-87f7-43a5-a088-3724ae2f92be)"/><path d="M1067.18,545.08,948.73,672.41a5.08,5.08,0,0,0,.25,7.18l48,44.66a5.08,5.08,0,0,0,7.18-.25l166.42-178.89a5.08,5.08,0,0,0-3.52-8.54l-86.29-3.51a5.05,5.05,0,0,0-3.93,1.62l-2.47,2.65.27.25-7.22,7.74Z" transform="translate(-759 -522.16)" style="fill:#151719"/><polygon points="299.07 0 199.67 106.88 208.63 115.21 300.83 16.08 308.18 22.91 308.43 23.15 315.64 15.41 315.38 15.17 308.03 8.33 308.04 8.33 299.07 0" style="fill:url(#aaa75218-fb4f-4b58-bc88-723345ffa082)"/><text transform="translate(75.92 190.14)" style="font-size:87px;fill:#151719;font-family:Swiss721BT-BlackRounded, Swis721 BlkRnd BT;font-weight:800">1$</text><text transform="translate(186.82 196.31)" style="font-size:100px;fill:#c7b299;font-family:Swiss721BT-BlackRounded, Swis721 BlkRnd BT;font-weight:800">35<tspan x="131.45" y="0" style="fill:#151719">%</tspan></text><path d="M786,698.89l-7.13,6.46a1.77,1.77,0,0,0-.59,1.33v7.81a1.8,1.8,0,0,0,1.79,1.8h39.16a1.8,1.8,0,0,0,1.79-1.8V703.88a1.79,1.79,0,0,0-1.79-1.8H803.15l1.49-1.24c8-7.14,15.34-15.09,15.34-25.16,0-11.62-8.31-19.12-21.16-19.12a32.3,32.3,0,0,0-19.17,6.05,1.79,1.79,0,0,0-.59,2.09l3.65,9.26a1.82,1.82,0,0,0,1.18,1.07l.49.07a1.82,1.82,0,0,0,1.09-.37c3.66-2.8,7.27-4.22,10.71-4.22,4.77,0,7.3,2.17,7.3,6.27C803.33,682.4,797.72,688.39,786,698.89Z" transform="translate(-759 -522.16)" style="fill:url(#afe79f16-de92-48c7-b2cb-341fb73d841f)"/></svg>