<svg id="bb1aafda-aef3-4690-baa7-3a41bcf36708" data-name="Capa 1" xmlns="http://www.w3.org/2000/svg" xmlns:xlink="http://www.w3.org/1999/xlink" viewBox="0 0 249.55 254.45"><defs><linearGradient id="b6a5beba-dd01-48c1-a65f-3e1e6aca3dea" x1="306.79" y1="174.51" x2="462.89" y2="174.51" gradientUnits="userSpaceOnUse"><stop offset="0.05" stop-color="#a09682"/><stop offset="0.23" stop-color="#9c9079"/><stop offset="0.36" stop-color="#978970"/><stop offset="0.45" stop-color="#a1947b"/><stop offset="0.62" stop-color="#bdb19a"/><stop offset="0.84" stop-color="#eae0cb"/><stop offset="0.9" stop-color="#f6ecd8"/></linearGradient></defs><path d="M502.26,20.28H480.11V-7.85h-12.2V40.81H301.77V-7.85h-12.2V20.28H267.42a7.35,7.35,0,0,0-7.35,7.36v120a7.35,7.35,0,0,0,7.35,7.35h34.35V131.42H467.91V155h34.35a7.35,7.35,0,0,0,7.35-7.35v-120A7.35,7.35,0,0,0,502.26,20.28Z" transform="translate(-260.07 41.74)" style="fill:#151719"/><rect x="46.72" width="156.1" height="76.4" style="fill:#151719"/><path d="M306.79,212.7h156.1V136.31H306.79ZM320.57,155H449.11v6.5H320.57Zm0,16.23H449.11v6.5H320.57Zm0,16.55H449.11v6.49H320.57Z" transform="translate(-260.07 41.74)" style="fill:url(#b6a5beba-dd01-48c1-a65f-3e1e6aca3dea)"/></svg>