<svg id="a5e06308-5c00-4fcc-9361-3d38a83291b0" data-name="Capa 1" xmlns="http://www.w3.org/2000/svg" viewBox="0 0 240.67 245.39"><path d="M960.91,571.79H939.55V544.65H927.78v46.93H767.55V544.65H755.78v27.14H734.42a7.09,7.09,0,0,0-7.09,7.09V694.57a7.09,7.09,0,0,0,7.09,7.09h33.13V679H927.78v22.69h33.13a7.09,7.09,0,0,0,7.09-7.09V578.88A7.09,7.09,0,0,0,960.91,571.79Z" transform="translate(-727.33 -511.97)" style="fill:#151719"/><rect x="45.06" width="150.55" height="73.68" style="fill:#151719"/><path d="M772.39,757.36H922.94V683.69H772.39Zm13.29-55.62h124V708h-124Zm0,15.65h124v6.27h-124Zm0,16h124v6.27h-124Z" transform="translate(-727.33 -511.97)" style="fill:#151719"/></svg>