<svg id="b5b15a85-3fd1-487e-8c9d-6c2ca3be73cb" data-name="Capa 1" xmlns="http://www.w3.org/2000/svg" xmlns:xlink="http://www.w3.org/1999/xlink" viewBox="0 0 263.37 241.13"><defs><linearGradient id="aec84405-4d1c-43c9-b9eb-85457e49585e" x1="1057.56" y1="1067.13" x2="1101.44" y2="1067.13" gradientTransform="translate(1206.07 1167.07) rotate(180)" gradientUnits="userSpaceOnUse"><stop offset="0.06" stop-color="#f6ecd8"/><stop offset="0.26" stop-color="#cec2ac"/><stop offset="0.45" stop-color="#b0a38b"/><stop offset="0.61" stop-color="#9e9077"/><stop offset="0.71" stop-color="#978970"/><stop offset="0.86" stop-color="#9d927c"/><stop offset="1" stop-color="#a09682"/></linearGradient><linearGradient id="acba1b3e-e76a-422f-84d3-846f41d79d9d" x1="99.07" y1="186.58" x2="154.07" y2="186.58" gradientUnits="userSpaceOnUse"><stop offset="0.05" stop-color="#a09682"/><stop offset="0.23" stop-color="#9c9079"/><stop offset="0.36" stop-color="#978970"/><stop offset="0.47" stop-color="#a1947b"/><stop offset="0.67" stop-color="#bdb19a"/><stop offset="0.94" stop-color="#eae0cb"/><stop offset="1" stop-color="#f6ecd8"/></linearGradient></defs><path d="M243.29,717.73c-11.42,21,.9,49.07,21.64,49.27l211,2c19.45.19,31.58-24.07,24.23-44.36a32.16,32.16,0,0,0-3.54-6.94c-.61-.92-1.18-1.89-1.73-2.87L397.52,544.33c-6-10.48-12.35-13.8-22.72-15.68-14.51-2.63-31,1.9-37.15,14.26Z" transform="translate(-238.93 -527.93)" style="fill:#151719"/><polygon points="116.16 142.8 136.99 142.8 148.51 57.07 104.64 57.07 116.16 142.8" style="fill:url(#aec84405-4d1c-43c9-b9eb-85457e49585e)"/><circle cx="126.57" cy="186.58" r="27.5" style="fill:url(#acba1b3e-e76a-422f-84d3-846f41d79d9d)"/></svg>