<svg id="b09c4d5c-0778-4167-8ef7-840a2bd2b5c0" data-name="Capa 1" xmlns="http://www.w3.org/2000/svg" xmlns:xlink="http://www.w3.org/1999/xlink" viewBox="0 0 184.71 224.81"><defs><linearGradient id="fd5d5f55-6199-4968-b227-09810c2dc6f6" x1="630.02" y1="381.61" x2="796.43" y2="381.61" gradientTransform="translate(-617.98 -364.47) rotate(-0.17)" gradientUnits="userSpaceOnUse"><stop offset="0.05" stop-color="#a09682"/><stop offset="0.23" stop-color="#9c9079"/><stop offset="0.36" stop-color="#978970"/><stop offset="0.45" stop-color="#a1947b"/><stop offset="0.62" stop-color="#bdb19a"/><stop offset="0.84" stop-color="#eae0cb"/><stop offset="0.9" stop-color="#f6ecd8"/></linearGradient></defs><path d="M683.21,634l183,1.62s.69,168.46.39,189.72c0,0-63.62,14.8-87.63,14.81s-97-15-97-15Z" transform="translate(-682 -615.34)" style="fill:#151719"/><polygon points="156.63 10.74 156.63 10.04 154.28 8.46 156.62 6.36 156.62 5.55 154.35 3.84 156.61 1.98 156.6 1.22 155.43 0 28.43 0.38 28.43 0.54 30.06 2.22 28.44 3.54 28.45 5.21 30.15 6.5 28.46 8.01 28.46 9.8 30.16 10.95 28.47 12.2 28.47 13.2 29.93 14.37 28.48 15.77 28.48 16.78 30.1 18.09 28.49 19.46 28.49 20.22 30.2 21.41 28.5 22.46 28.5 23.09 30.04 24.49 28.51 25.86 28.51 27 30.05 28.3 28.52 29.73 28.52 29.96 155.03 29.58 156.69 28.03 156.68 27.44 154.82 25.87 156.67 24.21 156.67 23.62 155.05 22.14 156.66 21.14 156.66 20.49 154.97 19.31 156.66 17.87 156.65 17.18 154.87 15.74 156.64 14.03 156.64 13.59 154.78 12.1 156.63 10.74" style="fill:url(#fd5d5f55-6199-4968-b227-09810c2dc6f6)"/></svg>