<svg id="b5c57c35-7eca-4a3e-91f1-d9a9b934b021" data-name="Capa 1" xmlns="http://www.w3.org/2000/svg" xmlns:xlink="http://www.w3.org/1999/xlink" viewBox="0 0 205.15 227.46"><defs><linearGradient id="b5e0e350-c472-42a4-851c-3680ea61408a" x1="1074.28" y1="668.48" x2="861.01" y2="916.91" gradientTransform="translate(51.77 -62.5) rotate(0.52)" gradientUnits="userSpaceOnUse"><stop offset="0.05" stop-color="#a09682"/><stop offset="0.23" stop-color="#9c9079"/><stop offset="0.36" stop-color="#978970"/><stop offset="0.45" stop-color="#a1947b"/><stop offset="0.62" stop-color="#bdb19a"/><stop offset="0.84" stop-color="#eae0cb"/><stop offset="0.9" stop-color="#f6ecd8"/></linearGradient></defs><path d="M938.21,623l183,1.62s.69,168.46.39,189.72c0,0-63.62,14.8-87.63,14.81s-97-15-97-15Z" transform="translate(-916.56 -601.69)" style="fill:url(#b5e0e350-c472-42a4-851c-3680ea61408a)"/><path d="M933,661.93c-2.43-1.35-4.19-4.59-2.82-7.08l7-12.69.16-5.29L928,653.68c-2.07,3.74.33,8.46,3.77,10.37a10.22,10.22,0,0,0,4.7,1.21l.07-2.42A7.94,7.94,0,0,1,933,661.93Z" transform="translate(-916.56 -601.69)" style="fill:#151719"/><path d="M949.58,619.77s.06-.61-.76-1.07a1.37,1.37,0,0,0-1.36-.11l-2.65,4.79,2.72.08Z" transform="translate(-916.56 -601.69)" style="fill:#151719"/><path d="M964,603c-5.2-2.88-11.27-.81-14.44,4.92l-31.68,57.2c-3,5.45-.5,12.64,5,15.68,5.2,2.88,12.86,1.6,16-4l26.8-48.39a1.71,1.71,0,0,0-.86-1,1.42,1.42,0,0,0-1.26-.14l-26.79,48.39c-2.42,4.37-8.59,5.38-12.71,3.1-4.33-2.39-6.42-8.11-4-12.38l31.68-57.21c2.53-4.57,7.11-6.2,11.14-4s5.16,7,2.63,11.59l-3.83,6.92,2.72.08,3.22-5.82C970.7,612.14,969.2,605.88,964,603Z" transform="translate(-916.56 -601.69)" style="fill:#151719"/><path d="M949.58,619.77l-.42-.76-2.45,4.43.82,0Z" transform="translate(-916.56 -601.69)" style="fill:#151719"/><path d="M933,661.93c-2.43-1.35-4.19-4.59-2.82-7.08l7-12.69.05-1.56-7.05,12.76c-.81,1.47-3.42,5.79,2.63,9.14a9.06,9.06,0,0,0,3.74,1.2l0-.86A7.94,7.94,0,0,1,933,661.93Z" transform="translate(-916.56 -601.69)" style="fill:#151719"/><path d="M965.22,619.14c6.09-11-2-14.86-2-14.86s-7.8-3.54-11.76,3.6c-4.31,7.8-32.28,58.31-32.28,58.31s-3.87,8.54,4.63,13.24c0,0,9.34,3.83,13.12-3l27.31-49.33-.7,0-26.79,48.39c-2.42,4.37-8.59,5.38-12.71,3.1-4.33-2.39-6.42-8.11-4-12.38l31.68-57.21c2.53-4.57,7.11-6.2,11.14-4s5.16,7,2.63,11.59l-3.83,6.92,1.13,0Z" transform="translate(-916.56 -601.69)" style="fill:#151719"/><polygon points="33.8 6.14 1.88 63.79 2.98 62.02 34.55 5.82 33.8 6.14" style="fill:#151719"/><polygon points="48.37 25.76 21.1 75 21.5 74.89 48.21 26.36 48.37 25.76" style="fill:#151719"/><polygon points="50.47 16.39 49.52 16.99 46.76 21.98 47.29 21.99 50.47 16.39" style="fill:#151719"/><polygon points="11.53 53.08 20.73 36.96 20.74 36.43 11.53 53.08" style="fill:#151719"/><polygon points="32.13 16.97 31.19 17.56 28.89 21.71 29.42 21.73 32.13 16.97" style="fill:#151719"/><path d="M950.67,607.27l.61-.17s3.68-5.32,9-4.84c0,0-4-.59-6.61,1.72A23.16,23.16,0,0,0,950.67,607.27Z" transform="translate(-916.56 -601.69)" style="fill:#151719"/><path d="M937.93,676.87l-.61.17s-3.68,5.33-9,4.84c0,0,4,.59,6.61-1.72A23.16,23.16,0,0,0,937.93,676.87Z" transform="translate(-916.56 -601.69)" style="fill:#151719"/></svg>