<svg id="b103068d-89e6-4bc1-ba0a-9b0de2402315" data-name="Capa 1" xmlns="http://www.w3.org/2000/svg" xmlns:xlink="http://www.w3.org/1999/xlink" viewBox="0 0 363.39 250.24"><defs><linearGradient id="af740062-9e1b-4a61-8877-cebcb2b4974b" x1="500.79" y1="131.25" x2="670.27" y2="131.25" gradientUnits="userSpaceOnUse"><stop offset="0" stop-color="#f6ecd8"/><stop offset="0.01" stop-color="#f4ead6"/><stop offset="0.16" stop-color="#cfc5b1"/><stop offset="0.3" stop-color="#b5ab97"/><stop offset="0.43" stop-color="#a69c88"/><stop offset="0.53" stop-color="#a09682"/><stop offset="0.57" stop-color="#9e937e"/><stop offset="0.73" stop-color="#998c73"/><stop offset="0.91" stop-color="#978970"/></linearGradient></defs><rect x="533.95" y="58.66" width="80.04" height="4.57" transform="translate(173.08 656.6) rotate(-90)" style="fill:#151719"/><rect x="473.73" y="112.47" width="80.04" height="4.57" transform="translate(687.55 251.19) rotate(180)" style="fill:#151719"/><circle cx="236.47" cy="24.01" r="24.01" style="fill:#151719"/><circle cx="339.38" cy="24.01" r="24.01" style="fill:#151719"/><rect x="239.9" y="22.87" width="80.04" height="4.57" style="fill:#151719"/><path d="M678,223.41c-5.09,5.09-11.75,6.67-14.89,3.54l-5.86-5.86,18.22-18.64,6.08,6.07C684.63,211.65,683,218.32,678,223.41Z" transform="translate(-339.95 21.68)" style="fill:#151719"/><path d="M670.27,196.63,632.45,158.8A71.8,71.8,0,0,0,572.63,47.23c-39.67,0-72.44,32.16-71.83,71.83.62,40.42,32.63,72.4,71.83,71.83a73,73,0,0,0,41.66-13.38l37.76,37.76ZM623.14,120a50.51,50.51,0,1,1-50.51-50.51A50.5,50.5,0,0,1,623.14,120Z" transform="translate(-339.95 21.68)" style="fill:url(#af740062-9e1b-4a61-8877-cebcb2b4974b)"/><circle cx="232.88" cy="139.92" r="24.01" style="fill:#151719"/><circle cx="118.76" cy="135.18" r="24.01" style="fill:#151719"/><circle cx="24.01" cy="135.05" r="24.01" style="fill:#151719"/><rect x="378.98" y="112.34" width="80.04" height="4.57" transform="translate(498.06 250.94) rotate(180)" style="fill:#151719"/></svg>