<?xml version="1.0" encoding="UTF-8" standalone="no"?>
<!-- Created with Inkscape (http://www.inkscape.org/) -->

<svg
   width="43.325218mm"
   height="43.345306mm"
   viewBox="0 0 43.325218 43.345306"
   version="1.1"
   id="svg5"
   xml:space="preserve"
   xmlns="http://www.w3.org/2000/svg"
   xmlns:svg="http://www.w3.org/2000/svg"><defs
     id="defs2" /><path
     style="fill:#0cc4a6;fill-opacity:1;stroke-width:0.322496"
     d="M 34.017444,33.753663 C 30.462328,30.06943 30.092616,29.454571 30.61158,28.089588 31.249824,26.410889 29.836224,25.707403 28.128898,26.85406 16.51788,34.652109 3.4203007,18.75568 13.283318,8.8361026 23.05915,-0.99578521 38.673333,11.464772 31.501523,23.374742 c -1.160828,1.927757 -0.670252,3.736056 0.767031,2.82728 1.929406,-1.219938 9.649994,5.437773 9.239474,7.967493 -0.663365,4.087858 -3.285158,3.942307 -7.490584,-0.415852 z m 5.718767,1.599419 c 1.367891,-1.237923 -3.870124,-8.173667 -6.172923,-8.173667 -2.870372,0 -2.465691,1.884239 1.193579,5.557289 3.208526,3.220614 3.906447,3.587337 4.979344,2.616378 z M 25.994914,26.727991 C 33.550039,23.26914 34.282051,12.708074 27.277082,8.2295962 18.535765,2.641019 7.7113903,12.056387 12.043776,21.479998 c 2.488385,5.412653 8.583422,7.705417 13.951138,5.247993 z M 14.227818,23.499665 c -0.490576,-0.591113 2.282785,-1.674795 5.427577,-2.120807 3.602701,-0.510955 10.406359,1.045679 9.319737,2.132296 -0.388775,0.38878 -0.724236,0.353426 -2.37152,-0.249936 -2.715488,-0.994614 -7.288469,-1.001335 -9.969926,-0.01465 -2.279701,0.838852 -1.94864,0.804025 -2.405868,0.253102 z m 6.075523,-3.390819 c -5.822117,-1.834653 -4.556404,-10.3068701 1.486927,-9.952957 2.337293,0.136878 3.41208,0.817757 4.380641,2.775146 1.932844,3.9061 -1.791599,8.46222 -5.867568,7.177811 z m 3.137685,-1.519064 c 1.340905,-0.636304 2.050124,-1.894827 2.050124,-3.637982 0,-2.683295 -3.095182,-4.647941 -5.424712,-3.443296 -4.81594,2.490426 -1.52108,9.404423 3.374588,7.081278 z M 12.268818,30.923847 c 0,-2.307231 0.712437,-3.684079 1.609778,-3.111012 0.38312,0.244666 0.399526,0.388733 0.08057,0.707636 -0.234159,0.234154 -0.400427,1.244057 -0.400427,2.432149 0,1.816727 -0.06826,2.031726 -0.644996,2.031726 -0.57769,0 -0.644984,-0.214999 -0.644984,-2.060499 z M 0.06149811,24.149331 C 0.21270054,20.549148 2.4094933,18.560293 6.9173368,17.942423 8.6370832,17.706706 9.1578875,18.614176 7.5119933,18.978584 2.5106605,20.085907 1.303942,21.15912 1.303942,24.499838 c 0,2.180429 -0.050827,2.357082 -0.67807671,2.357082 -0.64430153,0 -0.67242116,-0.134895 -0.56436718,-2.707589 z M 41.938452,24.269842 c 0,-2.997632 -0.896123,-3.893128 -5.010316,-5.006789 -1.562754,-0.423015 -2.084594,-0.706594 -2.084594,-1.132799 0,-1.191604 6.072499,0.935348 7.652196,2.680255 0.94428,1.043043 1.044253,6.046405 0.120791,6.046405 -0.632759,0 -0.678089,-0.172911 -0.678089,-2.587072 z M 6.8826596,15.582606 C 2.2287817,12.74497 6.4536372,4.9127414 11.252745,7.481146 12.650962,8.2294475 11.93922,8.9325333 10.294496,8.4277512 6.2859677,7.1975009 4.2621466,12.883249 7.9970843,14.882127 8.420378,15.10867 8.6246628,15.446271 8.5135981,15.735717 8.2764523,16.353701 8.1237994,16.339369 6.8826596,15.582606 Z m 27.8480864,0.15818 c -0.114697,-0.298911 0.168194,-0.680495 0.766531,-1.033941 3.967452,-2.343633 1.356836,-7.1072577 -3.394954,-6.1948142 -1.182256,0.227017 -0.703454,-0.8216709 0.564866,-1.2371881 1.706571,-0.5590943 3.04928,-0.184751 4.48421,1.2501814 2.175779,2.1757789 1.656169,5.8229709 -1.027287,7.2106399 -1.140167,0.589604 -1.16903,0.58971 -1.393366,0.0051 z"
     id="path39776" /></svg>
