<?xml version="1.0" encoding="UTF-8" standalone="no"?>
<!-- Created with Inkscape (http://www.inkscape.org/) -->

<svg
   width="43.325218mm"
   height="43.345306mm"
   viewBox="0 0 43.325218 43.345306"
   version="1.1"
   id="svg5"
   xml:space="preserve"
   xmlns="http://www.w3.org/2000/svg"
   xmlns:svg="http://www.w3.org/2000/svg"><defs
     id="defs2" /><path
     style="fill:#0cc4a6;fill-opacity:1;stroke-width:0.239999"
     d="M 0.67013522,37.310748 0.14830147,36.755282 v -15.1321 c 0,-14.9453326 0.006168,-15.1399048 0.49741781,-15.7644632 L 1.1431362,5.2263554 H 21.756278 42.369419 l 0.489346,0.5252524 c 0.481706,0.5170509 0.489348,0.7608876 0.489348,15.6157102 0,15.105643 -0.0344,15.793377 -0.815924,16.315222 -0.145241,0.09698 -9.506205,0.177978 -20.802146,0.179999 l -20.5380749,0.0037 z M 42.145183,36.431706 C 42.481234,35.803785 42.463765,7.2561408 42.126941,6.6267822 41.901162,6.2049111 41.042402,6.1863512 21.748205,6.1863512 c -19.4874895,0 -20.1509025,0.014722 -20.3851303,0.4523806 -0.3397315,0.6347941 -0.3482272,29.1644362 -0.00889,29.7985232 0.2459518,0.459564 0.6546198,0.468963 20.3940043,0.468963 19.819766,0 20.147098,-0.0076 20.396975,-0.474512 z M 4.5097743,34.108024 c 0.046796,-0.242984 0.2456017,-0.441792 0.4417928,-0.441792 0.5144392,0 0.4401355,0.697358 -0.085084,0.798505 -0.3207335,0.06176 -0.4184789,-0.03598 -0.3567111,-0.356713 z M 6.49535,34.245318 c -0.3606696,-0.583577 0.4384203,-0.709113 4.108171,-0.645393 3.415233,0.0593 3.827157,0.110675 3.899276,0.486305 0.07416,0.386298 -0.237378,0.419998 -3.882779,0.419998 -2.5951688,0 -4.0190835,-0.09007 -4.124668,-0.26091 z m 12.054953,0.102993 c -0.246515,-0.246515 0.326518,-0.802079 0.827301,-0.802079 0.399664,0 0.450611,-0.198086 0.450611,-1.751992 0,-1.042661 0.116603,-1.868594 0.287999,-2.039992 0.158399,-0.158399 0.838796,-0.287998 1.511993,-0.287998 0.673198,0 1.353594,0.129599 1.511994,0.287998 0.171397,0.171398 0.287998,0.997331 0.287998,2.039992 0,1.708792 0.01479,1.751992 0.599998,1.751992 h 0.599997 v -3.214308 c 0,-2.709634 0.0596,-3.237183 0.379628,-3.359985 0.660118,-0.253312 2.632453,-0.157583 2.932358,0.142321 0.193999,0.193998 0.287999,1.290661 0.287999,3.359985 0,2.853302 0.03232,3.071987 0.453979,3.071987 0.576516,0 0.719781,-0.616606 0.641278,-2.759987 -0.08639,-2.358669 0.03444,-2.519989 1.887495,-2.519989 1.17,0 1.559849,0.08854 1.67155,0.379627 0.08012,0.208794 0.145677,1.39679 0.145677,2.639989 0,2.10036 0.03398,2.26036 0.479998,2.26036 0.458547,0 0.479997,-0.16 0.479997,-3.580355 0,-1.969195 0.06556,-3.751188 0.145678,-3.959982 0.113005,-0.294491 0.510403,-0.379628 1.772,-0.379628 1.931395,0 1.889754,-0.07092 1.875794,3.194995 -0.01966,4.598071 -0.0092,4.68364 0.584056,4.768278 0.295653,0.04218 0.57357,0.265691 0.617597,0.49669 0.07522,0.394654 -0.534101,0.419998 -10.097504,0.419998 -5.597654,0 -10.248616,-0.07106 -10.335471,-0.157917 z m 3.917901,-2.242073 v -1.439993 h -0.839997 -0.839996 v 1.439993 1.439994 h 0.839996 0.839997 z m 4.799979,-1.319993 c 0,-1.517994 -0.081,-2.767429 -0.18,-2.776525 -0.099,-0.0091 -0.476997,-0.05573 -0.839995,-0.103626 l -0.659998,-0.08709 v 2.863614 2.863615 h 0.839996 0.839997 z m 4.582375,2.219989 c 0.02333,-0.562605 0.01735,-3.286267 -0.0079,-3.599984 -0.008,-0.099 -0.338497,-0.179999 -0.734496,-0.179999 h -0.719996 v 2.159991 2.15999 h 0.719996 c 0.58003,0 0.724351,-0.104976 0.742392,-0.539998 z m 4.777584,-2.939986 v -3.479986 h -0.694319 c -0.381877,0 -0.734009,0.135 -0.782515,0.299999 -0.0485,0.164999 -0.07425,1.433994 -0.05721,2.819988 0.05043,4.101805 -0.0051,3.839983 0.814048,3.839983 h 0.719997 z M 4.6332818,30.991244 c -0.3397215,-0.339723 -0.1474871,-0.804997 0.3325963,-0.804997 0.3355099,0 0.4723198,0.130331 0.4199983,0.400109 -0.085665,0.441713 -0.4953578,0.662123 -0.7525946,0.404888 z m 1.9194358,-0.175725 c -0.072249,-0.188291 -0.066816,-0.406904 0.012091,-0.485808 0.078907,-0.07891 1.915373,-0.143464 4.0810424,-0.143464 3.620801,0 3.931092,0.03379 3.856931,0.419998 -0.0722,0.375973 -0.486219,0.426896 -3.949673,0.485808 -3.1727896,0.05397 -3.892664,0.0042 -4.0003936,-0.276534 z M 21.140465,27.533728 c -0.187679,-0.303671 4.63413,-5.267447 5.116794,-5.267447 0.185858,0 1.298191,0.593998 2.471851,1.319994 1.173659,0.725997 2.222536,1.319995 2.330835,1.319995 0.180874,0 1.327708,-0.929151 3.747383,-3.036081 0.964769,-0.840073 1.460816,-0.930451 1.460816,-0.266153 0,0.386916 -4.706731,4.502228 -5.14925,4.502228 -0.134824,0 -1.200861,-0.593996 -2.368974,-1.319994 -1.168111,-0.725997 -2.224618,-1.319994 -2.34779,-1.319994 -0.123172,0 -1.191442,0.971996 -2.373933,2.159991 -2.101416,2.111196 -2.570372,2.42096 -2.887732,1.907461 z M 10.887276,24.659755 C 8.4546331,24.048504 6.1393156,22.144984 5.108106,19.908453 4.7001229,19.0236 4.5904511,18.329522 4.5894951,16.626306 4.5880437,13.979059 5.1314171,12.684563 7.0236223,10.827778 10.077919,7.8306541 15.006043,7.7730289 18.119635,10.698032 c 4.197423,3.943186 3.191742,10.712839 -1.967047,13.241004 -1.644528,0.805933 -3.768909,1.09672 -5.265312,0.720719 z m 4.190225,-1.326506 c 3.189532,-1.086782 5.211665,-4.72391 4.49746,-8.089397 -1.176184,-5.5424337 -7.677209,-7.5223322 -11.9688148,-3.645124 -2.0706746,1.87073 -2.7238095,5.650615 -1.4104681,8.162793 0.7409105,1.417225 2.2317552,2.844033 3.6396994,3.483361 1.2397635,0.562958 3.7262605,0.604874 5.2421235,0.08837 z M 10.841277,22.331796 C 9.9461504,22.104066 8.5408177,21.05185 7.8403958,20.084945 5.0297404,16.204948 7.889859,10.73716 12.72406,10.748676 c 1.194136,0.0028 3.278823,0.93346 4.138846,1.847603 2.644345,2.81075 1.755267,7.730872 -1.686583,9.333486 -1.185416,0.551961 -3.061754,0.725972 -4.335046,0.402031 z m 3.25115,-1.065405 c 1.253024,-0.429898 2.301535,-1.335134 2.84372,-2.455139 0.270644,-0.559074 0.492079,-1.1444 0.492079,-1.300723 0,-0.199587 -0.698736,-0.284225 -2.346427,-0.284225 h -2.346427 l -1.658704,1.671512 -1.6587045,1.671513 1.0651435,0.483207 c 1.211065,0.549404 2.422139,0.621162 3.60932,0.213855 z m -3.570194,-3.253654 1.626016,-1.613557 v -2.226427 c 0,-2.122082 -0.02432,-2.226427 -0.518912,-2.226427 -0.909402,0 -2.5567656,1.158913 -3.1946933,2.247455 -0.4541146,0.774889 -0.6063756,1.373879 -0.6063756,2.385469 0,1.195832 0.5701331,3.047043 0.9384241,3.047043 0.071242,0 0.8612319,-0.7261 1.7555408,-1.613556 z m 6.791325,-1.995057 c 0.222465,-0.359955 -0.302301,-1.703078 -0.954914,-2.444078 -0.755095,-0.857361 -2.034812,-1.625256 -2.710402,-1.626379 -0.516869,-8.59e-4 -0.539998,0.08476 -0.539998,1.999094 0,1.099996 0.05407,2.054062 0.120155,2.120146 0.233418,0.233419 3.938091,0.18918 4.085159,-0.04878 z m 11.799617,1.053624 c -0.339724,-0.339722 -0.147487,-0.804996 0.332595,-0.804996 0.335512,0 0.472321,0.130331 0.419998,0.40011 -0.08566,0.441713 -0.495357,0.662122 -0.752593,0.404886 z m 2.008882,-0.188261 c -0.226621,-0.273063 -0.195819,-0.384931 0.150612,-0.547017 0.496675,-0.23238 7.430386,-0.234796 7.662511,-0.0026 0.08374,0.08374 0.08829,0.318906 0.01013,0.522598 -0.202617,0.528013 -7.38688,0.552888 -7.823256,0.02709 z m 3.586093,-3.256725 c -3.093319,-0.09978 -3.719983,-0.180643 -3.719983,-0.479997 0,-0.305441 0.599632,-0.359998 3.956694,-0.359998 3.460697,0 3.966108,0.04886 4.031767,0.389799 0.04129,0.21439 -0.06524,0.430389 -0.236713,0.479999 -0.17148,0.04961 -1.985774,0.0362 -4.031765,-0.0298 z m -5.652899,-0.26091 c -0.209443,-0.338883 0.253127,-0.801451 0.59201,-0.592009 0.380644,0.23525 0.319144,0.852919 -0.08492,0.852919 -0.190209,0 -0.418397,-0.117409 -0.507086,-0.26091 z m 0.05793,-3.254074 c -0.339723,-0.3397222 -0.147486,-0.8049964 0.332596,-0.8049964 0.335512,0 0.47232,0.1303314 0.419998,0.4001103 -0.08566,0.4417131 -0.495358,0.6621221 -0.752594,0.4048861 z m 2.012722,-0.1836323 c -0.2004,-0.2414686 -0.205957,-0.385036 -0.01937,-0.5003578 0.278593,-0.1721804 7.707214,-0.1753879 7.8792,-0.0034 0.05593,0.055932 0.03774,0.2683502 -0.04042,0.4720424 -0.201144,0.5241707 -7.386525,0.5533167 -7.819414,0.031721 z"
     id="path246" /></svg>
