<?xml version="1.0" encoding="UTF-8" standalone="no"?>
<!-- Created with Inkscape (http://www.inkscape.org/) -->

<svg
   width="43.325218mm"
   height="43.345306mm"
   viewBox="0 0 43.325218 43.345306"
   version="1.1"
   id="svg5"
   xml:space="preserve"
   xmlns="http://www.w3.org/2000/svg"
   xmlns:svg="http://www.w3.org/2000/svg"><defs
     id="defs2" /><path
     style="fill:#efeeda;fill-opacity:1;stroke-width:0.383732"
     d="M 10.808272,36.79594 V 32.574883 H 6.2034867 1.5987024 L 0.83123359,31.807428 0.06377916,31.039959 V 22.273595 13.507231 L 0.75130613,12.885027 1.438833,12.262822 6.0276202,12.154048 10.616408,12.045274 10.723442,6.9608226 10.830476,1.8763717 h 7.383275 7.38329 l 3.541942,3.5567211 3.541942,3.5567356 v 1.5680346 1.568049 l 4.690253,0.07353 4.690266,0.07353 0.681987,0.6172 0.681987,0.617187 v 8.766364 8.766364 l -0.767455,0.767469 -0.767469,0.767454 H 37.28571 32.680925 v 4.221058 4.221057 H 21.744569 10.808199 Z m 20.72153,-3.645452 v -6.715313 h -9.78516 -9.785174 v 6.715313 6.715313 h 9.785174 9.78516 z m -14.698821,2.249339 c -0.740971,-0.740957 0.161175,-0.906279 4.945626,-0.906279 h 5.21237 l -0.159304,0.479666 c -0.174141,0.524351 -9.502927,0.922378 -9.998692,0.426613 z m 0,-3.837315 c -0.740971,-0.740972 0.161175,-0.90628 4.945626,-0.90628 h 5.21237 l -0.159304,0.479666 c -0.174141,0.524337 -9.502927,0.922379 -9.998692,0.426614 z M 10.808272,28.35384 v -3.069861 h 10.93637 10.936356 v 3.081666 3.081667 l 4.700724,-0.107759 4.700709,-0.107759 v -8.825828 -8.825842 l -4.700709,-0.107759 -4.700724,-0.107759 v 2.122334 2.122335 H 21.744642 10.808272 V 15.48694 13.364606 l -4.7007243,0.107759 -4.7007089,0.107759 -0.1036983,8.433022 c -0.1286439,10.466465 -0.67717153,9.410512 4.888265,9.410512 H 10.808228 Z M 4.268839,17.398209 3.7751626,16.803358 4.3352495,16.243271 4.8953363,15.683169 5.6308691,16.220994 6.3663873,16.758818 5.8542192,17.375946 C 5.214408,18.146882 4.893915,18.151378 4.268839,17.398136 Z M 31.529802,13.004548 V 9.5509595 H 28.076213 24.622625 V 6.2892492 3.0275243 h -6.331572 -6.331585 v 6.7153133 6.7152994 h 9.785174 9.78516 z M 30.378606,8.2918301 c 0,-0.059318 -1.03607,-1.1332121 -2.302393,-2.3863226 L 25.773821,3.6271471 v 2.3863081 2.3863081 h 2.302392 c 1.266323,0 2.302393,-0.048586 2.302393,-0.1079042 z"
     id="path39918" /></svg>
