<svg xmlns="http://www.w3.org/2000/svg" xmlns:xlink="http://www.w3.org/1999/xlink" width="251" zoomAndPan="magnify" viewBox="0 0 188.25 188.250001" height="251" preserveAspectRatio="xMidYMid meet" version="1.0"><defs><clipPath id="8d0ddf9d64"><path d="M 35.195312 28.46875 L 152.476562 28.46875 L 152.476562 151.726562 L 35.195312 151.726562 Z M 35.195312 28.46875 " clip-rule="nonzero"/></clipPath></defs><g clip-path="url(#8d0ddf9d64)"><path fill="#fefefe" d="M 152.199219 70.726562 L 152.199219 90.226562 C 152.199219 106.378906 126.003906 119.476562 93.695312 119.476562 C 61.390625 119.476562 35.195312 106.378906 35.195312 90.226562 L 35.195312 70.726562 C 35.195312 86.878906 61.390625 99.976562 93.695312 99.976562 C 126.003906 99.976562 152.199219 86.878906 152.199219 70.726562 Z M 35.195312 103.226562 C 35.195312 119.378906 61.390625 132.476562 93.695312 132.476562 C 126.003906 132.476562 152.199219 119.378906 152.199219 103.226562 L 152.199219 122.726562 C 152.199219 138.878906 126.003906 151.976562 93.695312 151.976562 C 61.390625 151.976562 35.195312 138.878906 35.195312 122.726562 Z M 93.695312 86.976562 C 61.390625 86.976562 35.195312 73.878906 35.195312 57.722656 C 35.195312 41.570312 61.390625 28.472656 93.695312 28.472656 C 126.003906 28.472656 152.199219 41.570312 152.199219 57.722656 C 152.199219 73.878906 126.003906 86.976562 93.695312 86.976562 Z M 93.695312 86.976562 " fill-opacity="1" fill-rule="nonzero"/></g></svg>