<svg xmlns="http://www.w3.org/2000/svg" xmlns:xlink="http://www.w3.org/1999/xlink" width="251" zoomAndPan="magnify" viewBox="0 0 188.25 188.250001" height="251" preserveAspectRatio="xMidYMid meet" version="1.0"><defs><clipPath id="99510fba10"><path d="M 23.320312 23.332031 L 163.757812 23.332031 L 163.757812 163.773438 L 23.320312 163.773438 Z M 23.320312 23.332031 " clip-rule="nonzero"/></clipPath></defs><g clip-path="url(#99510fba10)"><path fill="#fefefe" d="M 135.1875 139.539062 C 131.3125 142.863281 126.277344 144.871094 120.769531 144.871094 C 108.535156 144.871094 98.621094 134.957031 98.621094 122.722656 C 98.621094 110.488281 108.535156 100.570312 120.769531 100.570312 C 133.003906 100.570312 142.921875 110.488281 142.921875 122.722656 C 142.921875 127.433594 141.449219 131.804688 138.941406 135.394531 L 145.863281 142.164062 L 146.113281 141.90625 C 146.882812 141.109375 148.167969 141.09375 148.960938 141.859375 L 161.125 153.667969 C 161.921875 154.433594 161.9375 155.714844 161.164062 156.515625 L 156.773438 161.039062 C 156.003906 161.832031 154.726562 161.851562 153.925781 161.082031 L 141.765625 149.277344 C 140.96875 148.507812 140.949219 147.222656 141.722656 146.429688 L 141.972656 146.171875 Z M 120.769531 106.949219 C 112.058594 106.949219 104.996094 114.007812 104.996094 122.722656 C 104.996094 131.433594 112.058594 138.496094 120.769531 138.496094 C 129.484375 138.496094 136.542969 131.433594 136.542969 122.722656 C 136.542969 114.007812 129.484375 106.949219 120.769531 106.949219 Z M 127.824219 60.460938 L 118.191406 60.460938 C 117.40625 60.460938 116.773438 59.828125 116.773438 59.042969 L 116.773438 49.410156 Z M 31.191406 73.207031 C 29.089844 79.636719 27.957031 86.496094 27.957031 93.621094 C 27.957031 129.914062 57.421875 159.378906 93.710938 159.378906 C 103.925781 159.378906 113.601562 157.042969 122.230469 152.878906 C 123.355469 152.335938 124.714844 152.808594 125.257812 153.9375 C 125.800781 155.0625 125.328125 156.417969 124.203125 156.964844 C 114.976562 161.414062 104.632812 163.914062 93.710938 163.914062 C 54.917969 163.914062 23.421875 132.417969 23.421875 93.621094 C 23.421875 85.519531 24.796875 77.734375 27.324219 70.488281 L 27.214844 70.5625 C 26.195312 71.285156 24.777344 71.042969 24.054688 70.019531 C 23.335938 68.996094 23.578125 67.582031 24.601562 66.859375 L 31.105469 62.265625 C 31.765625 61.796875 32.625 61.71875 33.363281 62.058594 C 34.097656 62.398438 34.597656 63.105469 34.671875 63.910156 L 35.398438 71.839844 C 35.511719 73.085938 34.59375 74.191406 33.347656 74.304688 C 32.449219 74.386719 31.625 73.933594 31.191406 73.207031 Z M 156.21875 114.074219 C 158.328125 107.636719 159.464844 100.761719 159.464844 93.621094 C 159.464844 57.332031 130.003906 27.867188 93.710938 27.867188 C 83.496094 27.867188 73.820312 30.203125 65.191406 34.367188 C 64.066406 34.910156 62.707031 34.4375 62.164062 33.308594 C 61.621094 32.183594 62.09375 30.824219 63.222656 30.28125 C 72.445312 25.828125 82.789062 23.332031 93.710938 23.332031 C 132.503906 23.332031 164 54.828125 164 93.621094 C 164 101.707031 162.632812 109.472656 160.117188 116.707031 L 160.179688 116.660156 C 161.199219 115.933594 162.617188 116.171875 163.34375 117.191406 C 164.066406 118.210938 163.832031 119.628906 162.8125 120.355469 L 156.324219 124.972656 C 155.664062 125.445312 154.804688 125.527344 154.070312 125.191406 C 153.332031 124.855469 152.832031 124.148438 152.753906 123.34375 L 151.996094 115.417969 C 151.875 114.171875 152.789062 113.0625 154.035156 112.945312 C 154.949219 112.855469 155.789062 113.324219 156.21875 114.074219 Z M 98.773438 137.835938 L 61.015625 137.835938 C 60.636719 137.835938 60.277344 137.6875 60.011719 137.421875 C 59.746094 137.15625 59.597656 136.792969 59.597656 136.417969 L 59.597656 50.828125 C 59.597656 50.449219 59.746094 50.089844 60.011719 49.824219 C 60.277344 49.558594 60.636719 49.410156 61.015625 49.410156 L 112.238281 49.410156 L 112.238281 60.460938 C 112.238281 62.964844 114.269531 64.996094 116.773438 64.996094 L 127.824219 64.996094 L 127.824219 96.980469 C 125.578125 96.363281 123.210938 96.035156 120.769531 96.035156 C 106.03125 96.035156 94.085938 107.984375 94.085938 122.722656 C 94.085938 128.332031 95.816406 133.539062 98.773438 137.835938 Z M 73.523438 79.042969 L 113.910156 79.042969 C 115.160156 79.042969 116.175781 78.027344 116.175781 76.777344 C 116.175781 75.523438 115.160156 74.507812 113.910156 74.507812 L 73.523438 74.507812 C 72.269531 74.507812 71.253906 75.523438 71.253906 76.777344 C 71.253906 78.027344 72.269531 79.042969 73.523438 79.042969 Z M 73.523438 102.839844 L 97.695312 102.839844 C 98.945312 102.839844 99.960938 101.824219 99.960938 100.570312 C 99.960938 99.320312 98.945312 98.304688 97.695312 98.304688 L 73.523438 98.304688 C 72.269531 98.304688 71.253906 99.320312 71.253906 100.570312 C 71.253906 101.824219 72.269531 102.839844 73.523438 102.839844 Z M 73.523438 67.140625 L 102.507812 67.140625 C 103.757812 67.140625 104.777344 66.125 104.777344 64.875 C 104.777344 63.621094 103.757812 62.605469 102.507812 62.605469 L 73.523438 62.605469 C 72.269531 62.605469 71.253906 63.621094 71.253906 64.875 C 71.253906 66.125 72.269531 67.140625 73.523438 67.140625 Z M 73.523438 126.644531 L 88.550781 126.644531 C 89.804688 126.644531 90.820312 125.628906 90.820312 124.375 C 90.820312 123.125 89.804688 122.109375 88.550781 122.109375 L 73.523438 122.109375 C 72.269531 122.109375 71.253906 123.125 71.253906 124.375 C 71.253906 125.628906 72.269531 126.644531 73.523438 126.644531 Z M 73.523438 114.742188 L 90.878906 114.742188 C 92.128906 114.742188 93.144531 113.726562 93.144531 112.472656 C 93.144531 111.222656 92.128906 110.207031 90.878906 110.207031 L 73.523438 110.207031 C 72.269531 110.207031 71.253906 111.222656 71.253906 112.472656 C 71.253906 113.726562 72.269531 114.742188 73.523438 114.742188 Z M 73.523438 90.9375 L 113.910156 90.9375 C 115.160156 90.9375 116.175781 89.921875 116.175781 88.667969 C 116.175781 87.417969 115.160156 86.402344 113.910156 86.402344 L 73.523438 86.402344 C 72.269531 86.402344 71.253906 87.417969 71.253906 88.667969 C 71.253906 89.921875 72.269531 90.9375 73.523438 90.9375 Z M 73.523438 90.9375 " fill-opacity="1" fill-rule="evenodd"/></g></svg>