<svg xmlns="http://www.w3.org/2000/svg" xmlns:xlink="http://www.w3.org/1999/xlink" width="251" zoomAndPan="magnify" viewBox="0 0 188.25 188.250001" height="251" preserveAspectRatio="xMidYMid meet" version="1.0"><defs><clipPath id="eedc74ce0f"><path d="M 19 22.164062 L 168.976562 22.164062 L 168.976562 164.84375 L 19 164.84375 Z M 19 22.164062 " clip-rule="nonzero"/></clipPath></defs><g clip-path="url(#eedc74ce0f)"><path fill="#fefefe" d="M 114.652344 84.789062 C 98.875 84.789062 86.085938 97.578125 86.085938 113.355469 C 86.085938 129.132812 98.875 141.917969 114.652344 141.917969 C 121.683594 141.917969 128.121094 139.378906 133.097656 135.164062 L 141.242188 143.148438 L 140.917969 143.480469 C 139.835938 144.59375 139.863281 146.390625 140.976562 147.472656 L 158.019531 164.007812 C 159.132812 165.089844 160.929688 165.0625 162.007812 163.949219 L 168.160156 157.609375 C 169.242188 156.492188 169.214844 154.699219 168.101562 153.617188 L 151.058594 137.082031 C 149.945312 136 148.152344 136.027344 147.070312 137.140625 L 146.695312 137.527344 L 138.332031 129.332031 C 141.414062 124.773438 143.214844 119.273438 143.214844 113.355469 C 143.214844 97.578125 130.425781 84.789062 114.652344 84.789062 Z M 96.660156 31.742188 L 125.472656 81.640625 C 122.414062 80.597656 119.160156 79.988281 115.777344 79.875 L 90.152344 35.496094 L 90.148438 35.496094 C 89.097656 33.675781 87.632812 32.226562 85.902344 31.226562 C 84.164062 30.222656 82.179688 29.679688 80.089844 29.679688 C 78 29.679688 76.011719 30.222656 74.273438 31.226562 C 72.589844 32.199219 71.160156 33.597656 70.113281 35.351562 C 70.082031 35.398438 70.054688 35.445312 70.023438 35.496094 L 28.117188 108.078125 L 28.121094 108.082031 L 28.117188 108.089844 C 27.0625 109.917969 26.53125 111.910156 26.53125 113.894531 C 26.53125 115.878906 27.0625 117.867188 28.117188 119.699219 C 29.171875 121.523438 30.636719 122.976562 32.367188 123.976562 C 34.105469 124.980469 36.09375 125.523438 38.183594 125.523438 L 83.429688 125.523438 C 84.480469 128.210938 85.867188 130.730469 87.539062 133.03125 L 38.183594 133.03125 C 31.292969 133.03125 25.054688 129.429688 21.609375 123.460938 C 18.164062 117.496094 18.164062 110.292969 21.609375 104.324219 L 63.515625 31.742188 C 66.960938 25.773438 73.199219 22.171875 80.089844 22.171875 C 86.980469 22.171875 93.214844 25.773438 96.660156 31.742188 Z M 80.089844 97.335938 C 77.195312 97.335938 74.847656 99.683594 74.847656 102.578125 C 74.847656 105.472656 77.195312 107.816406 80.089844 107.816406 C 80.632812 107.816406 81.15625 107.734375 81.648438 107.582031 C 81.320312 109.457031 81.148438 111.386719 81.148438 113.355469 C 81.148438 115.835938 81.421875 118.257812 81.933594 120.585938 L 38.183594 120.585938 C 36.945312 120.585938 35.796875 120.28125 34.816406 119.714844 C 33.828125 119.144531 32.988281 118.308594 32.378906 117.25 C 31.773438 116.199219 31.46875 115.046875 31.46875 113.894531 C 31.46875 112.742188 31.769531 111.59375 32.375 110.542969 L 32.378906 110.546875 L 74.285156 37.960938 C 74.308594 37.921875 74.332031 37.882812 74.351562 37.84375 C 74.957031 36.835938 75.769531 36.039062 76.722656 35.488281 C 77.703125 34.921875 78.851562 34.617188 80.089844 34.617188 C 81.324219 34.617188 82.476562 34.921875 83.457031 35.488281 C 84.441406 36.058594 85.28125 36.894531 85.890625 37.953125 L 85.894531 37.960938 L 85.890625 37.960938 L 110.246094 80.144531 C 98.65625 81.667969 88.933594 89.113281 84.214844 99.34375 C 83.253906 98.121094 81.761719 97.335938 80.089844 97.335938 Z M 80.089844 91.859375 C 82.289062 91.859375 84.097656 90.113281 84.175781 87.914062 L 85.210938 59.28125 C 85.253906 58.128906 84.867188 57.125 84.066406 56.292969 C 83.265625 55.464844 82.277344 55.042969 81.125 55.042969 C 79.660156 55.042969 80.515625 55.042969 79.054688 55.042969 C 77.902344 55.042969 76.910156 55.464844 76.109375 56.292969 C 75.3125 57.125 74.925781 58.128906 74.96875 59.28125 L 76 87.914062 C 76.082031 90.113281 77.886719 91.859375 80.089844 91.859375 Z M 114.652344 93.15625 C 125.804688 93.15625 134.847656 102.199219 134.847656 113.355469 C 134.847656 124.511719 125.804688 133.554688 114.652344 133.554688 C 103.496094 133.554688 94.453125 124.511719 94.453125 113.355469 C 94.453125 102.199219 103.496094 93.15625 114.652344 93.15625 Z M 114.652344 93.15625 " fill-opacity="1" fill-rule="evenodd"/></g></svg>