<svg xmlns="http://www.w3.org/2000/svg" xmlns:xlink="http://www.w3.org/1999/xlink" width="251" zoomAndPan="magnify" viewBox="0 0 188.25 188.250001" height="251" preserveAspectRatio="xMidYMid meet" version="1.0"><defs><clipPath id="3016443717"><path d="M 30.972656 24.285156 L 156.472656 24.285156 L 156.472656 156.507812 L 30.972656 156.507812 Z M 30.972656 24.285156 " clip-rule="nonzero"/></clipPath></defs><path fill="#fefefe" d="M 93.703125 56.929688 C 79.84375 56.929688 68.609375 68.726562 68.609375 83.28125 C 68.609375 97.839844 79.84375 109.640625 93.703125 109.640625 C 107.5625 109.640625 118.792969 97.839844 118.792969 83.28125 C 118.792969 68.726562 107.5625 56.929688 93.703125 56.929688 " fill-opacity="1" fill-rule="nonzero"/><g clip-path="url(#3016443717)"><path fill="#fefefe" d="M 135.375 135.714844 C 129.816406 122.148438 118.152344 113.664062 93.664062 113.664062 C 69.207031 113.664062 57.542969 122.125 51.976562 135.660156 C 40.648438 124.179688 33.601562 108.066406 33.601562 90.226562 C 33.601562 55.363281 60.507812 27.101562 93.703125 27.101562 C 126.894531 27.101562 153.800781 55.363281 153.800781 90.226562 C 153.800781 108.097656 146.734375 124.230469 135.375 135.714844 Z M 93.703125 24.339844 C 59.058594 24.339844 30.972656 53.839844 30.972656 90.226562 C 30.972656 109.261719 38.65625 126.410156 50.941406 138.4375 C 62.144531 149.40625 77.175781 156.117188 93.703125 156.117188 C 110.199219 156.117188 125.207031 149.425781 136.40625 138.492188 C 148.726562 126.460938 156.433594 109.289062 156.433594 90.226562 C 156.433594 53.839844 128.347656 24.339844 93.703125 24.339844 " fill-opacity="1" fill-rule="nonzero"/></g></svg>