<svg id="bcc911fd-6f79-4117-bba1-24592d1f3db0" data-name="Capa 1" xmlns="http://www.w3.org/2000/svg" viewBox="0 0 199.81 260.26"><g id="a15b2ee9-2849-4f70-920c-80b8fc9f6fb0" data-name="layer1"><path id="ad38e5ca-04e4-4107-9291-3107244854e6" data-name="path140-8" d="M349.17,511.34a20,20,0,0,1-2.69-33.82c4.42-3.24,12.49-3.43,17.1-.41s4.52,0,0-3.59c-4.12-3.24-4.46-7.39-.78-9.36s13-1.8,15,.23c1.11,1.11,1.66,7.3,1.66,18.8,0,14.79-.38,17.76-2.79,21.65-5,8.07-18.22,11.21-27.45,6.5Zm14.29-11.83c5.09-3.71,1.81-13.33-4.55-13.33-3.05,0-7.08,4.18-7.08,7.34,0,3.47,3.81,7.83,6.84,7.83A9.88,9.88,0,0,0,363.46,499.51ZM394.6,511.2c-9.71-5.2-13.5-16-9-25.55,8.52-18,39.29-13.87,39.29,5.24,0,4.87-3.65,6.32-15.94,6.32-9.58,0-10.43.21-8.76,2.22,1.4,1.69,3.27,2,7.95,1.37,7-1,9.85.65,9.85,5.61,0,6.62-14.49,9.58-23.42,4.79Zm16.53-22c0-2.06-3.31-4.41-6.21-4.41s-6.21,2.35-6.21,4.41c0,.61,2.8,1.1,6.21,1.1S411.13,489.82,411.13,489.21Zm27.52,21.44c-14.47-7.29-14.39-27,.15-34.47,14.12-7.2,31.62,2.53,31.62,17.58,0,10.74-9.59,20-20.74,20-2.68,0-7.64-1.4-11-3.11Zm16.9-12.84c3-6.64-2.14-13.71-8.75-12-3,.78-5.86,7.56-4.74,11.09,1,3.19,6,5.65,9.5,4.72A7.51,7.51,0,0,0,455.55,497.81Zm30.14,13.53A20,20,0,0,1,483,477.52c4.42-3.24,12.49-3.43,17.1-.41s4.53,0,0-3.59c-4.12-3.24-4.46-7.39-.78-9.36s12.95-1.8,15,.23c1.11,1.11,1.66,7.3,1.66,18.8,0,14.79-.38,17.76-2.79,21.65-5,8.07-18.22,11.21-27.45,6.5ZM500,499.51c5.09-3.71,1.81-13.33-4.55-13.33-3.05,0-7.08,4.18-7.08,7.34,0,3.47,3.81,7.83,6.84,7.83A9.88,9.88,0,0,0,500,499.51Zm20.36,11.21c-2.55-2.55-2-7.78,1.11-9.69,2-1.28,2.75-3.22,2.75-7.55s-.66-6.18-2.75-7.3c-3.06-1.64-3.67-6.82-1.11-9.38,2.15-2.15,13.85-2.15,16,0s2.26,29.1.23,32.91c-1.11,2.07-2.92,2.67-8,2.67-3.62,0-7.32-.75-8.23-1.66Zm4.78-41.18c-4.09-5.85,1.7-12.71,8.22-9.74,3.62,1.65,4.56,8,1.62,10.93C532.39,473.3,527.33,472.69,525.12,469.54Z" transform="translate(-338.35 -253.49)" style="fill:#a09e7d"/></g><g id="e930d451-3c72-4926-9b86-d79bf0a672ac" data-name="layer1"><path id="a2eaf501-4379-4b71-bbdd-09757d53be4f" data-name="path224" d="M412.28,439.1c-11.91-2-25.23-8.84-32.93-17-14.92-15.78-16.64-23.87-16.67-78.58,0-41.34,0-41.34-6.74-43.73-17.82-6.33-23.17-26.13-10.48-38.82,7.54-7.54,11.12-7.92,68.93-7.29,44.21.48,53.51.94,60.32,2.94,31.72,9.32,51.52,29.34,60.33,61,2.25,8.1,3,14.84,3.11,27.29.15,19.43-1.51,27.29-9.12,43.28-9.95,20.91-31.89,38.93-56.18,46.17-18.29,5.45-44,7.45-60.57,4.71Zm47.59-52.31c11-4.11,21.28-14.4,25.35-25.32,2.52-6.8,2.94-10.1,2.35-18.6-1.23-17.76-9.16-30.6-22.89-37-7-3.3-9.44-3.64-28.67-4.07l-21-.47v40.45c0,44.69.1,45.24,8.67,47.9,6.87,2.13,27.14.53,36.2-2.86Z" transform="translate(-338.35 -253.49)" style="fill:#a09e7d"/></g></svg>