<?xml version="1.0" encoding="UTF-8"?><svg id="uuid-8b082c15-1093-4178-a98b-c1131b1805db" xmlns="http://www.w3.org/2000/svg" xmlns:xlink="http://www.w3.org/1999/xlink" viewBox="0 0 233.18 308.61"><defs><linearGradient id="uuid-bb9da80e-ff7f-4340-9c05-20927402506a" x1="0" y1="116.59" x2="233.18" y2="116.59" gradientTransform="matrix(1, 0, 0, 1, 0, 0)" gradientUnits="userSpaceOnUse"><stop offset=".16" stop-color="#453132"/><stop offset=".53" stop-color="#573937"/><stop offset=".78" stop-color="#67403c"/></linearGradient><linearGradient id="uuid-83f810dc-fb20-486f-8cc9-aefa88252570" x1="58.34" y1="119.47" x2="174.84" y2="119.47" gradientTransform="matrix(1, 0, 0, 1, 0, 0)" gradientUnits="userSpaceOnUse"><stop offset="0" stop-color="#00a9a1"/><stop offset=".04" stop-color="#05b2ab"/><stop offset=".23" stop-color="#1ddbd8"/><stop offset=".38" stop-color="#2cf5f4"/><stop offset=".47" stop-color="#32ffff"/><stop offset=".54" stop-color="#32ffe5"/><stop offset=".63" stop-color="#32ffca"/><stop offset=".72" stop-color="#32ffb9"/><stop offset=".78" stop-color="#32ffb3"/></linearGradient><linearGradient id="uuid-7a1498b8-97ea-45a7-8dbc-9a8da174db01" x1="43.41" y1="289.4" x2="75.08" y2="289.4" xlink:href="#uuid-bb9da80e-ff7f-4340-9c05-20927402506a"/><linearGradient id="uuid-7baec7b6-8daa-4db9-91ce-1e31a4f6a322" x1="77.26" y1="293.48" x2="109.03" y2="293.48" xlink:href="#uuid-bb9da80e-ff7f-4340-9c05-20927402506a"/><linearGradient id="uuid-fc8c5271-18bb-4138-8aad-f4efebc91d4f" x1="110.07" y1="293.45" x2="142.52" y2="293.45" xlink:href="#uuid-bb9da80e-ff7f-4340-9c05-20927402506a"/><linearGradient id="uuid-266dca4c-8ba5-42dc-8b71-c6e585b95c8c" x1="144.91" y1="289.4" x2="176.57" y2="289.4" xlink:href="#uuid-bb9da80e-ff7f-4340-9c05-20927402506a"/><linearGradient id="uuid-c2cfa433-27a5-4c01-a30f-6a0520c219a0" x1="177.35" y1="287.51" x2="192.77" y2="287.51" xlink:href="#uuid-bb9da80e-ff7f-4340-9c05-20927402506a"/></defs><circle cx="116.59" cy="116.59" r="116.59" style="fill:url(#uuid-bb9da80e-ff7f-4340-9c05-20927402506a);"/><path d="M74.08,65.12h47.07c14.9,0,27.04,4.04,36.4,12.13,9.36,8.09,14.98,19.44,16.84,34.05,.29,2.85,.44,5.49,.44,7.94,0,13.34-4.02,24.76-12.06,34.27-8.04,9.51-18.97,15.64-32.8,18.39-6.28,1.27-12.26,1.91-17.95,1.91-12.65,0-22.36-3.23-29.12-9.69-6.77-6.46-10.15-15.22-10.15-26.28v-45.07l-1.03-.15c-4.02-.59-7.26-2.14-9.71-4.66-2.45-2.51-3.68-5.45-3.68-8.8,0-2.17,.49-4.24,1.47-6.21,2.45-5.22,7.21-7.84,14.27-7.84Zm45.6,80.02c7.55-.68,13.68-3.24,18.39-7.65,4.71-4.41,7.35-10.15,7.94-17.21,0-8.24-2.31-14.9-6.91-20-4.61-5.1-10.84-7.65-18.68-7.65h-18.09v44.57c0,2.75,.96,4.81,2.87,6.18,1.91,1.37,5.12,2.06,9.63,2.06h2.21c1.18-.2,2.06-.29,2.65-.29Z" style="fill:url(#uuid-83f810dc-fb20-486f-8cc9-aefa88252570);"/><g><path d="M64.59,282.7v-3.12l-.31,.05c-.59,.17-1.29,.04-2.1-.39-.81-.43-1.45-1.06-1.89-1.87-.45-.81-.68-1.62-.68-2.41,0-.97,.32-1.88,.96-2.73,.64-.85,1.5-1.43,2.57-1.74,.45-.14,.99-.21,1.61-.21h4.98c3.56,0,5.35,1.76,5.35,5.29v16.9c0,4.94-1.4,8.85-4.21,11.72-2.8,2.87-6.65,4.3-11.53,4.3s-8.58-1.38-11.53-4.15c-2.94-2.76-4.41-6.37-4.41-10.83,0-2.07,.35-4.02,1.04-5.83,.69-1.81,1.68-3.41,2.96-4.79,2.63-2.73,5.68-4.09,9.14-4.09,1.66,0,3.18,.33,4.57,.99,1.38,.66,2.54,1.63,3.48,2.91Zm-6.65,15.83c.41,.1,.85,.15,1.3,.15,1.18,0,2.23-.36,3.17-1.08,.94-.72,1.54-1.67,1.82-2.84,.1-.48,.16-.95,.16-1.39,0-1.17-.35-2.19-1.04-3.07-.69-.88-1.64-1.47-2.86-1.78-.55-.14-1-.21-1.35-.21-.21,0-.43,.02-.68,.05-.03,0-.28,.05-.73,.15-1.11,.34-2.01,.99-2.7,1.94-.69,.95-1.04,2.01-1.04,3.18s.38,2.21,1.14,3.13c.76,.91,1.7,1.51,2.8,1.78Z" style="fill:url(#uuid-7a1498b8-97ea-45a7-8dbc-9a8da174db01);"/><path d="M104.05,296.05h-15.16c.66,1.53,1.94,2.45,3.84,2.75,.42,.07,.74,.1,.99,.1,.55,0,1.19-.09,1.92-.26h.26l1.4-.55c.66-.29,1.35-.44,2.08-.44,.93,0,1.8,.29,2.6,.88,1.25,.94,1.87,2.15,1.87,3.63s-.66,2.86-1.97,3.89c-.97,.8-2.21,1.42-3.71,1.87-1.51,.45-3.12,.68-4.85,.68-1.21,0-2.34-.1-3.37-.29-1.04-.19-2.13-.51-3.27-.96-2.87-1.11-5.16-2.88-6.85-5.32-1.7-2.44-2.54-5.18-2.54-8.23,0-1.59,.22-3.13,.68-4.62,.73-2.6,2.13-4.83,4.21-6.7,2.08-1.87,4.6-3.12,7.58-3.74,.66-.14,1.29-.24,1.89-.31,.61-.07,1.25-.1,1.95-.1,2.04,0,3.98,.33,5.82,.99,1.83,.66,3.46,1.61,4.88,2.86,1.94,1.73,3.29,3.63,4.05,5.71,.48,1.35,.73,2.51,.73,3.48,0,1.45-.45,2.6-1.35,3.43-.9,.83-2.11,1.25-3.63,1.25Zm-5.87-5.24l-.21-.78c-.83-2.01-2.27-3.01-4.31-3.01-.28,0-.76,.07-1.45,.21-1.52,.38-2.56,1.32-3.12,2.8l-.21,.78h9.29Z" style="fill:url(#uuid-7baec7b6-8daa-4db9-91ce-1e31a4f6a322);"/><path d="M110.07,293.48c0-4.4,1.5-8.02,4.49-10.84,2.99-2.82,6.91-4.24,11.76-4.24s8.71,1.41,11.71,4.24c2.99,2.83,4.49,6.44,4.49,10.84s-1.5,7.97-4.49,10.79c-2.99,2.83-6.9,4.24-11.71,4.24s-8.68-1.41-11.71-4.24c-3.03-2.83-4.54-6.42-4.54-10.79Zm12.41,4.17c.48,.56,1.07,.99,1.77,1.3,.69,.31,1.38,.47,2.08,.47,2.08,0,3.6-.97,4.57-2.92l.47-1.36c.14-.56,.21-1.15,.21-1.77,0-.8-.11-1.53-.34-2.19-.23-.66-.58-1.27-1.06-1.83-1.07-1.18-2.37-1.77-3.89-1.77-2.08,0-3.6,.97-4.57,2.92-.42,.83-.62,1.83-.62,2.97,0,1.74,.47,3.13,1.4,4.17Z" style="fill:url(#uuid-fc8c5271-18bb-4138-8aad-f4efebc91d4f);"/><path d="M166.09,282.7v-3.12l-.31,.05c-.59,.17-1.29,.04-2.1-.39-.81-.43-1.45-1.06-1.89-1.87-.45-.81-.68-1.62-.68-2.41,0-.97,.32-1.88,.96-2.73,.64-.85,1.5-1.43,2.57-1.74,.45-.14,.99-.21,1.61-.21h4.98c3.56,0,5.35,1.76,5.35,5.29v16.9c0,4.94-1.4,8.85-4.21,11.72-2.8,2.87-6.65,4.3-11.53,4.3s-8.58-1.38-11.53-4.15c-2.94-2.76-4.41-6.37-4.41-10.83,0-2.07,.35-4.02,1.04-5.83,.69-1.81,1.68-3.41,2.96-4.79,2.63-2.73,5.68-4.09,9.14-4.09,1.66,0,3.18,.33,4.57,.99,1.38,.66,2.54,1.63,3.48,2.91Zm-6.65,15.83c.41,.1,.85,.15,1.3,.15,1.18,0,2.23-.36,3.17-1.08,.94-.72,1.54-1.67,1.82-2.84,.1-.48,.16-.95,.16-1.39,0-1.17-.35-2.19-1.04-3.07-.69-.88-1.64-1.47-2.86-1.78-.55-.14-1-.21-1.35-.21-.21,0-.43,.02-.68,.05-.03,0-.28,.05-.73,.15-1.11,.34-2.01,.99-2.7,1.94-.69,.95-1.04,2.01-1.04,3.18s.38,2.21,1.14,3.13c.76,.91,1.7,1.51,2.8,1.78Z" style="fill:url(#uuid-266dca4c-8ba5-42dc-8b71-c6e585b95c8c);"/><path d="M181.82,297.97h.47v-9.03l-.52-.05c-1.35-.17-2.42-.67-3.22-1.48-.8-.81-1.19-1.84-1.19-3.09,0-.66,.17-1.4,.49-2.23,.33-.83,.89-1.51,1.69-2.03,.8-.52,1.73-.78,2.8-.78h5.35c1.52,0,2.75,.47,3.69,1.41,.93,.94,1.4,2.17,1.4,3.7v18.45l-.05,.83c-.45,2.29-1.7,3.63-3.74,4.01h-6.65c-1.04,0-1.96-.28-2.78-.83-.81-.55-1.41-1.28-1.79-2.18-.14-.28-.24-.62-.31-1.04-.07-.41-.1-.78-.1-1.09,0-1.28,.42-2.36,1.27-3.24,.85-.88,1.91-1.32,3.19-1.32Zm-.57-24.97c0-1.59,.53-2.93,1.58-4.02,1.06-1.09,2.36-1.64,3.92-1.64s2.86,.56,3.92,1.69c1.06,1.13,1.58,2.41,1.58,3.87,0,1.59-.55,2.9-1.66,3.92-1.11,1.02-2.41,1.53-3.89,1.53s-2.77-.52-3.84-1.56c-1.07-1.04-1.61-2.3-1.61-3.79Z" style="fill:url(#uuid-c2cfa433-27a5-4c01-a30f-6a0520c219a0);"/></g></svg>