<svg id="a44613db-c26c-4648-94c7-c5959a90feb9" data-name="Capa 1" xmlns="http://www.w3.org/2000/svg" xmlns:xlink="http://www.w3.org/1999/xlink" viewBox="0 0 199.81 258.29"><defs><radialGradient id="e0d2029c-6673-4dfb-b0ce-2bc9b61493ee" cx="682.69" cy="233.92" fx="584.7300712136602" fy="250.9447616650079" r="195.75" gradientUnits="userSpaceOnUse"><stop offset="0.19" stop-color="#efaa04"/><stop offset="0.57" stop-color="#f2c521"/><stop offset="0.97" stop-color="#f6e746"/></radialGradient></defs><g id="af6c40c0-049f-4c7e-92ea-d66f92d16ce9" data-name="layer1"><path id="a8d11fd1-8a4b-4e0f-8e41-dff785376845" data-name="path140-8" d="M607.53,408a19.25,19.25,0,0,1-2.59-32.61c4.27-3.12,12-3.31,16.49-.39s4.36,0,0-3.46c-4-3.12-4.31-7.12-.75-9s12.48-1.74,14.44.22c1.07,1.07,1.6,7,1.6,18.12,0,14.26-.37,17.12-2.69,20.87-4.81,7.78-17.57,10.81-26.47,6.27Zm13.78-11.4c4.9-3.59,1.74-12.86-4.38-12.86-2.94,0-6.83,4-6.83,7.08,0,3.34,3.67,7.54,6.6,7.54A9.52,9.52,0,0,0,621.31,396.59Zm30,11.27c-9.36-5-13-15.43-8.65-24.64,8.22-17.31,37.87-13.36,37.87,5,0,4.7-3.51,6.1-15.36,6.1-9.24,0-10.05.2-8.45,2.13,1.36,1.64,3.16,1.95,7.67,1.33,6.77-.93,9.5.63,9.5,5.41,0,6.38-14,9.23-22.58,4.62Zm15.93-21.2c0-2-3.18-4.26-6-4.26s-6,2.26-6,4.26c0,.58,2.69,1.06,6,1.06S667.26,387.24,667.26,386.66Zm26.54,20.67c-14-7-13.87-26.09.14-33.24,13.62-6.94,30.48,2.44,30.48,17,0,10.35-9.25,19.27-20,19.28-2.58,0-7.37-1.35-10.63-3Zm16.28-12.39c2.92-6.4-2.06-13.22-8.43-11.55-2.85.75-5.65,7.29-4.57,10.69,1,3.07,5.74,5.44,9.16,4.55A7.17,7.17,0,0,0,710.08,394.94ZM739.14,408a19.25,19.25,0,0,1-2.59-32.61c4.26-3.12,12-3.31,16.49-.39s4.36,0,0-3.46c-4-3.12-4.31-7.12-.76-9s12.49-1.74,14.45.22c1.07,1.07,1.59,7,1.59,18.12,0,14.26-.37,17.12-2.68,20.87C760.8,409.5,748,412.53,739.14,408Zm13.78-11.4c4.9-3.59,1.74-12.86-4.38-12.86-2.94,0-6.83,4-6.83,7.08,0,3.34,3.67,7.54,6.59,7.54A9.55,9.55,0,0,0,752.92,396.59Zm19.63,10.8c-2.47-2.46-1.89-7.5,1.06-9.34,2-1.24,2.66-3.1,2.66-7.28s-.64-6-2.66-7c-3-1.58-3.53-6.57-1.06-9,2.07-2.07,13.35-2.07,15.42,0s2.18,28.06.22,31.73c-1.07,2-2.81,2.57-7.71,2.57-3.49,0-7.06-.72-7.93-1.6Zm4.61-39.7c-3.95-5.63,1.63-12.25,7.92-9.38,3.49,1.59,4.39,7.7,1.56,10.53C784.16,371.32,779.28,370.73,777.16,367.69Z" transform="translate(-597.1 -152.02)" style="fill:#797759"/></g><g id="a930f10d-4f62-4ed4-96ac-3fddda1d04ce" data-name="layer1"><path id="a2356611-e791-4e0a-a273-ca342db697d4" data-name="path224" d="M671,337.62c-11.92-2-25.24-8.84-32.93-17-14.93-15.78-16.64-23.87-16.67-78.58,0-41.35,0-41.35-6.75-43.73-17.82-6.33-23.16-26.14-10.48-38.82,7.54-7.54,11.12-7.92,68.93-7.29,44.21.48,53.51.94,60.33,2.94,31.72,9.32,51.51,29.34,60.32,61,2.25,8.1,3,14.84,3.12,27.29.14,19.42-1.51,27.29-9.13,43.28-9.95,20.9-31.88,38.93-56.17,46.17-18.3,5.45-44,7.45-60.57,4.7Zm47.58-52.3c11-4.11,21.29-14.4,25.35-25.33,2.53-6.79,2.95-10.09,2.36-18.59-1.23-17.76-9.16-30.6-22.89-37-7-3.29-9.45-3.63-28.68-4.06l-21-.47v40.45c0,44.69.1,45.24,8.68,47.9,6.86,2.13,27.14.53,36.19-2.86Z" transform="translate(-597.1 -152.02)" style="fill:url(#e0d2029c-6673-4dfb-b0ce-2bc9b61493ee)"/></g></svg>