<svg width="251" height="251" viewBox="0 0 188.25 188.25" xmlns="http://www.w3.org/2000/svg" xmlns:xlink="http://www.w3.org/1999/xlink" overflow="hidden"><defs><clipPath id="28a6a9fe30"><path d="M9.8125 3.85938 177.891 3.85938 177.891 181.652 9.8125 181.652Z"/></clipPath></defs><g clip-path="url(#28a6a9fe30)"><path d="M171.23 3.87109 87.3086 3.87109 87.3086 30.9961C87.3086 37.3164 82.1641 42.4609 75.8398 42.4609L48.7148 42.4609 48.7148 50.8789C53.3047 48.8984 58.3633 47.8008 63.6758 47.8008 71.6211 47.8008 78.9883 50.25 85.0742 54.4375L139.367 23.0898 132.883 21.8047C131.324 21.5039 130.309 19.9922 130.613 18.4375 130.918 16.8789 132.426 15.8672 133.984 16.168L147.965 18.9375C149.73 19.2812 150.738 21.1406 150.09 22.8047L145.539 36.1719C145.031 37.6719 143.402 38.4766 141.898 37.9688 140.398 37.457 139.594 35.8281 140.105 34.3281L142.238 28.0547 89.8359 58.3125C93.8398 62.1484 96.9961 66.8594 99.0078 72.1367L105.715 72.1367C106.504 72.1367 107.152 72.7852 107.152 73.5742L107.152 112.805C107.152 113.598 106.504 114.242 105.715 114.242L92.5391 114.242C91.75 114.242 91.1016 113.598 91.1016 112.805L91.1016 111.621C87.4688 115.449 83.043 118.516 78.0859 120.562L78.0859 146.469C78.0859 151.695 73.5898 156.203 66.3242 159.258 66.0781 159.363 65.8281 159.465 65.5742 159.562L72.4453 159.562C74.0352 159.562 75.3203 160.852 75.3203 162.438 75.3203 164.027 74.0352 165.312 72.4453 165.312L65.1367 165.312C63.5469 165.312 62.2617 164.027 62.2617 162.438 62.2617 161.688 62.5508 161 63.0234 160.488 58.8672 161.859 54 162.855 48.7188 163.348L48.7188 175.051C48.7188 178.539 51.5625 181.387 55.0508 181.387L171.23 181.387C174.715 181.387 177.562 178.539 177.562 175.051L177.562 10.2031C177.562 6.71875 174.719 3.87109 171.23 3.87109ZM147.152 44.1914C147.152 43.4023 147.797 42.7539 148.59 42.7539L161.762 42.7539C162.555 42.7539 163.199 43.4023 163.199 44.1914L163.199 112.805C163.199 113.598 162.555 114.242 161.762 114.242L148.59 114.242C147.797 114.242 147.152 113.598 147.152 112.805ZM119.129 58.8828C119.129 58.0938 119.773 57.4453 120.566 57.4453L133.738 57.4453C134.531 57.4453 135.176 58.0938 135.176 58.8828L135.176 112.805C135.176 113.598 134.531 114.242 133.738 114.242L120.566 114.242C119.773 114.242 119.129 113.598 119.129 112.805ZM162.754 165.312 86.3711 165.312C84.7812 165.312 83.4961 164.027 83.4961 162.438 83.4961 160.852 84.7812 159.562 86.3711 159.562L162.754 159.562C164.344 159.562 165.629 160.852 165.629 162.438 165.629 164.027 164.344 165.312 162.754 165.312ZM162.754 150.688 86.3711 150.688C84.7812 150.688 83.4961 149.402 83.4961 147.812 83.4961 146.227 84.7812 144.938 86.3711 144.938L162.754 144.938C164.344 144.938 165.629 146.227 165.629 147.812 165.629 149.402 164.344 150.688 162.754 150.688ZM162.754 136.062 86.3711 136.062C84.7812 136.062 83.4961 134.777 83.4961 133.188 83.4961 131.602 84.7812 130.312 86.3711 130.312L162.754 130.312C164.344 130.312 165.629 131.602 165.629 133.188 165.629 134.777 164.344 136.062 162.754 136.062ZM75.8398 36.7148 49.2656 36.7148C49.5742 36.0391 50.0078 35.4219 50.5703 34.8594L79.7031 5.72656C80.2656 5.16406 80.8867 4.72656 81.5586 4.41797L81.5586 30.9961C81.5586 34.1445 78.9883 36.7148 75.8398 36.7148ZM64.0977 153.98C51.4961 159.281 30.6445 159.281 18.0391 153.98 12.9492 151.84 9.80078 149.168 9.80078 146.469L9.80078 138.68C11.8164 140.129 14.293 141.414 17.1328 142.484 30.9297 147.695 51.582 147.676 65.3203 142.324 68.0352 141.27 70.4023 140.016 72.3359 138.605L72.3359 146.469C72.3359 149.168 69.1875 151.84 64.0977 153.98ZM63.6758 117.66C81.3789 117.66 95.7305 103.309 95.7305 85.6016 95.7305 67.8984 81.3789 53.5469 63.6758 53.5469 45.9727 53.5469 31.6211 67.8984 31.6211 85.6016 31.6211 103.309 45.9727 117.66 63.6758 117.66ZM63.6758 63.25C76.0195 63.25 86.0312 73.2578 86.0312 85.6016 86.0312 97.9492 76.0234 107.957 63.6758 107.957 51.332 107.957 41.3242 97.9492 41.3242 85.6016 41.3242 73.2578 51.332 63.25 63.6758 63.25ZM9.80078 130.117 9.80078 121.34C11.8164 122.789 14.293 124.074 17.1328 125.145 30.9297 130.355 51.582 130.336 65.3242 124.984 66.9219 124.363 68.3984 123.672 69.7383 122.922 70.6172 122.781 71.4805 122.609 72.3359 122.41L72.3359 129.773C71.7891 132.422 68.4141 134.969 63.2578 136.98 50.8711 141.801 31.5898 141.812 19.1562 137.117 14.0312 135.184 10.5898 132.715 9.80078 130.117ZM55.2344 80.5938C55.2344 77.1328 57.5117 74.0742 60.8008 73.0586L60.8008 72.3047C60.8008 70.7188 62.0898 69.4297 63.6758 69.4297 65.2656 69.4297 66.5508 70.7188 66.5508 72.3047L66.5508 72.9414C68.3555 73.3906 69.9883 74.4805 71.0781 75.9883 72.0078 77.2695 71.7227 79.0664 70.4375 79.9961 69.1562 80.9258 67.3594 80.6406 66.4297 79.3555 66.0078 78.7734 65.4141 78.4609 64.6953 78.4609L63.1172 78.4609C61.9492 78.4609 60.9844 79.4297 60.9844 80.5938 60.9844 81.7617 61.9492 82.7305 63.1172 82.7305L64.2383 82.7305C68.5781 82.7305 72.1211 86.2695 72.1211 90.6133 72.1211 94.0742 69.8438 97.1328 66.5508 98.1484L66.5508 98.9023C66.5508 100.488 65.2656 101.777 63.6758 101.777 62.0898 101.777 60.8008 100.488 60.8008 98.9023L60.8008 98.2656C58.9961 97.8164 57.3672 96.7305 56.2734 95.2188 55.3438 93.9375 55.6328 92.1406 56.9141 91.2109 58.1992 90.2812 59.9922 90.5664 60.9219 91.8516 61.3438 92.4336 61.9414 92.7461 62.6602 92.7461L64.2383 92.7461C65.4062 92.7461 66.3711 91.7812 66.3711 90.6133 66.3711 89.4453 65.4062 88.4805 64.2383 88.4805L63.1172 88.4805C58.7734 88.4766 55.2344 84.9375 55.2344 80.5938ZM9.80078 112.777 9.80078 104C11.8164 105.449 14.293 106.734 17.1328 107.805 22.3672 109.781 28.9414 111.121 36.1758 111.539 40.9453 116.594 47.0938 120.336 54.0156 122.16 43.2031 124.105 29.3945 123.645 19.1562 119.777 14.0312 117.844 10.5898 115.375 9.80078 112.777ZM9.80078 95.4375 9.80078 86.582C11.4922 87.8203 13.5156 88.9336 15.8164 89.8984 18.9219 91.207 22.5742 92.2734 26.6055 93.0352 27.4883 97.4648 29.1445 101.613 31.4297 105.34 26.8047 104.754 22.6289 103.75 19.1562 102.438 14.0312 100.504 10.5898 98.0352 9.80078 95.4375ZM9.80078 77.1094C9.80078 70.4258 26.0078 66.9336 31.1953 66.2539 27.8164 71.9141 25.8711 78.5312 25.8711 85.6016 25.8711 86.0859 25.8867 86.5664 25.9023 87.0469 21.3477 86.0469 9.80078 82.543 9.80078 77.1094Z" fill="#FE6148"/></g></svg>