<svg id="ac05a448-6e87-444a-aa31-889717f2d812" data-name="Capa 1" xmlns="http://www.w3.org/2000/svg" viewBox="0 0 260.91 257.21"><path d="M1455.82,529a177.94,177.94,0,0,0-27.18-2.87c-11.42-.47-19.44,0-24.54,1.56s-13.26,6.22-25,14.39c-11.34,7.91-26.48,20.87-45,38.54s-35.06,35-49.44,51.7c-12.89,14.95-26.3,31.52-40,49.33a2,2,0,0,0-.14-.25,52.53,52.53,0,0,0-3.79,4.12c-.12.14-.21.29-.33.43-13.17,15.75-31.49,44.82-25.39,67.26.32.59.63,1.19,1,1.81,2.1,1.23,4.14,2.56,6.12,4,2.51.92,5,1.86,7.54,2.75,2.57.2,5.14.46,7.72.62a118.77,118.77,0,0,0,38.51-11.69c2.12-1.9,4.07-3.91,6.23-5.73l.45-.67c21.81-33.07,49.17-66.74,81.31-100.1s61.93-58.37,88.75-74.61c6.56-3.9,10.66-6.78,12.91-9.1a19.23,19.23,0,0,0,5-9.76,17.82,17.82,0,0,0-2.53-13.69A18.23,18.23,0,0,0,1455.82,529Z" transform="translate(-1210.09 -525.98)" style="fill:#151719"/><path d="M1419.73,695.73c-7.53-10.8-19.87-25.2-36.68-42.8s-33.31-33.36-49.21-47c-13.53-11.66-28.48-23.78-44.48-36.1a6.65,6.65,0,0,1-2.73-1.7c-13.51-13.46-28.36-20.6-46-27.43a7.85,7.85,0,0,1-1.5-.8c-7.44-1.79-14.8-2.09-21.51,0a17.53,17.53,0,0,0-2.5,1.56q-2,5.28-3.87,10.63c-.18,1-.41,2-.67,3-.16,2-.36,3.92-.48,5.89a114.17,114.17,0,0,0,9.17,32.55,57.06,57.06,0,0,0,6.28,9.28c.59.39,1.14.77,1.78,1.18,31.46,20.77,63.51,46.8,95.26,77.39s55.55,58.93,71,84.46c3.71,6.24,6.46,10.15,8.66,12.29a18.35,18.35,0,0,0,9.29,4.76,16.94,16.94,0,0,0,13-2.41,17.37,17.37,0,0,0,7.62-11.65,168.65,168.65,0,0,0,2.72-25.86c.45-10.87,0-18.51-1.48-23.36S1427.5,706.9,1419.73,695.73Z" transform="translate(-1210.09 -525.98)" style="fill:#151719"/></svg>