<svg id="a0c68c01-8e29-4ebe-b1da-cb798d1b51b1" data-name="Capa 1" xmlns="http://www.w3.org/2000/svg" xmlns:xlink="http://www.w3.org/1999/xlink" viewBox="0 0 175.68 246.57"><defs><linearGradient id="be44cf23-f7e6-401f-b013-13e592864a3f" x1="62.14" y1="88.07" x2="113.14" y2="88.07" gradientUnits="userSpaceOnUse"><stop offset="0.05" stop-color="#a09682"/><stop offset="0.23" stop-color="#9c9079"/><stop offset="0.36" stop-color="#978970"/><stop offset="0.45" stop-color="#a1947b"/><stop offset="0.62" stop-color="#bdb19a"/><stop offset="0.84" stop-color="#eae0cb"/><stop offset="0.9" stop-color="#f6ecd8"/></linearGradient><linearGradient id="ff0c42e1-8eb0-43ba-93ce-b3eba7ba51d3" x1="827.84" y1="643.36" x2="933.56" y2="643.36" xlink:href="#be44cf23-f7e6-401f-b013-13e592864a3f"/></defs><circle cx="87.64" cy="88.07" r="25.5" style="fill:url(#be44cf23-f7e6-401f-b013-13e592864a3f)"/><path d="M942.64,702.46l5.51,6.13a2.52,2.52,0,0,0,3.91-.17,87.79,87.79,0,0,0-71.36-139,91.12,91.12,0,0,0-10,.56c-40.42,4.5-72.92,37.13-77.29,77.58a87.62,87.62,0,0,0,16,60.85,2.53,2.53,0,0,0,3.92.17l5.5-6.12a2.51,2.51,0,0,0,.18-3.11,74.8,74.8,0,1,1,123.52,0A2.51,2.51,0,0,0,942.64,702.46Z" transform="translate(-792.86 -569.43)" style="fill:#151719"/><path d="M918,675l5.83,6.48a2.54,2.54,0,0,0,4.16-.56,52.09,52.09,0,0,0,5.62-23.63,53.08,53.08,0,0,0-42-51.73,52.81,52.81,0,0,0-58.09,75.36,2.55,2.55,0,0,0,4.17.56l5.82-6.48a2.53,2.53,0,0,0,.44-2.67,39.48,39.48,0,0,1-3-15,39.81,39.81,0,1,1,76.63,15A2.55,2.55,0,0,0,918,675Z" transform="translate(-792.86 -569.43)" style="fill:url(#ff0c42e1-8eb0-43ba-93ce-b3eba7ba51d3)"/><path d="M892.91,661.27a10.75,10.75,0,0,0-10.76-10.75h-.77a13.65,13.65,0,0,0-13.65,13.65l-.58,18.41-1.28,40.58c-.29,1.25-.46,29.46-.46,29.46-2.38-2.43-5-5.21-7.42-7.88-5.57-6.21-15.8-10.39-22.6-11.17-3.58-.41-6.32.08-8.14,1.45a17.9,17.9,0,0,0-1.69,1.48c-3.51,3.46-6.15,9-3.7,13.13,1.06,1.79,2.88,3,4.81,4.22,2.56,1.66,6.88,3.46,10.12,7.6,5.44,6.95,18,22.5,25.76,30.79,1.61,1,5,4.4,6.62,5.26,4.88,3.12,8.87,6,10.25,7.64,1.08,1.24,7.47,4.51,7.47,4.51,5.16,3.27,14.57,6.33,25.43,6.33s20.68.65,28-5.75h.39l.19-.49a35.92,35.92,0,0,0,12-26.56V733.51c0-2.44-.54-10.6-7.4-13a12.13,12.13,0,0,0-9.07.42l-.62,0h-.19c-1.19-4.48-4.17-7.38-8.58-8.15a14.37,14.37,0,0,0-11.24,2.28c-2.2-4.74-6.62-7.21-12.61-6.71a14.67,14.67,0,0,0-10.25,5.49V661.27Z" transform="translate(-792.86 -569.43)" style="fill:#151719"/></svg>