<svg id="b2a4bb36-0680-4d50-a53c-fda761d71bdc" data-name="Capa 1" xmlns="http://www.w3.org/2000/svg" xmlns:xlink="http://www.w3.org/1999/xlink" viewBox="0 0 318.26 283.33"><defs><linearGradient id="f43ddd29-da28-4eda-9891-a974efcf90da" x1="841.44" y1="742.76" x2="1082.35" y2="742.76" gradientUnits="userSpaceOnUse"><stop offset="0.05" stop-color="#a09682"/><stop offset="0.23" stop-color="#9c9079"/><stop offset="0.36" stop-color="#978970"/><stop offset="0.45" stop-color="#a1947b"/><stop offset="0.62" stop-color="#bdb19a"/><stop offset="0.84" stop-color="#eae0cb"/><stop offset="0.9" stop-color="#f6ecd8"/></linearGradient></defs><path d="M1053.25,642.49c-17.2-15.92-42.87-26.66-70-27.2l-.64,100Z" transform="translate(-780.62 -587.57)" style="fill:#151719"/><path d="M964.49,614.62c-70.78,0-123,57.37-123,128.14A128.13,128.13,0,0,0,969.58,870.9c49.62,0,95.77-29.3,112.77-67.11l-115.29-61V614.68C966.2,614.67,965.35,614.62,964.49,614.62Z" transform="translate(-780.62 -587.57)" style="fill:url(#f43ddd29-da28-4eda-9891-a974efcf90da)"/><polygon points="249.92 100.85 231.37 159.97 242.07 165.71 268.38 81.89 249.92 100.85" style="fill:#151719"/><polygon points="226 125.44 217.49 152.54 228.19 158.28 244.46 106.47 226 125.44" style="fill:#151719"/><path d="M1082.63,677.41l-29,92.44,10.71,5.73,26-82.7A120.84,120.84,0,0,0,1082.63,677.41Z" transform="translate(-780.62 -587.57)" style="fill:#151719"/><path d="M1092.31,698.22l-24.81,79.06,10.7,5.73,19.6-62.43A113.8,113.8,0,0,0,1092.31,698.22Z" transform="translate(-780.62 -587.57)" style="fill:#151719"/><path d="M1098.88,735.49q0-3-.17-6l-17.34,55.23,6.29,3.37C1095.69,772.51,1098.88,754.22,1098.88,735.49Z" transform="translate(-780.62 -587.57)" style="fill:#151719"/><path d="M1064.4,653.64l-9.92,10.2L1025.87,755l10.7,5.73,32.17-102.45C1067.32,656.68,1065.88,655.13,1064.4,653.64Z" transform="translate(-780.62 -587.57)" style="fill:#151719"/><polygon points="205.74 146.25 214.32 150.84 220.53 131.06 205.74 146.25" style="fill:#151719"/><path d="M1071.45,661.4l-31.71,101,10.71,5.73,29.74-94.74A122.54,122.54,0,0,0,1071.45,661.4Z" transform="translate(-780.62 -587.57)" style="fill:#151719"/><path d="M1078.34,675.18A13.74,13.74,0,0,0,1093,662.47l4-56.43a13.71,13.71,0,0,0-12.71-14.67L1032,587.61a13.73,13.73,0,1,0-2,27.38l18.08,1.3L943.36,723.42l2-34.33A13.73,13.73,0,0,0,921.8,678.7L784.55,819a13.72,13.72,0,1,0,19.62,19.19L915.8,724.09l-2,34.33a13.73,13.73,0,0,0,23.52,10.39l130.05-132.95-1.77,24.65A13.73,13.73,0,0,0,1078.34,675.18Z" transform="translate(-780.62 -587.57)" style="fill:#151719"/></svg>