<svg id="e97c54d5-91cb-4bb0-ace5-629f07ebc247" data-name="Capa 1" xmlns="http://www.w3.org/2000/svg" xmlns:xlink="http://www.w3.org/1999/xlink" viewBox="0 0 324.47 253.4"><defs><linearGradient id="a6aadb9e-6f33-4cd9-88b5-300ed87ecffe" x1="150.19" y1="777.04" x2="206.92" y2="777.04" gradientUnits="userSpaceOnUse"><stop offset="0.05" stop-color="#a09682"/><stop offset="0.23" stop-color="#9c9079"/><stop offset="0.36" stop-color="#978970"/><stop offset="0.45" stop-color="#a1947b"/><stop offset="0.62" stop-color="#bdb19a"/><stop offset="0.84" stop-color="#eae0cb"/><stop offset="0.9" stop-color="#f6ecd8"/></linearGradient><linearGradient id="a28b038e-3ccb-4e81-a47d-3ea4c708ffcd" x1="-26.02" y1="698.75" x2="82.62" y2="698.75" xlink:href="#a6aadb9e-6f33-4cd9-88b5-300ed87ecffe"/></defs><path d="M163.55,752.89A28.76,28.76,0,0,0,153.76,791a28.41,28.41,0,1,0,9.79-38.11Z" transform="translate(70.85 -599.6)" style="fill:url(#a6aadb9e-6f33-4cd9-88b5-300ed87ecffe)"/><path d="M122.58,730.66a98.24,98.24,0,0,0,4.86-23.4l-16.13-7.81q0-3.93-.31-7.9c-.07-.91-.19-1.81-.29-2.72l15.17-9.59a97.79,97.79,0,0,0-7.42-22.69l-17.93,1.3a80.69,80.69,0,0,0-5.82-8.91l8.34-15.87a100.2,100.2,0,0,0-17.8-15.93L70.39,627.21a87.09,87.09,0,0,0-9.49-4.82l-.71-17.91a99.09,99.09,0,0,0-23.38-4.88L29,615.74c-2.61,0-5.23.08-7.89.31-.92.08-1.83.2-2.73.3L8.8,601.16a99,99,0,0,0-22.71,7.44l1.3,17.92a79.23,79.23,0,0,0-8.9,5.83L-37.39,624a98.77,98.77,0,0,0-15.92,17.82l10.08,14.85a82.78,82.78,0,0,0-4.83,9.48l-17.92.7a98.74,98.74,0,0,0-4.87,23.4l16.14,7.82c0,2.61.07,5.24.3,7.89.08.92.2,1.81.32,2.72l-15.2,9.59A99.28,99.28,0,0,0-61.85,741l17.91-1.3a84.24,84.24,0,0,0,5.83,8.91l-8.34,15.87a99.81,99.81,0,0,0,17.8,15.93l14.86-10.08a81.34,81.34,0,0,0,9.49,4.83L-3.6,793a99.09,99.09,0,0,0,23.38,4.88l7.84-16.15c2.6,0,5.24-.07,7.89-.3.91-.07,1.81-.2,2.71-.31l9.58,15.21a99.75,99.75,0,0,0,22.71-7.43L69.22,771a87.88,87.88,0,0,0,8.9-5.83L94,773.51a100.14,100.14,0,0,0,15.92-17.8L99.84,740.85a88.07,88.07,0,0,0,4.83-9.49ZM28.3,757.26a58.51,58.51,0,1,1,58.51-58.5A58.57,58.57,0,0,1,28.3,757.26Z" transform="translate(70.85 -599.6)" style="fill:#151719"/><path d="M-26,698.76A54.32,54.32,0,1,0,28.3,644.43,54.38,54.38,0,0,0-26,698.76Zm95.2-3.57a41,41,0,1,1-44.45-37.32A41,41,0,0,1,69.18,695.19Z" transform="translate(70.85 -599.6)" style="fill:url(#a28b038e-3ccb-4e81-a47d-3ea4c708ffcd)"/><path d="M253.26,785.19a75.59,75.59,0,0,0-.17-16.33l-12.67-3a65.83,65.83,0,0,0-2.79-9.88l9.29-9.16a73.91,73.91,0,0,0-3.79-7.27,72.94,72.94,0,0,0-4.54-6.79l-12.5,3.73a61.38,61.38,0,0,0-7.33-7.19l3.46-12.57a75.87,75.87,0,0,0-14.23-8l-9,9.49a64.51,64.51,0,0,0-9.92-2.56L185.78,703a74.69,74.69,0,0,0-16.3.2l-3,12.66a63.31,63.31,0,0,0-9.86,2.79l-9.17-9.28a72.63,72.63,0,0,0-7.26,3.77,75.75,75.75,0,0,0-6.8,4.53l3.72,12.52a63.57,63.57,0,0,0-7.18,7.32L117.31,734a75.15,75.15,0,0,0-8,14.21l9.48,9a65.61,65.61,0,0,0-2.54,9.92l-12.63,3.31a76.23,76.23,0,0,0,.17,16.33l12.69,3a66.49,66.49,0,0,0,2.76,9.89L110,808.86a71.09,71.09,0,0,0,3.76,7.24,77.46,77.46,0,0,0,4.54,6.81l12.52-3.73a64.47,64.47,0,0,0,7.32,7.19l-3.44,12.57a74.79,74.79,0,0,0,14.2,8l9-9.48a61.45,61.45,0,0,0,9.92,2.55l3.31,12.64a76.16,76.16,0,0,0,16.32-.18l3-12.68a62.31,62.31,0,0,0,9.87-2.78l9.2,9.28a73.35,73.35,0,0,0,14-8.31l-3.72-12.5a64.47,64.47,0,0,0,7.19-7.32l12.57,3.44a74.87,74.87,0,0,0,8-14.21l-9.48-9a63.91,63.91,0,0,0,2.55-9.9Zm-75.85,41.19A48.58,48.58,0,1,1,227,778.83,48.62,48.62,0,0,1,177.41,826.38Z" transform="translate(70.85 -599.6)" style="fill:#151719"/></svg>