<svg id="ff4e7016-ec98-493f-9845-e55c7989d03e" data-name="Capa 1" xmlns="http://www.w3.org/2000/svg" xmlns:xlink="http://www.w3.org/1999/xlink" viewBox="0 0 206.84 229.79"><defs><linearGradient id="b2afb7e6-200c-4f11-9f8a-ee7c6159875b" x1="1136.16" y1="624.31" x2="1343" y2="624.31" gradientUnits="userSpaceOnUse"><stop offset="0.15" stop-color="#a09682"/><stop offset="0.47" stop-color="#9c9079"/><stop offset="0.68" stop-color="#978970"/><stop offset="0.82" stop-color="#998b72"/><stop offset="0.87" stop-color="#9f9179"/><stop offset="0.91" stop-color="#aa9c84"/><stop offset="0.94" stop-color="#b9ad95"/><stop offset="0.97" stop-color="#cdc2ab"/><stop offset="0.99" stop-color="#e6dbc6"/><stop offset="1" stop-color="#f6ecd8"/></linearGradient></defs><g id="ecc0ad5a-5925-4129-8bce-7ea98857b74e" data-name="350. Repeat"><path d="M1187.75,688.74a82.67,82.67,0,0,1,31.15-144.51V522.92a103.41,103.41,0,0,0-47.67,178.93C1187.87,717.35,1198.21,696.66,1187.75,688.74Zm119.3-142.81c-10.59-9.57-26.1,5.94-15.93,13.63a82.65,82.65,0,0,1-30.86,144.73v21.32a103.4,103.4,0,0,0,46.79-179.68Zm-79,16.17L1261.7,542c4.9-2.94,4.91-7.71,0-10.67l-34-20.56c-4.89-3-8.83-.73-8.81,5l.18,41.37C1219.14,562.78,1223.13,565,1228,562.1Zm23.38,124.43-34,20.56c-4.88,3-4.87,7.73,0,10.67l33.67,20.15c4.89,2.94,8.89.69,8.92-5l.18-41.36C1260.24,685.81,1256.29,683.58,1251.42,686.53Z" transform="translate(-1136.16 -509.41)" style="fill:url(#b2afb7e6-200c-4f11-9f8a-ee7c6159875b)"/></g></svg>