<svg xmlns="http://www.w3.org/2000/svg" xmlns:xlink="http://www.w3.org/1999/xlink" viewBox="0 0 184.71 227.23"><defs><filter id="b2e416b2-f962-4c8b-aa43-e6d33396d50f" x="510.16" y="-8704" width="37.56" height="32766" filterUnits="userSpaceOnUse" color-interpolation-filters="sRGB"><feFlood flood-color="#fff" result="bg"/><feBlend in="SourceGraphic" in2="bg"/></filter><mask id="bd90a427-08be-47f9-84ce-e030a8748230" x="510.16" y="-8704" width="37.56" height="32766" maskUnits="userSpaceOnUse"><g style="filter:url(#b2e416b2-f962-4c8b-aa43-e6d33396d50f)"/></mask><linearGradient id="a6112470-ef57-4528-8eb6-5c1e71936226" x1="508.82" y1="640.52" x2="550.92" y2="718.5" gradientUnits="userSpaceOnUse"><stop offset="0.21" stop-color="gray"/><stop offset="0.6" stop-color="gray"/></linearGradient><linearGradient id="fe47dde8-f7ce-4af1-a762-32ad98314bf2" x1="561.41" y1="684.1" x2="348.14" y2="932.54" gradientTransform="translate(51.77 -62.5) rotate(0.52)" gradientUnits="userSpaceOnUse"><stop offset="0.05" stop-color="#a09682"/><stop offset="0.23" stop-color="#9c9079"/><stop offset="0.36" stop-color="#978970"/><stop offset="0.45" stop-color="#a1947b"/><stop offset="0.62" stop-color="#bdb19a"/><stop offset="0.84" stop-color="#eae0cb"/><stop offset="0.9" stop-color="#f6ecd8"/></linearGradient><filter id="a35ff1b0-b8d9-433d-be32-1d9a618dd099" x="510.16" y="653.46" width="37.56" height="49.27" filterUnits="userSpaceOnUse" color-interpolation-filters="sRGB"><feFlood flood-color="#fff" result="bg"/><feBlend in="SourceGraphic" in2="bg"/></filter><mask id="b890a8c4-4622-4cc8-9c34-821b96af8e0e" x="86.16" y="40.55" width="37.56" height="49.27" maskUnits="userSpaceOnUse"><g style="filter:url(#a35ff1b0-b8d9-433d-be32-1d9a618dd099)"><g transform="translate(-424 -612.91)"><g style="mask:url(#bd90a427-08be-47f9-84ce-e030a8748230)"><path d="M510.42,660.93c-.85,4.16.32,10.39,4.66,22.93s7,30,26.51,9.27c19.16-20.39-12.09-35-19.26-38.3C513.34,650.73,511.26,656.76,510.42,660.93Z" style="mix-blend-mode:multiply;fill:url(#a6112470-ef57-4528-8eb6-5c1e71936226)"/></g></g></g></mask><linearGradient id="bc36e90f-247a-4def-b34c-021862414b9c" x1="508.82" y1="640.52" x2="550.92" y2="718.5" gradientUnits="userSpaceOnUse"><stop offset="0.21" stop-color="#babcbe"/><stop offset="0.31" stop-color="#d5d6d8"/><stop offset="0.42" stop-color="#eceded"/><stop offset="0.52" stop-color="#fafafa"/><stop offset="0.6" stop-color="#fff"/></linearGradient><linearGradient id="f3c6bafc-5412-4beb-b24f-f584f220546f" x1="494.96" y1="630.02" x2="517.25" y2="661.04" gradientUnits="userSpaceOnUse"><stop offset="0.53" stop-color="#272425"/><stop offset="0.98" stop-color="#babcbe"/></linearGradient><linearGradient id="ab19ee59-7f5f-4d85-8326-3da28e1cb58c" x1="348.37" y1="466.94" x2="346.46" y2="462.26" gradientTransform="translate(-25.45 373.92) rotate(-27.62)" gradientUnits="userSpaceOnUse"><stop offset="0" stop-color="#fff"/><stop offset="1"/></linearGradient><linearGradient id="fb1f5ef4-28cb-467f-ba2d-b39147f38339" x1="311.89" y1="410.8" x2="309.98" y2="406.12" gradientTransform="translate(14.22 525.87) rotate(-39.32)" xlink:href="#ab19ee59-7f5f-4d85-8326-3da28e1cb58c"/></defs><g style="isolation:isolate"><g id="a9c6436c-8e7c-41e9-b987-56d024f9b4d2" data-name="Capa 1"><path d="M425.21,634l183,1.62s.69,168.46.39,189.72c0,0-63.62,14.8-87.63,14.81s-97-15-97-15Z" transform="translate(-424 -612.91)" style="fill:url(#fe47dde8-f7ce-4af1-a762-32ad98314bf2)"/><g style="mask:url(#b890a8c4-4622-4cc8-9c34-821b96af8e0e)"><path d="M510.42,660.93c-.85,4.16.32,10.39,4.66,22.93s7,30,26.51,9.27c19.16-20.39-12.09-35-19.26-38.3C513.34,650.73,511.26,656.76,510.42,660.93Z" transform="translate(-424 -612.91)" style="mix-blend-mode:multiply;fill:url(#bc36e90f-247a-4def-b34c-021862414b9c)"/></g><path d="M516.56,657.8a2.51,2.51,0,0,1-.85,1.82,1.85,1.85,0,0,1-1.93,0l-7.73-10.41,3.76-2.28Z" transform="translate(-424 -612.91)" style="fill:url(#f3c6bafc-5412-4beb-b24f-f584f220546f)"/><path d="M507.72,649.8c-6.42,3.37-13.63,2.55-17.15-1.64a7.79,7.79,0,0,0,.75,2.07c2.74,5.26,10.79,6.47,18,2.72s10.76-11.05,8-16.31a7.67,7.67,0,0,0-1-1.48C517.43,640.35,514,646.52,507.72,649.8Z" transform="translate(-424 -612.91)" style="fill:#303133"/><path d="M507.72,649.86c6.27-3.28,9.71-9.45,8.54-14.64-3.39-4-10.5-4.6-16.93-1.23-6.27,3.28-9.8,9.27-8.76,14.23C494.09,652.4,501.3,653.23,507.72,649.86Z" transform="translate(-424 -612.91)" style="fill:#151719"/><path d="M486.92,626.2s4.37,3.87,7.67,15.2c0,0,3.29,3.51,8.75.42s4.17-7.4,4.17-7.4-8.8-9.94-8.94-15.58C498.57,618.84,488.87,621.1,486.92,626.2Z" transform="translate(-424 -612.91)" style="fill:#151719"/><path d="M501.65,616.35c2,3.76-.73,9-6,11.81s-11.18,2-13.14-1.79.73-9,6-11.81S499.69,612.59,501.65,616.35Z" transform="translate(-424 -612.91)" style="fill:#303133"/><path d="M501.52,616.07c1.6,3-1.4,7.77-6.69,10.53s-10.87,2.54-12.46-.51.86-8.76,6.15-11.53S499.93,613,501.52,616.07Z" transform="translate(-424 -612.91)" style="fill:#151719"/><path d="M498.46,614.27c1.07,2.05-2.19,5.79-6,7.77s-8.77,2.38-9.84.34,1.9-5.55,5.7-7.53S497.39,612.23,498.46,614.27Z" transform="translate(-424 -612.91)" style="fill:#151719"/><path d="M491.67,627.93a29.07,29.07,0,0,0,6.47-3.93,11.91,11.91,0,0,0,3.58-4.68S500.94,624.67,491.67,627.93Z" transform="translate(-424 -612.91)" style="fill:url(#ab19ee59-7f5f-4d85-8326-3da28e1cb58c)"/><path d="M508.27,649.41a29.23,29.23,0,0,0,5.53-5.16,12,12,0,0,0,2.56-5.31S516.68,644.33,508.27,649.41Z" transform="translate(-424 -612.91)" style="fill:url(#fb1f5ef4-28cb-467f-ba2d-b39147f38339)"/><path d="M512.42,634.48c1.17.25,0,3-.41,4.23s-1.81,4.33-2.3,4.15,0-3.45.43-4.69S511,634.18,512.42,634.48Z" transform="translate(-424 -612.91)" style="fill:#fff"/><path d="M509.43,643.19c.16.06.05.84-.1,1.24s-.6,1.43-.76,1.37.09-1,.23-1.46S509.27,643.13,509.43,643.19Z" transform="translate(-424 -612.91)" style="fill:#fff"/><path d="M500.39,616.79c.16.06.05.84-.1,1.24s-.6,1.43-.76,1.37.09-1,.23-1.46S500.23,616.73,500.39,616.79Z" transform="translate(-424 -612.91)" style="fill:#fff"/><path d="M499.41,619.69c.09,0,0,.49-.06.72s-.35.83-.44.8,0-.61.13-.85S499.31,619.66,499.41,619.69Z" transform="translate(-424 -612.91)" style="fill:#fff"/></g></g></svg>