<svg xmlns="http://www.w3.org/2000/svg" xmlns:xlink="http://www.w3.org/1999/xlink" width="251" zoomAndPan="magnify" viewBox="0 0 188.25 188.250001" height="251" preserveAspectRatio="xMidYMid meet" version="1.0"><defs><clipPath id="1679ae5ae5"><path d="M 87 5.847656 L 100 5.847656 L 100 13 L 87 13 Z M 87 5.847656 " clip-rule="nonzero"/></clipPath><clipPath id="6c4f425dc5"><path d="M 12.175781 12 L 175.027344 12 L 175.027344 181.398438 L 12.175781 181.398438 Z M 12.175781 12 " clip-rule="nonzero"/></clipPath></defs><g clip-path="url(#1679ae5ae5)"><path fill="#f72a2b" d="M 90.5625 5.847656 C 88.835938 5.847656 87.425781 7.257812 87.425781 8.984375 L 87.425781 12.117188 L 93.695312 12.117188 C 95.789062 12.117188 97.898438 12.214844 99.964844 12.375 L 99.964844 8.984375 C 99.964844 7.257812 98.558594 5.847656 96.832031 5.847656 L 90.5625 5.847656 " fill-opacity="1" fill-rule="nonzero"/></g><path fill="#f72a2b" d="M 106.234375 115.566406 C 106.234375 109.738281 102.21875 104.878906 96.832031 103.46875 L 96.832031 127.667969 C 102.21875 126.257812 106.234375 121.394531 106.234375 115.566406 " fill-opacity="1" fill-rule="nonzero"/><path fill="#f72a2b" d="M 90.5625 72.121094 C 85.171875 73.527344 81.15625 78.390625 81.15625 84.21875 C 81.15625 90.046875 85.171875 94.910156 90.5625 96.316406 L 90.5625 72.121094 " fill-opacity="1" fill-rule="nonzero"/><g clip-path="url(#6c4f425dc5)"><path fill="#f72a2b" d="M 12.191406 99.894531 C 12.191406 144.847656 48.742188 181.398438 93.695312 181.398438 C 138.648438 181.398438 175.203125 144.847656 175.203125 99.894531 C 175.203125 77.421875 166.054688 57.046875 151.3125 42.277344 C 136.542969 27.535156 116.167969 18.386719 93.695312 18.386719 L 24.730469 18.386719 C 23.003906 18.386719 21.59375 16.980469 21.59375 15.253906 L 21.59375 12.496094 C 21.59375 12.375 21.558594 12.214844 21.410156 12.15625 L 12.535156 21.242188 C 12.410156 21.339844 12.3125 21.460938 12.289062 21.523438 C 12.351562 21.621094 12.410156 21.707031 12.535156 21.828125 L 21.253906 30.867188 C 21.558594 30.828125 21.59375 30.671875 21.59375 30.546875 L 21.59375 27.792969 C 21.59375 26.066406 23.003906 24.65625 24.730469 24.65625 L 93.695312 24.65625 C 135.171875 24.65625 168.933594 58.417969 168.933594 99.894531 C 168.933594 141.367188 135.171875 175.128906 93.695312 175.128906 C 52.222656 175.128906 18.460938 141.367188 18.460938 99.894531 C 18.460938 69.070312 37.085938 42.558594 63.660156 30.925781 L 50.3125 30.925781 C 26.421875 45.941406 12.191406 71.644531 12.191406 99.894531 " fill-opacity="1" fill-rule="nonzero"/></g><path fill="#f72a2b" d="M 34.132812 96.757812 L 40.402344 96.757812 C 42.132812 96.757812 43.539062 98.167969 43.539062 99.894531 C 43.539062 101.621094 42.132812 103.027344 40.402344 103.027344 L 34.132812 103.027344 C 32.40625 103.027344 31 101.621094 31 99.894531 C 31 98.167969 32.40625 96.757812 34.132812 96.757812 Z M 49.367188 139.789062 L 53.800781 135.355469 C 55.023438 134.132812 57.007812 134.132812 58.234375 135.355469 C 59.457031 136.582031 59.457031 138.566406 58.234375 139.789062 L 53.800781 144.222656 C 53.1875 144.835938 52.378906 145.140625 51.585938 145.140625 C 50.777344 145.140625 49.980469 144.835938 49.367188 144.222656 C 48.144531 142.996094 48.144531 141.011719 49.367188 139.789062 Z M 49.367188 55.566406 C 50.59375 54.339844 52.578125 54.339844 53.800781 55.566406 L 58.234375 59.996094 C 59.457031 61.222656 59.457031 63.207031 58.234375 64.429688 C 57.621094 65.042969 56.8125 65.347656 56.015625 65.347656 C 55.210938 65.347656 54.414062 65.042969 53.800781 64.429688 L 49.367188 59.996094 C 48.144531 58.773438 48.144531 56.789062 49.367188 55.566406 Z M 74.886719 84.21875 C 74.886719 74.914062 81.683594 67.199219 90.5625 65.691406 L 90.5625 62.277344 C 90.5625 60.546875 91.96875 59.140625 93.695312 59.140625 C 95.421875 59.140625 96.832031 60.546875 96.832031 62.277344 L 96.832031 65.691406 C 105.710938 67.199219 112.503906 74.914062 112.503906 84.21875 C 112.503906 85.945312 111.097656 87.355469 109.371094 87.355469 C 107.644531 87.355469 106.234375 85.945312 106.234375 84.21875 C 106.234375 78.390625 102.21875 73.527344 96.832031 72.121094 L 96.832031 97.039062 C 105.710938 98.546875 112.503906 106.261719 112.503906 115.566406 C 112.503906 124.875 105.710938 132.589844 96.832031 134.09375 L 96.832031 137.511719 C 96.832031 139.238281 95.421875 140.644531 93.695312 140.644531 C 91.96875 140.644531 90.5625 139.238281 90.5625 137.511719 L 90.5625 134.09375 C 81.683594 132.589844 74.886719 124.875 74.886719 115.566406 C 74.886719 113.839844 76.296875 112.433594 78.023438 112.433594 C 79.75 112.433594 81.15625 113.839844 81.15625 115.566406 C 81.15625 121.394531 85.171875 126.257812 90.5625 127.667969 L 90.5625 102.746094 C 81.683594 101.242188 74.886719 93.527344 74.886719 84.21875 Z M 90.5625 40.332031 C 90.5625 38.605469 91.96875 37.195312 93.695312 37.195312 C 95.421875 37.195312 96.832031 38.605469 96.832031 40.332031 L 96.832031 46.601562 C 96.832031 48.328125 95.421875 49.734375 93.695312 49.734375 C 91.96875 49.734375 90.5625 48.328125 90.5625 46.601562 Z M 129.160156 135.355469 C 130.382812 134.132812 132.367188 134.132812 133.59375 135.355469 L 138.023438 139.789062 C 139.25 141.011719 139.25 142.996094 138.023438 144.222656 C 137.414062 144.835938 136.617188 145.140625 135.808594 145.140625 C 135.011719 145.140625 134.203125 144.835938 133.59375 144.222656 L 129.160156 139.789062 C 127.933594 138.566406 127.933594 136.582031 129.160156 135.355469 Z M 129.160156 59.996094 L 133.59375 55.566406 C 134.816406 54.339844 136.800781 54.339844 138.023438 55.566406 C 139.25 56.789062 139.25 58.773438 138.023438 59.996094 L 133.59375 64.429688 C 132.980469 65.042969 132.183594 65.347656 131.375 65.347656 C 130.578125 65.347656 129.773438 65.042969 129.160156 64.429688 C 127.933594 63.207031 127.933594 61.222656 129.160156 59.996094 Z M 96.832031 159.457031 C 96.832031 161.183594 95.421875 162.589844 93.695312 162.589844 C 91.96875 162.589844 90.5625 161.183594 90.5625 159.457031 L 90.5625 153.1875 C 90.5625 151.457031 91.96875 150.050781 93.695312 150.050781 C 95.421875 150.050781 96.832031 151.457031 96.832031 153.1875 Z M 146.988281 96.757812 L 153.257812 96.757812 C 154.984375 96.757812 156.394531 98.167969 156.394531 99.894531 C 156.394531 101.621094 154.984375 103.027344 153.257812 103.027344 L 146.988281 103.027344 C 145.261719 103.027344 143.855469 101.621094 143.855469 99.894531 C 143.855469 98.167969 145.261719 96.757812 146.988281 96.757812 Z M 93.695312 168.859375 C 131.792969 168.859375 162.664062 137.988281 162.664062 99.894531 C 162.664062 61.796875 131.792969 30.925781 93.695312 30.925781 C 55.601562 30.925781 24.730469 61.796875 24.730469 99.894531 C 24.730469 137.988281 55.601562 168.859375 93.695312 168.859375 " fill-opacity="1" fill-rule="nonzero"/></svg>