<?xml version="1.0" encoding="UTF-8" standalone="no"?>
<!-- Created with Inkscape (http://www.inkscape.org/) -->

<svg
   width="87.425163mm"
   height="78.45446mm"
   viewBox="0 0 87.425163 78.45446"
   version="1.1"
   id="svg1"
   xml:space="preserve"
   sodipodi:docname="cliente1.svg"
   inkscape:version="1.3 (0e150ed6c4, 2023-07-21)"
   xmlns:inkscape="http://www.inkscape.org/namespaces/inkscape"
   xmlns:sodipodi="http://sodipodi.sourceforge.net/DTD/sodipodi-0.dtd"
   xmlns="http://www.w3.org/2000/svg"
   xmlns:svg="http://www.w3.org/2000/svg"><sodipodi:namedview
     id="namedview1"
     pagecolor="#ffffff"
     bordercolor="#000000"
     borderopacity="0.25"
     inkscape:showpageshadow="2"
     inkscape:pageopacity="0.0"
     inkscape:pagecheckerboard="0"
     inkscape:deskcolor="#d1d1d1"
     inkscape:document-units="mm"
     showgrid="false"
     inkscape:zoom="2.6203896"
     inkscape:cx="165.2426"
     inkscape:cy="183.36968"
     inkscape:window-width="1920"
     inkscape:window-height="991"
     inkscape:window-x="-9"
     inkscape:window-y="-9"
     inkscape:window-maximized="1"
     inkscape:current-layer="svg1" /><defs
     id="defs1" /><g
     id="Icons"
     transform="matrix(1.1496572,0,0,1.1496572,-11.401907,-15.857774)"><path
       d="m 48,16 c 7.732,0 14,6.268 14,14 0,7.732 -6.268,14 -14,14 -7.732,0 -14,-6.268 -14,-14 0.0077,-7.7288 6.2712,-13.9923 14,-14 m 0,-2 c -8.8366,0 -16,7.1634 -16,16 0,8.8366 7.1634,16 16,16 8.8366,0 16,-7.1634 16,-16 0,-8.8366 -7.1634,-16 -16,-16 z"
       fill="#27243f"
       id="path1" /><path
       d="M 80,82 H 78 V 66.5 C 77.9524,64.3759 76.9517,62.3859 75.275,61.081 70.8893,57.7158 65.8678,55.2731 60.513,53.9 56.4587,52.6524 52.2419,52.0121 48,52 43.7594,52.0736 39.5476,52.7126 35.476,53.9 30.1771,55.452 25.1778,57.8861 20.688,61.1 19.0282,62.4064 18.0417,64.3882 18,66.5 V 82 H 16 V 66.5 c 0.0496,-2.7314 1.3263,-5.2953 3.476,-6.981 4.6915,-3.3678 9.9189,-5.9178 15.461,-7.542 C 39.1839,50.7396 43.5771,50.0747 48,50 c 4.4321,0.0109 8.8382,0.6778 13.075,1.979 5.6095,1.4454 10.8679,4.0123 15.458,7.546 2.1454,1.6856 3.4186,4.247 3.467,6.975 z"
       fill="#27243f"
       id="path2" /></g></svg>
