<svg width="163.749" height="163.825" viewBox="0 0 43.3252 43.3453" xmlns="http://www.w3.org/2000/svg" xmlns:xlink="http://www.w3.org/1999/xlink" id="svg5" xml:space="preserve" overflow="hidden"><defs id="defs2"></defs><path d="M18.2516 43.0894C17.818 42.9968 16.3989 42.5507 15.098 42.0981 13.7971 41.6456 11.7166 40.5658 10.4746 39.6987 9.23255 38.8316 7.51988 37.2139 6.66862 36.1037 5.81737 34.9936 4.75666 33.3758 4.31149 32.5086 3.86631 31.6413 3.22855 29.8745 2.89426 28.5823 2.55996 27.2901 2.28645 25.1543 2.28645 23.8362 2.28645 22.518 2.55807 20.3967 2.89005 19.1221 3.22202 17.8476 4.02743 15.8147 4.67983 14.6045 5.33222 13.3944 6.27251 11.9609 6.76936 11.4188 7.26621 10.8768 8.33114 9.81451 9.13589 9.05817 10.3039 7.96048 10.6686 7.7955 10.9436 8.24049 11.1926 8.64334 10.6598 9.43207 9.02257 11.0846 7.69591 12.4237 6.24205 14.4276 5.51438 15.92 4.83092 17.3217 4.08251 19.6881 3.85125 21.1785 3.55263 23.1032 3.55353 24.6805 3.85423 26.6217 4.08719 28.125 4.83585 30.508 5.51792 31.9173 6.284 33.5001 7.6246 35.3308 9.02491 36.7065 10.3117 37.9706 12.3702 39.4562 13.7861 40.1426 15.158 40.8077 17.4778 41.5533 18.9413 41.7996 20.9276 42.1339 22.2767 42.1339 24.263 41.7996 25.7265 41.5533 28.0463 40.8077 29.4182 40.1426 30.8302 39.4581 32.8978 37.9671 34.1832 36.7065 35.6191 35.2982 36.9018 33.5377 37.6725 31.9173 38.3428 30.508 39.1034 28.1346 39.3627 26.6431 39.7221 24.5758 39.7267 23.2641 39.3822 21.1243 39.1336 19.5805 38.38 17.1868 37.7074 15.8049 36.9854 14.3215 35.5548 12.3628 34.2145 11.0225 32.7252 9.53313 32.0508 8.58058 32.2534 8.25264 32.489 7.87147 32.8236 7.95832 33.6629 8.61856 34.2683 9.09472 35.3246 10.1413 36.0102 10.9443 36.6959 11.7473 37.8058 13.38 38.4767 14.5724 39.1476 15.7649 39.9714 17.7978 40.3073 19.09 40.6432 20.3822 40.9181 22.6253 40.9181 24.0746 40.9181 25.64 40.5802 27.8066 40.0857 29.412 39.6279 30.8983 38.7916 32.9044 38.2273 33.87 37.663 34.8356 36.1461 36.6549 34.8565 37.9129 33.5668 39.1709 31.6092 40.6372 30.5062 41.1714 29.4032 41.7055 27.4435 42.414 26.1513 42.7458 24.8591 43.0776 22.7304 43.3285 21.4209 43.3034 20.1113 43.2782 18.6851 43.1819 18.2515 43.0894ZM20.9067 12.1087C20.9967 1.81823 21.092 0.184095 21.6023 0.184095 22.1126 0.184095 22.2079 1.81823 22.2979 12.1087 22.4007 23.8622 22.3908 24.0333 21.6023 24.0333 20.8138 24.0333 20.8038 23.8622 20.9067 12.1087Z" id="path39926" stroke-width="0.394201" fill="#0D0D0D"/></svg>