<?xml version="1.0" encoding="UTF-8" standalone="no"?>
<!-- Created with Inkscape (http://www.inkscape.org/) -->

<svg
   width="87.425163mm"
   height="78.45446mm"
   viewBox="0 0 87.425163 78.45446"
   version="1.1"
   id="svg1"
   xml:space="preserve"
   sodipodi:docname="persFinan1.svg"
   inkscape:version="1.3 (0e150ed6c4, 2023-07-21)"
   xmlns:inkscape="http://www.inkscape.org/namespaces/inkscape"
   xmlns:sodipodi="http://sodipodi.sourceforge.net/DTD/sodipodi-0.dtd"
   xmlns="http://www.w3.org/2000/svg"
   xmlns:svg="http://www.w3.org/2000/svg"><sodipodi:namedview
     id="namedview1"
     pagecolor="#ffffff"
     bordercolor="#000000"
     borderopacity="0.25"
     inkscape:showpageshadow="2"
     inkscape:pageopacity="0.0"
     inkscape:pagecheckerboard="0"
     inkscape:deskcolor="#d1d1d1"
     inkscape:document-units="mm"
     showgrid="false"
     inkscape:zoom="2.6203896"
     inkscape:cx="165.2426"
     inkscape:cy="122.31006"
     inkscape:window-width="1920"
     inkscape:window-height="991"
     inkscape:window-x="-9"
     inkscape:window-y="-9"
     inkscape:window-maximized="1"
     inkscape:current-layer="svg1" /><defs
     id="defs1" /><g
     id="Icons"
     transform="matrix(0.90917644,0,0,0.90917644,-0.63076683,-4.3125555)"><path
       d="m 65.043,56.663 c -0.6186,-1.4745 -1.5203,-2.8134 -2.654,-3.941 -1.1295,-1.1029 -2.4149,-2.0339 -3.815,-2.763 -1.4511,-0.7608 -2.9511,-1.4245 -4.49,-1.987 -1.564,-0.575 -3.179,-1.113 -4.8,-1.6 -0.126,-0.038 -0.249,-0.081 -0.374,-0.12 V 18.037 c 0.221,-0.006 0.432,-0.026 0.657,-0.026 2.579,-0.0483 5.1419,0.4174 7.539,1.37 2.3254,1.025 4.4161,2.5157 6.143,4.38 l 1.443,-1.384 c -1.9151,-2.0625 -4.2333,-3.7099 -6.811,-4.84 -2.6423,-1.0564 -5.4688,-1.5752 -8.314,-1.526 -0.224,0 -0.436,0.02 -0.657,0.026 V 5.011 h -2 v 11.161 c -1.6434,0.1644 -3.2577,0.5471 -4.8,1.138 -2.0597,0.7901 -3.9413,1.9827 -5.535,3.508 -1.4823,1.4459 -2.6503,3.1821 -3.431,5.1 -0.777,1.911 -1.1748,3.955 -1.171,6.018 -0.0396,1.9194 0.2908,3.8285 0.973,5.623 0.6078,1.5359 1.5035,2.9414 2.639,4.141 1.1161,1.1575 2.4026,2.1375 3.815,2.906 1.4499,0.7903 2.9536,1.4777 4.5,2.057 0.978,0.369 1.988,0.716 3.009,1.051 v 30.292 c -1.5895,0.0086 -3.1747,-0.1641 -4.725,-0.515 -1.3155,-0.3068 -2.5944,-0.7534 -3.815,-1.332 -0.9931,-0.4707 -1.9339,-1.0446 -2.807,-1.712 -0.7061,-0.5456 -1.3824,-1.1288 -2.026,-1.747 -0.5693,-0.5547 -1.018,-1.01 -1.346,-1.366 -0.279,-0.3 -0.463,-0.5 -0.591,-0.629 L 31.52,70.623 30.072,72 l 0.082,0.086 c 0.123,0.128 0.3,0.312 0.564,0.6 0.346,0.3773 0.8197,0.8583 1.421,1.443 0.6948,0.6699 1.4252,1.3018 2.188,1.893 0.9846,0.7552 2.0462,1.4045 3.167,1.937 1.3498,0.6409 2.7642,1.136 4.219,1.477 1.7057,0.3893 3.4505,0.5812 5.2,0.572 v 11 h 2 V 79.936 c 2.1101,-0.1231 4.1869,-0.5826 6.152,-1.361 2.2213,-0.8866 4.2437,-2.207 5.949,-3.884 1.6274,-1.6279 2.8995,-3.5755 3.736,-5.72 0.8557,-2.2024 1.2889,-4.5463 1.277,-6.909 0.0382,-1.8475 -0.2965,-3.6838 -0.984,-5.399 z M 44.607,44.792 c -1.457,-0.5463 -2.8738,-1.1942 -4.24,-1.939 -1.2359,-0.6708 -2.3616,-1.5271 -3.338,-2.539 -0.9605,-1.0138 -1.7184,-2.2017 -2.233,-3.5 -0.5845,-1.5558 -0.8649,-3.2094 -0.826,-4.871 -0.0037,-1.8047 0.3437,-3.593 1.023,-5.265 0.6774,-1.6648 1.6917,-3.1717 2.979,-4.426 1.4039,-1.3401 3.0608,-2.3868 4.874,-3.079 1.3074,-0.499 2.6731,-0.8294 4.064,-0.983 v 27.425 c -0.78,-0.264 -1.55,-0.539 -2.303,-0.823 z m 18.279,23.447 c -0.7357,1.8882 -1.8545,3.6036 -3.286,5.038 -1.5199,1.4902 -3.3217,2.6624 -5.3,3.448 -1.7233,0.6831 -3.5431,1.0921 -5.393,1.212 V 48.351 c 1.514,0.459 3.022,0.961 4.484,1.5 1.4558,0.5322 2.8749,1.1599 4.248,1.879 1.2269,0.6376 2.3533,1.4524 3.343,2.418 0.9477,0.9449 1.7015,2.0659 2.219,3.3 0.5793,1.4676 0.8581,3.0366 0.82,4.614 0.0129,2.112 -0.3722,4.2075 -1.135,6.177 z"
       fill="#27243f"
       id="path1" /></g></svg>
