<?xml version="1.0" encoding="UTF-8" standalone="no"?>
<!-- Created with Inkscape (http://www.inkscape.org/) -->

<svg
   width="87.425163mm"
   height="78.45446mm"
   viewBox="0 0 87.425163 78.45446"
   version="1.1"
   id="svg1"
   xml:space="preserve"
   sodipodi:docname="proces1.svg"
   inkscape:version="1.3 (0e150ed6c4, 2023-07-21)"
   xmlns:inkscape="http://www.inkscape.org/namespaces/inkscape"
   xmlns:sodipodi="http://sodipodi.sourceforge.net/DTD/sodipodi-0.dtd"
   xmlns="http://www.w3.org/2000/svg"
   xmlns:svg="http://www.w3.org/2000/svg"><sodipodi:namedview
     id="namedview1"
     pagecolor="#ffffff"
     bordercolor="#000000"
     borderopacity="0.25"
     inkscape:showpageshadow="2"
     inkscape:pageopacity="0.0"
     inkscape:pagecheckerboard="0"
     inkscape:deskcolor="#d1d1d1"
     inkscape:document-units="mm"
     showgrid="false"
     inkscape:zoom="2.6203896"
     inkscape:cx="165.2426"
     inkscape:cy="152.83987"
     inkscape:window-width="1920"
     inkscape:window-height="991"
     inkscape:window-x="-9"
     inkscape:window-y="-9"
     inkscape:window-maximized="1"
     inkscape:current-layer="svg1" /><defs
     id="defs1" /><g
     id="Icons"
     transform="matrix(1.146247,0,0,1.146247,-11.313088,-15.470702)"><path
       d="m 70,66 c -4.0289,0.0037 -7.4264,3.0027 -7.93,7 H 49 V 55.931 c 4.3802,-0.5488 7.4861,-4.5445 6.9374,-8.9246 C 55.483,43.3798 52.6266,40.5233 49,40.069 V 21 H 33.931 C 33.3787,16.6164 29.3774,13.5105 24.9937,14.0627 20.6101,14.615 17.5042,18.6164 18.0565,23 c 0.5523,4.3836 4.5536,7.4895 8.9372,6.9373 C 30.6191,29.4805 33.4742,26.6254 33.931,23 H 47 v 17.069 c -4.3802,0.5488 -7.4861,4.5445 -6.9374,8.9246 0.4544,3.6266 3.3108,6.4831 6.9374,6.9374 V 75 h 15.069 c 0.5523,4.3836 4.5536,7.4895 8.9373,6.9372 C 75.3899,81.385 78.4958,77.3836 77.9435,73 77.4393,68.9976 74.034,65.9968 70,66 Z M 26,28 c -3.3137,0 -6,-2.6863 -6,-6 0,-3.3137 2.6863,-6 6,-6 3.3137,0 6,2.6863 6,6 -0.0039,3.3121 -2.6879,5.9961 -6,6 z m 16,20 c 0,-3.3137 2.6863,-6 6,-6 3.3137,0 6,2.6863 6,6 0,3.3137 -2.6863,6 -6,6 -3.3121,-0.0039 -5.9961,-2.6879 -6,-6 z m 28,32 c -3.3137,0 -6,-2.6863 -6,-6 0,-3.3137 2.6863,-6 6,-6 3.3137,0 6,2.6863 6,6 -0.0039,3.3121 -2.6879,5.9961 -6,6 z"
       fill="#27243f"
       id="path1" /></g></svg>
