<svg xmlns="http://www.w3.org/2000/svg" xmlns:xlink="http://www.w3.org/1999/xlink" width="251" zoomAndPan="magnify" viewBox="0 0 188.25 188.250001" height="251" preserveAspectRatio="xMidYMid meet" version="1.0"><defs><clipPath id="38b98729d9"><path d="M 23.675781 44.085938 L 163.371094 44.085938 L 163.371094 150.910156 L 23.675781 150.910156 Z M 23.675781 44.085938 " clip-rule="nonzero"/></clipPath></defs><path fill="#fefefe" d="M 65.808594 82.726562 L 80.097656 68.4375 C 79.851562 68.035156 79.589844 67.640625 79.320312 67.257812 L 64.675781 81.902344 Z M 65.808594 82.726562 " fill-opacity="1" fill-rule="nonzero"/><path fill="#fefefe" d="M 63.382812 80.960938 L 78.363281 65.980469 C 78.070312 65.621094 77.769531 65.273438 77.453125 64.933594 L 62.253906 80.132812 Z M 63.382812 80.960938 " fill-opacity="1" fill-rule="nonzero"/><path fill="#fefefe" d="M 61.121094 74.84375 L 74.074219 61.890625 C 73.695312 61.613281 73.3125 61.34375 72.917969 61.089844 L 61.121094 72.886719 Z M 61.121094 74.84375 " fill-opacity="1" fill-rule="nonzero"/><path fill="#fefefe" d="M 61.121094 70.652344 L 71.523438 60.25 C 71.101562 60.015625 70.667969 59.796875 70.230469 59.585938 L 61.121094 68.695312 Z M 61.121094 70.652344 " fill-opacity="1" fill-rule="nonzero"/><path fill="#fefefe" d="M 61.121094 66.460938 L 68.667969 58.910156 C 68.191406 58.726562 67.707031 58.5625 67.214844 58.410156 L 61.121094 64.503906 Z M 61.121094 66.460938 " fill-opacity="1" fill-rule="nonzero"/><path fill="#fefefe" d="M 61.121094 62.269531 L 65.457031 57.929688 C 64.914062 57.808594 64.363281 57.707031 63.808594 57.625 L 61.121094 60.3125 Z M 61.121094 62.269531 " fill-opacity="1" fill-rule="nonzero"/><path fill="#fefefe" d="M 61.121094 79.03125 L 76.351562 63.800781 C 76.015625 63.480469 75.675781 63.171875 75.324219 62.871094 L 61.121094 77.074219 Z M 61.121094 79.03125 " fill-opacity="1" fill-rule="nonzero"/><path fill="#fefefe" d="M 61.792969 57.40625 C 61.566406 57.390625 61.34375 57.382812 61.121094 57.375 L 61.121094 58.078125 Z M 61.792969 57.40625 " fill-opacity="1" fill-rule="nonzero"/><path fill="#fefefe" d="M 68.230469 84.5 L 81.546875 71.183594 C 81.347656 70.734375 81.136719 70.292969 80.910156 69.863281 L 67.097656 83.671875 Z M 68.230469 84.5 " fill-opacity="1" fill-rule="nonzero"/><path fill="#fefefe" d="M 73.078125 88.039062 L 83.363281 77.75 C 83.292969 77.183594 83.207031 76.617188 83.097656 76.0625 L 71.949219 87.210938 Z M 73.078125 88.039062 " fill-opacity="1" fill-rule="nonzero"/><path fill="#fefefe" d="M 70.652344 86.265625 L 82.660156 74.261719 C 82.519531 73.757812 82.363281 73.265625 82.1875 72.777344 L 69.519531 85.445312 Z M 70.652344 86.265625 " fill-opacity="1" fill-rule="nonzero"/><path fill="#fefefe" d="M 77.921875 91.582031 L 82.6875 86.8125 C 82.917969 85.996094 83.101562 85.160156 83.238281 84.308594 L 76.792969 90.757812 Z M 77.921875 91.582031 " fill-opacity="1" fill-rule="nonzero"/><path fill="#fefefe" d="M 75.5 89.8125 L 83.503906 81.804688 C 83.527344 81.402344 83.539062 80.996094 83.539062 80.582031 C 83.539062 80.332031 83.53125 80.082031 83.523438 79.832031 L 74.367188 88.984375 Z M 75.5 89.8125 " fill-opacity="1" fill-rule="nonzero"/><path fill="#fefefe" d="M 79.910156 93.03125 C 80.457031 92.175781 80.945312 91.289062 81.378906 90.363281 L 79.214844 92.523438 Z M 79.910156 93.03125 " fill-opacity="1" fill-rule="nonzero"/><g clip-path="url(#38b98729d9)"><path fill="#fefefe" d="M 155.625 151.128906 L 31.773438 151.128906 C 27.449219 151.128906 23.933594 147.613281 23.933594 143.292969 L 23.933594 51.859375 C 23.933594 47.539062 27.453125 44.023438 31.773438 44.023438 L 155.625 44.023438 C 159.945312 44.023438 163.460938 47.539062 163.460938 51.859375 L 163.460938 143.292969 C 163.460938 147.613281 159.945312 151.128906 155.625 151.128906 Z M 31.773438 47.15625 C 29.179688 47.15625 27.070312 49.265625 27.070312 51.859375 L 27.070312 143.292969 C 27.070312 145.886719 29.179688 147.996094 31.773438 147.996094 L 155.625 147.996094 C 158.214844 147.996094 160.324219 145.886719 160.324219 143.292969 L 160.324219 51.859375 C 160.324219 49.265625 158.214844 47.15625 155.625 47.15625 Z M 31.773438 47.15625 " fill-opacity="1" fill-rule="nonzero"/></g><path fill="#fefefe" d="M 103.808594 74.875 L 109.824219 74.875 L 109.824219 94.5625 L 103.808594 94.5625 Z M 103.808594 74.875 " fill-opacity="1" fill-rule="nonzero"/><path fill="#fefefe" d="M 113.144531 76.515625 L 119.160156 76.515625 L 119.160156 94.566406 L 113.144531 94.566406 Z M 113.144531 76.515625 " fill-opacity="1" fill-rule="nonzero"/><path fill="#fefefe" d="M 122.476562 79.800781 L 128.492188 79.800781 L 128.492188 94.566406 L 122.476562 94.566406 Z M 122.476562 79.800781 " fill-opacity="1" fill-rule="nonzero"/><path fill="#fefefe" d="M 131.8125 71.589844 L 137.828125 71.589844 L 137.828125 94.5625 L 131.8125 94.5625 Z M 131.8125 71.589844 " fill-opacity="1" fill-rule="nonzero"/><path fill="#fefefe" d="M 141.144531 71.589844 L 147.160156 71.589844 L 147.160156 94.5625 L 141.144531 94.5625 Z M 141.144531 71.589844 " fill-opacity="1" fill-rule="nonzero"/><path fill="#fefefe" d="M 146.859375 108.050781 L 115.273438 123.570312 L 103.777344 116.613281 L 83.039062 126.039062 L 49.445312 129.003906 L 36.21875 138.40625 L 146.765625 138.40625 Z M 146.859375 108.050781 " fill-opacity="1" fill-rule="nonzero"/><path fill="#fefefe" d="M 60.269531 103.757812 C 47.457031 103.757812 37.03125 93.335938 37.03125 80.519531 C 37.03125 68 46.984375 57.765625 59.394531 57.304688 L 59.394531 80.292969 L 59.40625 80.292969 L 78.828125 94.484375 C 78.824219 94.484375 78.824219 94.484375 78.824219 94.484375 C 74.585938 100.113281 67.84375 103.757812 60.269531 103.757812 Z M 60.269531 103.757812 " fill-opacity="1" fill-rule="nonzero"/></svg>