<?xml version="1.0" encoding="UTF-8" standalone="no"?>
<!-- Created with Inkscape (http://www.inkscape.org/) -->

<svg
   width="43.325218mm"
   height="43.345306mm"
   viewBox="0 0 43.325218 43.345306"
   version="1.1"
   id="svg5"
   xml:space="preserve"
   xmlns="http://www.w3.org/2000/svg"
   xmlns:svg="http://www.w3.org/2000/svg"><defs
     id="defs2" /><path
     style="fill:#27243f;fill-opacity:1;stroke-width:0.636988"
     d="M 1.016003,42.329304 C 0.15506239,41.468351 0.01501945,38.903164 0.01501945,23.994099 V 6.659894 L 3.3792426,3.3374463 6.743468,0.01502259 h 17.2392 c 15.892086,0 17.321579,0.0910042 18.29341,1.16487781 0.932608,1.0305142 1.054209,3.4132594 1.054209,20.6566536 0,16.87047 -0.134604,19.62638 -1.000984,20.49275 -0.86673,0.86673 -3.63718,1.000974 -20.656649,1.000974 -17.0194706,0 -19.7899202,-0.13434 -20.656651,-1.000974 z M 41.737815,21.67265 V 1.6074757 L 37.775887,1.4182447 33.813959,1.2290138 33.635465,9.3805103 33.456972,17.532031 22.393443,17.706576 C 14.774097,17.826711 11.055955,17.653851 10.449893,17.150824 9.7915814,16.604486 9.5698754,14.514375 9.5698754,8.854612 c 0,-8.96969171 -0.4033388,-9.32145424 -5.2332831,-4.5641254 L 1.2890132,7.2922288 V 24.24949 c 0,9.326462 0.1951053,17.152341 0.4335749,17.390806 0.2384647,0.238344 9.3394479,0.357902 20.2244069,0.265405 L 41.737831,41.737656 Z M 18.336469,34.689285 c -1.912812,-1.037882 -3.670698,-3.915926 -3.670698,-6.009744 0,-3.376136 3.630747,-7.006891 7.006883,-7.006891 3.376134,0 7.006881,3.630755 7.006881,7.006891 0,2.158027 -1.788102,4.999645 -3.801086,6.040608 -2.323673,1.201617 -4.287585,1.192348 -6.54198,-0.03082 z m 7.207119,-2.138816 c 1.270792,-1.270784 1.861968,-2.499823 1.861968,-3.870928 0,-2.740286 -2.992635,-5.732905 -5.732902,-5.732905 -2.740269,0 -5.732904,2.992619 -5.732904,5.732905 0,1.371105 0.591179,2.600144 1.861968,3.870928 1.270792,1.270785 2.499818,1.861975 3.870936,1.861975 1.371118,0 2.600143,-0.59119 3.870934,-1.861975 z m -5.781902,-3.870928 c 0,-1.698649 0.212319,-1.910968 1.910968,-1.910968 1.698639,0 1.910968,0.212343 1.910968,1.910968 0,1.698624 -0.212319,1.910967 -1.910968,1.910967 -1.698639,0 -1.910968,-0.212343 -1.910968,-1.910967 z M 32.501471,8.9328563 V 1.2889851 H 21.672654 10.843836 v 7.6438712 7.6438717 h 10.828818 10.828817 z m -18.472688,0 V 3.1999529 h 2.547956 2.547959 V 8.9328563 14.66576 h -2.547959 -2.547956 z m 3.821935,0 c 0,-4.0342547 -0.121339,-4.4589168 -1.273979,-4.4589168 -1.152648,0 -1.273977,0.4246621 -1.273977,4.4589168 0,4.0342787 0.121339,4.4589407 1.273977,4.4589407 1.152648,0 1.273979,-0.424662 1.273979,-4.4589407 z"
     id="path81461" /></svg>
