<?xml version="1.0" encoding="UTF-8" standalone="no"?>
<!-- Created with Inkscape (http://www.inkscape.org/) -->

<svg
   width="43.325218mm"
   height="43.345306mm"
   viewBox="0 0 43.325218 43.345306"
   version="1.1"
   id="svg5"
   xml:space="preserve"
   xmlns="http://www.w3.org/2000/svg"
   xmlns:svg="http://www.w3.org/2000/svg"><defs
     id="defs2" /><path
     style="fill:#27243f;fill-opacity:1;stroke-width:0.602671"
     d="M 14.588612,41.934873 C 5.402928,38.049767 0.42473138,30.133274 0.92796176,20.211279 1.8768098,1.5032143 25.102345,-6.8665867 38.350977,6.7251005 c 2.86271,2.936807 2.86271,2.936807 2.86271,-1.3220426 0,-2.4374649 0.257735,-4.2588724 0.602642,-4.2588724 0.361603,0 0.602687,2.4106776 0.602687,6.0267058 0,6.0267057 0,6.0267057 -6.026707,6.0267057 -3.616028,0 -6.026729,-0.241061 -6.026729,-0.602663 0,-0.351558 2.008918,-0.602664 4.821379,-0.602664 5.764006,0 5.85562,-0.249716 1.638659,-4.466655 -9.884993,-9.885002 -26.9466076,-6.97245366 -32.5110496,5.549869 -4.37453055,9.844549 -0.6914255,21.237531 8.4791966,26.228811 7.146213,3.889457 14.196564,3.306087 22.509682,-1.862545 2.128456,-1.323341 3.011678,-0.398526 1.079842,1.130707 -5.958235,4.716576 -15.216101,6.144856 -21.794677,3.362416 z"
     id="path39938" /></svg>
