<svg xmlns="http://www.w3.org/2000/svg" xmlns:xlink="http://www.w3.org/1999/xlink" width="251" zoomAndPan="magnify" viewBox="0 0 188.25 188.250001" height="251" preserveAspectRatio="xMidYMid meet" version="1.0"><defs><clipPath id="c0483f7b67"><path d="M 35.195312 57 L 152.476562 57 L 152.476562 161 L 35.195312 161 Z M 35.195312 57 " clip-rule="nonzero"/></clipPath></defs><g clip-path="url(#c0483f7b67)"><path fill="#fefefe" d="M 93.933594 160.441406 C 61.726562 160.441406 35.492188 134.207031 35.492188 102 C 35.492188 85.273438 42.710938 69.28125 55.242188 58.152344 C 56.789062 56.824219 59.074219 56.972656 60.472656 58.445312 C 61.875 60.066406 61.726562 62.351562 60.179688 63.753906 C 49.199219 73.480469 42.859375 87.410156 42.859375 102.074219 C 42.859375 130.226562 65.78125 153.148438 93.933594 153.148438 C 122.082031 153.148438 145.003906 130.226562 145.003906 102.074219 C 145.003906 87.410156 138.664062 73.480469 127.683594 63.753906 C 126.136719 62.425781 125.988281 60.066406 127.390625 58.519531 C 128.714844 56.972656 131.074219 56.824219 132.621094 58.226562 C 145.222656 69.355469 152.375 85.273438 152.375 102.074219 C 152.375 134.207031 126.136719 160.441406 93.933594 160.441406 Z M 93.933594 160.441406 " fill-opacity="1" fill-rule="nonzero"/></g><path fill="#fefefe" d="M 93.414062 105.171875 C 91.351562 105.171875 89.730469 103.550781 89.730469 101.484375 L 89.730469 35.160156 C 89.730469 33.09375 91.351562 31.472656 93.414062 31.472656 C 95.480469 31.472656 97.101562 33.09375 97.101562 35.160156 L 97.101562 101.484375 C 97.101562 103.550781 95.480469 105.171875 93.414062 105.171875 Z M 93.414062 105.171875 " fill-opacity="1" fill-rule="nonzero"/></svg>