<?xml version="1.0" encoding="UTF-8" standalone="no"?>
<!-- Created with Inkscape (http://www.inkscape.org/) -->

<svg
   width="43.325218mm"
   height="43.345306mm"
   viewBox="0 0 43.325218 43.345306"
   version="1.1"
   id="svg5"
   xml:space="preserve"
   xmlns="http://www.w3.org/2000/svg"
   xmlns:svg="http://www.w3.org/2000/svg"><defs
     id="defs2" /><path
     style="fill:#27243f;fill-opacity:1;stroke-width:0.565878"
     d="M 14.756302,41.976543 C -7.5587486,33.676363 -3.0943902,1.2281209 20.51831,0.09661353 38.428493,-0.76164671 49.443264,19.027445 39.289427,33.820729 34.041744,41.466151 23.133527,45.092471 14.756302,41.976543 Z M 27.771508,40.647736 C 37.428498,37.607883 43.629599,26.484956 41.076633,16.782374 37.092564,1.640943 18.624986,-3.5519067 7.4784845,7.3349883 -7.3846242,21.851924 7.8795542,46.909406 27.771508,40.647736 Z M 26.073872,30.151891 c 0,-0.225618 1.712025,-2.13546 3.804502,-4.244099 3.804504,-3.833886 3.804504,-3.833886 -9.619935,-3.833886 -8.572371,0 -13.4244357,-0.204465 -13.4244357,-0.565872 0,-0.361342 4.8520647,-0.565871 13.4244357,-0.565871 13.424439,0 13.424439,0 9.509571,-3.945101 -2.153177,-2.169808 -3.730235,-4.12974 -3.504573,-4.355399 0.419822,-0.419816 9.430361,8.18952 9.430361,9.010459 0,0.736309 -8.20418,8.90996 -8.943243,8.90996 -0.372175,0 -0.676683,-0.184574 -0.676683,-0.410191 z"
     id="path39934" /></svg>
