<?xml version="1.0" encoding="UTF-8" standalone="no"?>
<!-- Created with Inkscape (http://www.inkscape.org/) -->

<svg
   width="43.325218mm"
   height="43.345306mm"
   viewBox="0 0 43.325218 43.345306"
   version="1.1"
   id="svg5"
   xml:space="preserve"
   xmlns="http://www.w3.org/2000/svg"
   xmlns:svg="http://www.w3.org/2000/svg"><defs
     id="defs2" /><path
     style="fill:#efeeda;fill-opacity:1;stroke-width:0.394201"
     d="M 18.251594,43.08935 C 17.817976,42.996828 16.398852,42.550739 15.097981,42.098139 13.797125,41.645554 11.71658,40.565783 10.474558,39.698665 9.232553,38.831562 7.5198756,37.213851 6.6686249,36.103746 5.8173742,34.993641 4.7566594,33.375825 4.3114941,32.508573 3.8663139,31.641336 3.22855,29.874516 2.8942626,28.582301 2.5599603,27.290087 2.2864456,25.154324 2.2864456,23.836156 c 0,-1.318169 0.271624,-3.439479 0.6036006,-4.714024 C 3.2220243,17.847573 4.027431,15.814658 4.6798256,14.604537 5.3322202,13.39443 6.2725069,11.960855 6.7693566,11.418831 7.2662078,10.876793 8.3311376,9.814514 9.1358887,9.0581695 10.303863,7.9604755 10.668572,7.7954996 10.943577,8.2404861 11.192569,8.6433384 10.659843,9.4320732 9.0225689,11.084648 7.6959065,12.42372 6.242055,14.427552 5.514376,15.919993 c -0.6834588,1.401737 -1.4318622,3.76809 -1.6631235,5.25855 -0.2986193,1.924704 -0.2977254,3.50192 0.00298,5.443177 0.2329598,1.503288 0.9816164,3.886283 1.6636897,5.295559 0.7660735,1.582818 2.1066782,3.41357 3.506986,4.789203 1.2867918,1.264115 3.3452578,2.749688 4.7611938,3.436097 1.371894,0.665074 3.691733,1.410736 5.15521,1.657045 1.986297,0.334287 3.33541,0.334287 5.321705,0 1.463478,-0.246309 3.783317,-0.991971 5.155211,-1.657045 1.411987,-0.684502 3.479602,-2.175513 4.764933,-3.436097 1.435944,-1.408307 2.718594,-3.16878 3.489345,-4.789203 0.670318,-1.409276 1.430894,-3.782646 1.69018,-5.274164 0.359378,-2.067331 0.363996,-3.378989 0.01952,-5.518819 -0.248587,-1.543828 -1.002251,-3.937535 -1.674804,-5.319367 -0.722003,-1.483397 -2.152584,-3.442146 -3.492862,-4.782424 -1.489372,-1.4893723 -2.163786,-2.4419209 -1.961117,-2.7698613 0.235582,-0.3811744 0.570167,-0.2943285 1.409514,0.3659178 0.605345,0.4761551 1.661618,1.5227455 2.347297,2.3257535 0.685679,0.803008 1.795605,2.435663 2.466504,3.628115 0.670886,1.192466 1.494648,3.225381 1.830573,4.51758 0.335926,1.292215 0.610767,3.535264 0.610767,4.984544 0,1.565446 -0.337878,3.732004 -0.832374,5.337439 -0.4578,1.486318 -1.294092,3.49243 -1.858419,4.45803 -0.564327,0.965615 -2.081187,2.784924 -3.370824,4.042916 -1.289623,1.258006 -3.247238,2.7243 -4.350235,3.258427 -1.103013,0.534126 -3.062746,1.242616 -4.35496,1.57443 -1.292215,0.331829 -3.4209,0.582727 -4.730411,0.557578 -1.309527,-0.02518 -2.735728,-0.121427 -3.169346,-0.214024 z m 2.65508,-30.980668 c 0.08999,-10.2904567 0.185358,-11.92458695 0.695632,-11.92458695 0.51026,0 0.605597,1.63413025 0.695632,11.92458695 0.102803,11.753487 0.09282,11.924572 -0.695632,11.924572 -0.788495,0 -0.798479,-0.171085 -0.695632,-11.924572 z"
     id="path39926" /></svg>
