<?xml version="1.0" encoding="UTF-8" standalone="no"?>
<!-- Created with Inkscape (http://www.inkscape.org/) -->

<svg
   width="43.325218mm"
   height="43.345306mm"
   viewBox="0 0 43.325218 43.345306"
   version="1.1"
   id="svg5"
   xml:space="preserve"
   xmlns="http://www.w3.org/2000/svg"
   xmlns:svg="http://www.w3.org/2000/svg"><defs
     id="defs2" /><path
     style="fill:#efeeda;fill-opacity:1;stroke-width:0.390847"
     d="m 20.584619,33.788685 c -1.021106,-0.38582 -1.699439,-1.861457 -1.393494,-3.031384 0.221609,-0.847436 18.099196,-16.475545 18.847008,-16.475545 1.050169,0 -0.0089,1.502095 -7.024508,9.966612 -7.496933,9.044755 -8.737361,10.17948 -10.429006,9.540317 z m 6.227575,-6.511252 c 2.457473,-2.95578 4.624822,-5.631657 4.816332,-5.946378 0.191509,-0.314736 -2.168057,1.614407 -5.243478,4.28699 -5.732765,4.981843 -6.138786,5.437019 -5.751115,6.447273 0.551952,1.438353 1.816345,0.458514 6.178261,-4.787885 z M 0.16853489,30.7872 c 0,-16.849813 21.10040811,-27.779999 33.80828711,-17.512965 1.881233,1.519895 0.3308,1.727458 -2.011102,0.269223 -1.897371,-1.181435 -1.897371,-1.181435 -2.679576,0.35013 -1.051321,2.058518 -2.078244,1.640214 -1.190335,-0.484853 0.674473,-1.614244 0.132492,-1.978364 -3.701785,-2.486999 -1.89765,-0.251733 -1.89765,-0.251733 -2.020135,1.456433 -0.169108,2.358379 -1.245393,2.394172 -1.415211,0.04712 -0.14069,-1.94455 -0.787577,-2.103839 -4.30362,-1.059682 -2.216307,0.658175 -2.25232,0.711591 -1.438905,2.134521 0.726338,1.270585 0.71998,1.563384 -0.03395,1.563384 -0.341122,0 -0.819385,-0.527647 -1.062807,-1.172542 -0.523291,-1.386354 -0.647079,-1.405824 -2.534151,-0.398391 -3.4969397,1.866864 -3.9249577,2.566179 -2.4818989,4.055037 1.7077669,1.761967 0.8885392,2.397953 -0.8803746,0.68345 -1.2583519,-1.21965 -1.2583519,-1.21965 -2.2135993,0.04742 -2.8743528,3.812478 -3.0131567,4.659692 -0.8575353,5.234108 0.843323,0.224729 1.1506095,0.920661 0.6344296,1.436845 C 5.6515335,25.084164 5.044682,24.937624 4.4377139,24.62373 2.48365,23.613239 2.023569,24.491371 1.4879933,30.253998 1.1533621,33.85451 0.16853637,34.252561 0.16853637,30.787303 Z M 41.989189,31.413348 c 0,-1.934372 -0.706716,-6.215837 -1.142377,-6.920736 -0.246016,-0.398081 -0.586027,-0.381211 -1.700352,0.08435 -2.171126,0.907159 -2.669525,-0.08583 -0.577178,-1.149985 0.698635,-0.355315 1.335582,-0.703643 1.41544,-0.774077 0.07992,-0.07046 -0.330173,-0.93923 -0.911192,-1.930664 -1.357962,-2.317179 -1.034777,-3.741276 0.377414,-1.663052 2.904905,4.27495 5.074199,13.983211 3.124523,13.983211 -0.427359,0 -0.586278,-0.44157 -0.586278,-1.629075 z"
     id="path39788" /></svg>
