<?xml version="1.0" encoding="UTF-8" standalone="no"?>
<!-- Created with Inkscape (http://www.inkscape.org/) -->

<svg
   width="43.325218mm"
   height="43.345306mm"
   viewBox="0 0 43.325218 43.345306"
   version="1.1"
   id="svg5"
   xml:space="preserve"
   xmlns="http://www.w3.org/2000/svg"
   xmlns:svg="http://www.w3.org/2000/svg"><defs
     id="defs2" /><path
     style="fill:#27243f;fill-opacity:1;stroke-width:0.566269"
     d="M 15.759747,42.509705 C -0.4436029,37.149046 -5.1056476,17.358969 7.1694141,6.0442287 24.871804,-10.273259 51.486069,10.32512 40.632634,31.943404 36.450408,40.27372 24.432628,45.379006 15.759747,42.509705 Z M 26.668378,41.329303 C 42.411937,37.138259 47.208367,17.562141 35.148356,6.7191507 23.910818,-3.3843467 6.4267966,2.0034076 2.1482386,16.888246 -1.9501332,31.146296 12.144639,45.19561 26.668378,41.329303 Z M 11.791394,26.2762 c -4.5080768,-4.53468 -4.5080768,-4.53468 0.133336,-9.176135 2.552804,-2.552825 4.828234,-4.454721 5.056489,-4.226465 0.228256,0.228277 -1.347875,2.191554 -3.502553,4.362862 -3.9175647,3.947828 -3.9175647,3.947828 9.199593,3.947828 8.133954,0 13.250104,0.215114 13.467124,0.566262 0.229582,0.371459 -4.283258,0.566262 -13.117153,0.566262 -13.4671287,0 -13.4671287,0 -9.659999,3.836536 2.093916,2.110097 3.807129,4.02126 3.807129,4.247033 0,1.009889 -1.174409,0.110222 -5.384052,-4.124183 z"
     id="path39944" /></svg>
