<?xml version="1.0" encoding="UTF-8" standalone="no"?>
<!-- Created with Inkscape (http://www.inkscape.org/) -->

<svg
   width="43.325218mm"
   height="43.345306mm"
   viewBox="0 0 43.325218 43.345306"
   version="1.1"
   id="svg5"
   xml:space="preserve"
   xmlns="http://www.w3.org/2000/svg"
   xmlns:svg="http://www.w3.org/2000/svg"><defs
     id="defs2" /><path
     style="fill:#0cc4a6;fill-opacity:1;stroke-width:0.461277"
     d="m 34.236803,42.920981 c -1.10445,-0.403739 -2.830565,-2.120683 -3.26647,-3.249123 l -0.400915,-1.037886 h -4.611527 -4.611528 l -0.127966,-6.573195 -0.127966,-6.573195 -1.960429,-0.141914 c -1.078229,-0.07793 -1.960419,-0.337489 -1.960419,-0.576597 0,-0.511447 0.01552,-0.513103 5.051867,-0.543927 4.13352,-0.02528 5.898966,0.855788 2.242374,1.119095 l -1.989562,0.143308 -0.129012,5.881288 -0.129013,5.88127 h 4.34592 4.345901 l 0.293033,-1.167491 c 0.869351,-3.463772 6.808293,-3.928268 8.725643,-0.682458 2.345583,3.970755 -1.499071,9.052707 -5.689722,7.52079 z m 3.941814,-2.190298 c 2.366103,-2.366103 0.895903,-6.248206 -2.366278,-6.248206 -3.452456,0 -5.075989,3.754189 -2.66583,6.164348 1.564152,1.564153 3.519247,1.596737 5.032108,0.08386 z M 17.362699,18.837503 c -0.574281,-0.571455 0.0179,-0.923223 1.767268,-1.049794 l 1.960429,-0.141914 0.129012,-5.881289 0.129012,-5.88127 h -4.395734 -4.395913 v 0.7374797 c 0,1.445182 -2.7148815,3.4140143 -4.7076824,3.4140143 -2.5992303,0 -4.979138,-2.3541781 -4.979138,-4.9252889 0,-5.55833872 7.7091374,-6.8647453 9.7243434,-1.6479231 l 0.40092,1.0378866 h 4.611517 4.611527 l 0.127966,6.5731944 0.127966,6.573196 1.989544,0.143308 c 1.274189,0.0917 1.924411,0.33871 1.808369,0.686817 -0.170679,0.512022 -8.421748,0.846843 -8.909446,0.361548 z M 10.949516,7.1168552 C 13.428468,3.5776639 8.4389018,-0.6501394 5.3860136,2.4027453 3.3616098,4.4271577 4.2499067,7.8759707 7.0214504,8.7523304 8.0783245,9.0865071 10.183987,8.2097987 10.949516,7.1168552 Z"
     id="path51577" /></svg>
