<?xml version="1.0" encoding="UTF-8" standalone="no"?>
<!-- Created with Inkscape (http://www.inkscape.org/) -->

<svg
   width="43.325218mm"
   height="43.345306mm"
   viewBox="0 0 43.325218 43.345306"
   version="1.1"
   id="svg5"
   xml:space="preserve"
   sodipodi:docname="tasK3.svg"
   inkscape:version="1.3 (0e150ed6c4, 2023-07-21)"
   xmlns:inkscape="http://www.inkscape.org/namespaces/inkscape"
   xmlns:sodipodi="http://sodipodi.sourceforge.net/DTD/sodipodi-0.dtd"
   xmlns="http://www.w3.org/2000/svg"
   xmlns:svg="http://www.w3.org/2000/svg"><sodipodi:namedview
     id="namedview1"
     pagecolor="#ffffff"
     bordercolor="#000000"
     borderopacity="0.25"
     inkscape:showpageshadow="2"
     inkscape:pageopacity="0.0"
     inkscape:pagecheckerboard="0"
     inkscape:deskcolor="#d1d1d1"
     inkscape:document-units="mm"
     inkscape:zoom="4.7428722"
     inkscape:cx="81.912391"
     inkscape:cy="81.701548"
     inkscape:window-width="1920"
     inkscape:window-height="991"
     inkscape:window-x="-9"
     inkscape:window-y="-9"
     inkscape:window-maximized="1"
     inkscape:current-layer="svg5" /><defs
     id="defs2" /><path
     style="fill:#0074b1;fill-opacity:1;stroke-width:1.31237"
     d="M 1.9149224,42.969473 C 1.5138011,42.771769 0.96378584,42.299032 0.6926668,41.918948 L 0.19972405,41.227889 V 21.782906 2.3379259 L 0.6953611,1.6430815 C 1.7562133,0.15585138 0.70743493,0.22675636 21.64476,0.22675636 c 20.937331,0 19.888547,-0.0709048 20.949399,1.41632514 l 0.495637,0.6948444 V 21.782906 41.227889 l -0.495637,0.694843 c -1.06124,1.487776 -0.0068,1.416862 -20.982984,1.411265 C 4.5944059,43.329403 2.5692489,43.291975 1.9149224,42.969473 Z M 40.934182,41.072328 c 0.386417,-0.386418 0.386417,-38.1924255 0,-38.5788423 -0.386418,-0.3864172 -38.1924257,-0.3864172 -38.5788432,0 -0.3864175,0.3864168 -0.3864175,38.1924243 0,38.5788423 0.3864175,0.386417 38.1924252,0.386417 38.5788432,0 z M 16.977964,37.116663 c -0.407419,-0.407419 -0.444457,-0.740761 -0.444457,-4.00011 0,-3.25935 0.03703,-3.592692 0.444457,-4.000111 0.407419,-0.407418 0.740761,-0.444457 4.000111,-0.444457 4.717129,0 4.444566,-0.272561 4.444566,4.444568 0,4.717129 0.272563,4.444568 -4.444566,4.444568 -3.25935,0 -3.592692,-0.03704 -4.000111,-0.444458 z m 7.111307,-4.00011 v -3.111198 h -3.111196 -3.111198 v 3.111198 3.111197 h 3.111198 3.111196 z M 6.7554604,36.894436 c -0.4074181,-0.40742 -0.4444572,-0.740762 -0.4444572,-4.000111 0,-4.71713 -0.2725613,-4.444568 4.4445678,-4.444568 4.717129,0 4.444566,-0.272562 4.444566,4.444568 0,4.717129 0.272563,4.444566 -4.444566,4.444566 -3.2593487,0 -3.5926912,-0.03703 -4.0001106,-0.444455 z M 13.866767,32.894325 V 29.783128 H 10.755571 7.6443734 v 3.111197 3.111196 h 3.1111976 3.111196 z m 17.030637,2.884366 c -1.800312,-1.419528 -2.05268,-1.943268 -1.218065,-2.527854 0.547578,-0.383539 0.87949,-0.263722 2.25373,0.813574 0.463983,0.363727 0.869406,0.624264 0.900941,0.578974 0.03154,-0.04529 0.785801,-1.007373 1.676148,-2.13796 1.198972,-1.522489 1.750736,-2.055612 2.127487,-2.055612 0.728413,0 1.133332,0.564904 0.879115,1.226453 -0.380252,0.989529 -4.066427,5.440397 -4.505695,5.440397 -0.229229,0 -1.180376,-0.602087 -2.113661,-1.337972 z M 17.42242,26.227474 c -0.407418,-0.407419 -0.444456,-0.740762 -0.444456,-4.00011 0,-3.25935 0.03704,-3.592693 0.444456,-4.000111 0.40742,-0.407419 0.740762,-0.444457 4.000111,-0.444457 4.71713,0 4.444568,-0.272561 4.444568,4.444568 0,3.259348 -0.03704,3.592691 -0.444458,4.00011 -0.407418,0.407418 -0.74076,0.444456 -4.00011,0.444456 -3.259349,0 -3.592691,-0.03703 -4.000111,-0.444456 z m 7.111308,-4.00011 v -3.111198 h -3.111197 -3.111196 v 3.111198 3.111196 h 3.111196 3.111197 z m 4.222339,4.00011 c -0.407418,-0.407419 -0.444456,-0.740762 -0.444456,-4.00011 0,-3.25935 0.03703,-3.592693 0.444456,-4.000111 0.407419,-0.407419 0.740762,-0.444457 4.00011,-0.444457 4.717131,0 4.444568,-0.272561 4.444568,4.444568 0,4.717129 0.272563,4.444566 -4.444568,4.444566 -3.259348,0 -3.592691,-0.03703 -4.00011,-0.444456 z m 7.111308,-4.00011 v -3.111198 h -3.111198 -3.111196 v 3.111198 3.111196 h 3.111196 3.111198 z M 6.1749443,10.299458 C 5.9167745,10.247042 5.4167607,9.9027186 5.0638034,9.5343108 4.4926026,8.9381054 4.4220626,8.7077762 4.4220626,7.4388592 c 0,-1.3138066 0.056983,-1.4826 0.7265161,-2.1521343 L 5.8750948,4.5602088 H 21.089188 36.303285 l 0.726514,0.7265161 c 0.67062,0.6706196 0.726516,0.836993 0.726516,2.1624522 0,1.3253949 -0.05592,1.4918667 -0.726408,2.1624534 l -0.726409,0.7265165 -14.829576,0.02831 c -8.156267,0.01558 -15.0408065,-0.01457 -15.2989777,-0.067 z M 36.127662,8.7481054 c 0.523217,-0.4735052 0.546223,-1.99834 0.03861,-2.5592427 C 35.817043,5.8029689 35.058295,5.7824644 21.1278,5.7824644 7.7884285,5.7824644 6.4202333,5.815838 6.0507139,6.1502501 5.5274973,6.6237553 5.5044914,8.1485888 6.0121039,8.7094927 6.3613327,9.0953853 7.120082,9.1158898 21.050577,9.1158898 c 13.339371,0 14.707568,-0.033374 15.077085,-0.3677844 z"
     id="path1" /></svg>
