<?xml version="1.0" encoding="UTF-8" standalone="no"?>
<!-- Created with Inkscape (http://www.inkscape.org/) -->

<svg
   width="43.325218mm"
   height="43.345306mm"
   viewBox="0 0 43.325218 43.345306"
   version="1.1"
   id="svg5"
   xml:space="preserve"
   sodipodi:docname="enfoques.svg"
   inkscape:version="1.2.2 (732a01da63, 2022-12-09)"
   xmlns:inkscape="http://www.inkscape.org/namespaces/inkscape"
   xmlns:sodipodi="http://sodipodi.sourceforge.net/DTD/sodipodi-0.dtd"
   xmlns="http://www.w3.org/2000/svg"
   xmlns:svg="http://www.w3.org/2000/svg"><sodipodi:namedview
     id="namedview63470"
     pagecolor="#ffffff"
     bordercolor="#000000"
     borderopacity="0.25"
     inkscape:showpageshadow="2"
     inkscape:pageopacity="0.0"
     inkscape:pagecheckerboard="0"
     inkscape:deskcolor="#d1d1d1"
     inkscape:document-units="mm"
     showgrid="false"
     inkscape:zoom="5.1091172"
     inkscape:cx="81.814526"
     inkscape:cy="82.010254"
     inkscape:window-width="1920"
     inkscape:window-height="1017"
     inkscape:window-x="-8"
     inkscape:window-y="-8"
     inkscape:window-maximized="1"
     inkscape:current-layer="svg5" /><defs
     id="defs2" /><path
     style="fill:#068481;fill-opacity:1;stroke-width:0.238639"
     d="m 18.526672,26.131261 c 0,-0.168194 0.33002,-0.621222 0.733378,-1.006721 l 0.733378,-0.700908 -2.105557,-0.119318 -2.105548,-0.119318 -0.06287,-7.934748 -0.06287,-7.9347481 h -1.905895 c -1.555715,0 -1.905894,-0.067465 -1.905894,-0.3669101 V 7.5816706 l 2.207405,0.068638 2.207414,0.068638 0.06286,7.9347474 0.06287,7.934748 h 1.833388 1.833387 L 19.28939,22.801506 c -0.724683,-0.747683 -0.983658,-1.360814 -0.574781,-1.360814 0.103372,0 0.712905,0.532967 1.35451,1.184376 l 1.166573,1.184377 -1.05622,1.173689 c -1.147144,1.274733 -1.652809,1.626012 -1.652809,1.148172 z m 4.277137,-0.615395 c -1.770802,-1.770802 0.112274,-4.786148 2.39775,-3.839479 1.593282,0.659961 1.985473,2.841444 0.704607,3.919229 -1.027276,0.864394 -2.188049,0.834558 -3.102357,-0.07973 z m 2.773554,-0.365467 c 1.119563,-1.119563 0.365782,-2.993836 -1.204039,-2.993836 -1.340413,0 -2.279768,1.681014 -1.491497,2.669073 0.810016,1.015308 1.8765,1.143799 2.695536,0.324763 z M 6.4754047,7.9567975 V 5.9287259 l 2.0880868,1.894e-4 2.0880955,1.984e-4 V 7.9575371 9.9859694 L 8.5634915,9.9854192 6.4754047,9.984878 Z m 3.5795843,7.396e-4 V 6.5257035 L 8.5634915,6.4546305 7.0720035,6.3835574 V 7.957492 9.5314175 l 1.491488,-0.071073 1.4914975,-0.071073 V 7.9574378 Z"
     id="path51579" /><path
     style="fill:#068481;fill-opacity:1;stroke-width:0.244565"
     d="m 37.923899,43.006603 c -0.8419,-0.432617 -7.645207,-7.090981 -8.707704,-8.522192 -0.81844,-1.102453 -0.903043,-2.095284 -0.305731,-3.588107 l 0.402365,-1.005621 -1.113222,-1.113222 -1.113231,-1.113241 -1.062236,0.856296 c -1.554065,1.252743 -3.015175,2.032049 -5.219883,2.784088 -1.631704,0.55658 -2.382851,0.668727 -4.524468,0.675519 -2.913995,0.0097 -4.760371,-0.395204 -7.1717317,-1.570922 C 1.3028463,26.603527 -2.0402662,17.077708 1.6915384,9.2766639 3.3327849,5.8457562 5.833366,3.2693127 9.0650887,1.6793597 11.71367,0.37630548 13.444335,0.03224152 16.748447,0.15188417 21.273411,0.31572201 24.177458,1.602442 27.424938,4.8824276 c 2.919704,2.9489097 4.495993,6.8331334 4.50347,11.0971654 0.0054,3.44165 -1.002888,6.570578 -3.038554,9.423287 l -1.086434,1.522505 1.179398,1.161657 c 0.648668,0.638909 1.245555,1.054587 1.326432,0.923724 0.27889,-0.451241 2.220447,-0.785366 3.120144,-0.536953 1.212706,0.334846 9.308947,8.524266 9.741906,9.854018 0.411295,1.263261 0.144996,2.443236 -0.792311,3.510775 -1.297922,1.478238 -2.988694,1.921516 -4.45509,1.167997 z m 3.484916,-1.924673 c 0.632036,-0.689661 0.794999,-1.077208 0.794999,-1.890697 0,-0.999135 -0.102272,-1.125903 -4.343105,-5.384045 -3.915404,-3.931396 -4.424325,-4.360829 -5.168157,-4.360829 -1.600064,0 -3.206189,1.607523 -3.206189,3.208994 0,0.409527 1.251815,1.818929 4.505428,5.072533 l 4.505418,4.505428 1.058312,-0.141957 c 0.797615,-0.106979 1.254133,-0.355627 1.853294,-1.009427 z M 19.238854,30.563153 C 24.77688,29.38923 29.276553,24.920503 30.607865,19.272305 31.164337,16.911408 30.966811,13.264404 30.163875,11.07465 29.29213,8.6973102 28.374746,7.263772 26.570708,5.4598061 23.039802,1.9290354 18.204543,0.43777285 13.206483,1.3380737 12.408346,1.4818523 10.819845,2.047722 9.6764974,2.5955618 8.034836,3.3821728 7.2102352,3.9829295 5.7552218,5.4523741 2.7900862,8.4469039 1.3612561,11.876819 1.3612561,16.000067 c 0,4.138554 1.4337547,7.578021 4.3819428,10.511886 3.6497459,3.632041 8.5432071,5.100989 13.4956551,4.0512 z"
     id="path61522" /></svg>
