<?xml version="1.0" encoding="UTF-8" standalone="no"?>
<!-- Created with Inkscape (http://www.inkscape.org/) -->

<svg
   width="43.325218mm"
   height="43.345306mm"
   viewBox="0 0 43.325218 43.345306"
   version="1.1"
   id="svg5"
   xml:space="preserve"
   xmlns="http://www.w3.org/2000/svg"
   xmlns:svg="http://www.w3.org/2000/svg"><defs
     id="defs2" /><path
     style="fill:#0cc4a6;fill-opacity:1;stroke-width:0.320186"
     d="m 21.264319,41.632481 c 0,-1.724666 0,-1.724666 -1.520882,-1.937987 C 11.361624,38.518855 4.9459326,32.092967 3.8199954,23.745761 3.6148505,22.224877 3.6148505,22.224877 1.8734543,22.224877 c -1.33445839,0 -1.74140819,-0.112242 -1.74140819,-0.480279 0,-0.368215 0.40751857,-0.480279 1.74651509,-0.480279 1.7465151,0 1.7465151,0 1.9321281,-1.200697 C 5.2162926,10.971027 10.971024,5.2162911 20.063619,3.8106879 c 1.2007,-0.1856131 1.2007,-0.1856131 1.2007,-1.9321269 0,-1.33900014 0.11206,-1.74651387 0.480273,-1.74651387 0.368044,0 0.480285,0.40694617 0.480285,1.74140337 0,1.7414046 0,1.7414046 1.520883,1.9465507 8.312144,1.1211971 14.801122,7.6102458 15.923284,15.9234348 0.205302,1.520883 0.205302,1.520883 1.946698,1.520883 1.334459,0 1.741409,0.112242 1.741409,0.480279 0,0.368043 -0.40695,0.480279 -1.741409,0.480279 -1.741396,0 -1.741396,0 -1.946698,1.520884 -1.137155,8.424329 -7.472844,14.758548 -15.923284,15.919616 -1.520883,0.208965 -1.520883,0.208965 -1.520883,1.950368 0,1.334458 -0.112181,1.741404 -0.480285,1.741404 -0.367462,0 -0.480273,-0.405086 -0.480273,-1.724668 z m 0,-5.122975 c 0,-2.044853 0,-2.044853 -1.515993,-2.27219 C 14.60569,33.466128 9.8820323,28.7605 9.2165699,23.745761 8.9452297,21.700931 4.9348355,21.263055 4.9348355,23.278257 c 0,7.019666 7.9872795,15.160954 14.9686925,15.257321 1.360791,0.01878 1.360791,0.01878 1.360791,-2.026072 z m 4.473701,1.699242 c 6.528103,-1.504253 12.779904,-8.641137 12.809589,-14.623081 0.01089,-2.267784 -3.972602,-2.118594 -4.274982,0.160094 -0.665124,5.01219 -5.514673,9.861742 -10.526867,10.526862 -1.520883,0.201819 -1.520883,0.201819 -1.520883,2.241778 0,2.302646 0.282341,2.438815 3.513143,1.694347 z m -4.473701,-7.498943 c 0,-2.205726 0.091,-2.721581 0.480273,-2.721581 0.389246,0 0.480285,0.515855 0.480285,2.721581 0,1.496869 0.113875,2.72158 0.25291,2.72158 3.66878,0 8.612443,-3.61511 9.990201,-7.30545 1.390961,-3.725678 1.312567,-3.901058 -1.743671,-3.901058 -2.21862,0 -2.736093,-0.09083 -2.736093,-0.480279 0,-0.389134 0.514968,-0.480279 2.713572,-0.480279 2.713584,0 2.713584,0 2.532146,-1.040604 -0.945298,-5.421716 -4.59186,-9.115997 -9.808364,-9.936732 -1.200701,-0.188911 -1.200701,-0.188911 -1.200701,2.512539 0,2.187832 -0.09137,2.70145 -0.480285,2.70145 -0.388955,0 -0.480273,-0.513618 -0.480273,-2.70145 0,-2.70145 0,-2.70145 -1.2007,-2.512539 -5.115335,0.804817 -8.878931,4.617799 -9.808025,9.936732 -0.181777,1.040604 -0.181777,1.040604 2.531807,1.040604 2.198603,0 2.713571,0.09115 2.713571,0.480279 0,0.389595 -0.518683,0.480279 -2.74702,0.480279 -2.74702,0 -2.74702,0 -2.538946,1.040605 0.998605,4.994045 4.053523,8.468409 8.487822,9.653224 2.694995,0.720085 2.561491,0.835218 2.561491,-2.208901 z m -1.257989,-5.1877 c -3.326029,-1.743912 -3.275626,-5.899207 0.09185,-7.572713 3.338155,-1.658923 7.100516,2.103443 5.441604,5.441596 -1.137373,2.288649 -3.498609,3.198038 -5.533479,2.131117 z m 3.93591,-1.579867 c 1.901644,-1.901653 0.549784,-5.239407 -2.122086,-5.239407 -1.680029,0 -3.117326,1.379775 -3.117326,2.992571 0,2.758167 3.30905,4.177198 5.239412,2.246836 z M 9.2539152,19.688352 C 9.9413539,14.690087 14.690086,9.9413501 19.688351,9.2539125 21.768481,8.967823 22.269278,4.9311661 20.22371,4.9386364 13.072319,4.9647514 4.9647504,13.072315 4.9386354,20.223715 c -0.00726,2.045561 4.0291878,1.544764 4.3152798,-0.535363 z M 38.550561,20.223715 C 38.524422,13.074602 30.3904,4.9348365 23.272409,4.9348365 c -2.010413,0 -1.567001,4.0109847 0.473351,4.2817392 4.99622,0.6629986 9.80005,5.4586983 10.489522,10.4717763 0.286091,2.080127 4.322746,2.580924 4.315279,0.535363 z"
     id="path39812" /></svg>
