<?xml version="1.0" encoding="UTF-8" standalone="no"?>
<!-- Created with Inkscape (http://www.inkscape.org/) -->

<svg
   width="43.325218mm"
   height="43.345306mm"
   viewBox="0 0 43.325218 43.345306"
   version="1.1"
   id="svg5"
   xml:space="preserve"
   sodipodi:docname="proy3.svg"
   inkscape:version="1.3 (0e150ed6c4, 2023-07-21)"
   xmlns:inkscape="http://www.inkscape.org/namespaces/inkscape"
   xmlns:sodipodi="http://sodipodi.sourceforge.net/DTD/sodipodi-0.dtd"
   xmlns="http://www.w3.org/2000/svg"
   xmlns:svg="http://www.w3.org/2000/svg"><sodipodi:namedview
     id="namedview69544"
     pagecolor="#ffffff"
     bordercolor="#000000"
     borderopacity="0.25"
     inkscape:showpageshadow="2"
     inkscape:pageopacity="0.0"
     inkscape:pagecheckerboard="0"
     inkscape:deskcolor="#d1d1d1"
     inkscape:document-units="mm"
     showgrid="false"
     inkscape:zoom="5.1091172"
     inkscape:cx="81.91239"
     inkscape:cy="113.22895"
     inkscape:window-width="1920"
     inkscape:window-height="991"
     inkscape:window-x="-9"
     inkscape:window-y="-9"
     inkscape:window-maximized="1"
     inkscape:current-layer="svg5" /><defs
     id="defs2" /><path
     style="fill:#0074b1;fill-opacity:1;stroke-width:1.32484"
     d="M 1.7553644,43.19172 C 1.3504308,42.992137 0.79518995,42.514909 0.52149637,42.131215 L 0.0238689,41.433589 V 21.803862 2.1741371 L 0.52421494,1.4726908 C 1.5951461,-0.02866933 0.53640348,0.04290918 21.672653,0.04290918 c 21.136254,0 20.077507,-0.07158115 21.148437,1.42978162 l 0.500346,0.7014463 V 21.803862 41.433589 l -0.500346,0.701446 c -1.071323,1.501911 -0.0069,1.430322 -21.182341,1.424673 C 4.4603036,43.555071 2.4159063,43.517286 1.7553644,43.19172 Z M 41.145341,41.27655 c 0.390089,-0.390088 0.390089,-38.5552868 0,-38.9453756 -0.390089,-0.3900888 -38.5552884,-0.3900888 -38.9453759,0 -0.3900888,0.3900888 -0.3900888,38.5552876 0,38.9453756 0.3900875,0.390089 38.5552869,0.390089 38.9453759,0 z M 30.938059,37.040979 c -0.672685,-0.332975 -1.073603,-0.738059 -1.402124,-1.416691 -0.575124,-1.188047 -0.574846,-1.551668 0.0021,-2.743464 0.488082,-1.008243 1.833372,-1.879033 2.902932,-1.879033 1.06956,0 2.414849,0.87079 2.902931,1.879033 0.254191,0.525086 0.462164,1.143339 0.462164,1.373893 0,0.966711 -0.913403,2.32331 -1.879032,2.790763 -1.202283,0.582014 -1.805908,0.581105 -2.988964,-0.0045 z m 2.930518,-1.470816 c 1.235839,-1.235839 0.355746,-3.222333 -1.427617,-3.222333 -1.094599,0 -2.019058,0.873099 -2.019058,1.906887 0,1.033789 0.924459,1.906888 2.019058,1.906888 0.604334,0 1.000161,-0.163986 1.427617,-0.591442 z M 8.4814767,35.219379 C 8.2774353,35.015337 8.212269,31.302029 8.212269,19.879576 c 0,-13.1223996 0.043495,-15.1066959 0.3365096,-15.3498718 0.268471,-0.2228104 0.4045481,-0.2228104 0.6730192,0 C 9.5021526,4.7623781 9.5583073,5.628 9.5583073,9.7169876 V 14.624992 H 17.38273 c 6.681356,0 7.86522,0.04916 8.103699,0.336509 0.22281,0.268471 0.22281,0.404548 0,0.673019 -0.238479,0.287349 -1.422343,0.33651 -8.103699,0.33651 H 9.5583073 v 4.262454 4.262455 H 17.38273 c 6.681356,0 7.86522,0.04916 8.103699,0.336509 0.22281,0.268471 0.22281,0.40455 0,0.67302 -0.238479,0.28735 -1.422343,0.336509 -8.103699,0.336509 H 9.5583073 v 4.150286 4.150285 H 17.38273 c 6.681356,0 7.86522,0.04917 8.103699,0.33651 0.22281,0.268469 0.22281,0.404548 0,0.673019 -0.238959,0.287926 -1.46721,0.336509 -8.507511,0.336509 -6.100619,0 -8.2978448,-0.06961 -8.4974413,-0.269207 z M 30.938059,27.170031 c -0.672685,-0.332975 -1.073603,-0.738058 -1.402124,-1.416691 -0.575124,-1.188047 -0.574846,-1.551667 0.0021,-2.743465 0.488082,-1.008242 1.833372,-1.879032 2.902932,-1.879032 1.06956,0 2.414849,0.87079 2.902931,1.879032 0.254191,0.525088 0.462164,1.143339 0.462164,1.373895 0,0.966711 -0.913403,2.323308 -1.879032,2.790761 -1.202283,0.582016 -1.805908,0.581107 -2.988964,-0.0045 z m 2.930518,-1.470815 c 1.235839,-1.235839 0.355746,-3.222335 -1.427617,-3.222335 -1.094599,0 -2.019058,0.8731 -2.019058,1.906889 0,1.708664 2.209995,2.552124 3.446675,1.315446 z m -3.893675,-9.00262 c -1.712378,-1.325261 -2.044369,-1.839013 -1.563113,-2.418892 0.444382,-0.535447 1.209108,-0.37419 2.347462,0.495007 0.907712,0.69309 1.113356,0.769759 1.322215,0.492954 2.315078,-3.068225 3.156619,-4.005769 3.595582,-4.005769 0.614363,0 1.02738,0.403082 1.022921,0.998311 -0.0048,0.631357 -4.028238,5.603909 -4.595519,5.679487 -0.267632,0.03565 -1.126928,-0.465141 -2.129548,-1.241098 z"
     id="path2" /></svg>
