<?xml version="1.0" encoding="UTF-8" standalone="no"?>
<!-- Created with Inkscape (http://www.inkscape.org/) -->

<svg
   width="43.325218mm"
   height="43.345306mm"
   viewBox="0 0 43.325218 43.345306"
   version="1.1"
   id="svg5"
   xml:space="preserve"
   xmlns="http://www.w3.org/2000/svg"
   xmlns:svg="http://www.w3.org/2000/svg"><defs
     id="defs2" /><path
     style="fill:#0cc4a6;fill-opacity:1;stroke-width:0.418332"
     d="M 0.08335945,42.784403 C -0.0268432,42.496801 -0.06795179,32.754872 -0.00802811,21.135687 L 0.10075154,0.00988701 H 21.644879 43.189021 L 43.297327,21.658604 43.405632,43.307321 H 21.844603 c -16.8631076,0 -21.60466726,-0.113998 -21.76132261,-0.522918 z M 42.043278,24.79609 42.152532,7.7490377 H 21.649574 1.1465699 V 24.62179 c 0,20.171938 -3.2368431,17.458993 20.6765781,17.329912 L 41.934008,41.84308 Z M 5.2827265,37.764412 C 5.1318896,36.091514 5.1033508,19.129224 5.2504721,18.521101 l 0.1770674,-0.73208 H 8.5162334 11.604943 V 14.651534 11.514031 H 24.991592 38.378225 V 21.554014 31.593997 H 31.894072 25.40992 v 3.346666 3.346666 H 15.369937 c -7.727941,0 -10.0508452,-0.12048 -10.087163,-0.522917 z m 4.7742885,-1.144716 1.589638,-0.0063 -0.12554,-2.405406 -0.125381,-2.405422 H 8.8857364 6.3757407 L 6.2460906,33.84108 c -0.1711067,2.691142 0.1079891,3.35016 1.2851019,3.034667 0.5148851,-0.13803 1.6514902,-0.253497 2.5257755,-0.256644 z m 7.509117,0.04965 c 0.172561,-0.03052 0.313753,-1.184891 0.313753,-2.565397 v -2.509996 h -2.509996 -2.509995 v 2.44027 c 0,3.001448 0.630985,3.354761 4.706238,2.635123 z m 6.274989,-0.0016 c 0.172561,-0.02925 0.313753,-1.182804 0.313753,-2.56331 V 31.59444 h -2.509995 -2.509996 v 2.475149 c 0,1.60265 0.184324,2.540258 0.522917,2.659915 0.441174,0.155897 3.137091,0.116053 4.183321,-0.06166 z M 11.604896,27.809508 v -2.529965 l -2.6145857,0.124591 -2.6145696,0.124591 v 2.405421 2.405406 h 2.6145696 2.6145857 z m 6.274989,0.01992 v -2.509996 h -2.509996 -2.509995 v 2.509996 2.509996 h 2.509995 2.509996 z m 6.274989,0 v -2.509996 h -2.509995 -2.509996 v 2.509996 2.509996 h 2.509996 2.509995 z m 6.274989,0 v -2.509996 h -2.509995 -2.509996 v 2.509996 2.509996 h 2.509996 2.509995 z m 6.559192,0.627507 c 0.131864,-2.941478 -0.04443,-3.137503 -2.822389,-3.137503 h -2.481805 v 2.529965 2.52995 l 2.61457,-0.124591 2.614585,-0.124591 z M 11.604896,21.554441 V 19.044445 H 8.9702462 6.3355966 l -0.01423,2.509996 -0.01423,2.509996 H 8.95619 11.605244 Z m 6.274989,0 v -2.509996 h -2.509996 -2.509995 v 2.509996 2.509996 h 2.509995 2.509996 z m 6.274989,0 v -2.509996 h -2.509995 -2.509996 v 2.509996 2.509996 h 2.509996 2.509995 z m 6.274989,0 v -2.509996 h -2.509995 -2.509996 v 2.509996 2.509996 h 2.509996 2.509995 z m 6.326154,2.196258 c 0.169699,-1.04049 0.197116,-3.741751 0.04237,-4.183337 -0.118583,-0.33845 -1.052744,-0.522917 -2.648374,-0.522917 h -2.465235 v 2.509996 2.509996 h 2.509996 c 1.38049,0 2.533016,-0.141193 2.56116,-0.313738 z M 17.879885,15.279452 v -2.509996 h -2.509996 -2.509995 v 2.509996 2.509995 h 2.509995 2.509996 z m 6.274989,0 v -2.509996 h -2.509995 -2.509996 v 2.509996 2.509995 h 2.509996 2.509995 z m 6.274989,0 v -2.509996 h -2.509995 -2.509996 v 2.509996 2.509995 h 2.509996 2.509995 z m 6.516835,-0.104511 0.03273,-2.405422 H 34.33216 31.684909 v 2.529965 2.529949 l 2.614585,-0.12459 2.61457,-0.124591 0.03273,-2.405406 z M 41.934008,3.7753707 V 1.265375 H 21.644879 1.3557494 L 1.2260992,3.3038868 c -0.071308,1.1211735 -0.033203,2.289622 0.084589,2.596545 C 1.4857318,6.3565949 5.2131425,6.44267 21.72942,6.3719158 l 20.204588,-0.086486 z"
     id="path59770" /></svg>
