<?xml version="1.0" encoding="UTF-8" standalone="no"?>
<!-- Created with Inkscape (http://www.inkscape.org/) -->

<svg
   width="43.325218mm"
   height="43.345306mm"
   viewBox="0 0 43.325218 43.345306"
   version="1.1"
   id="svg5"
   xml:space="preserve"
   xmlns="http://www.w3.org/2000/svg"
   xmlns:svg="http://www.w3.org/2000/svg"><defs
     id="defs2" /><path
     style="fill:#efeeda;fill-opacity:1;stroke-width:0.389554"
     d="M 18.250324,40.843965 C 16.914451,37.756269 14.207749,36.643921 10.81677,37.789073 7.2920451,38.979392 4.4917264,36.139998 5.7069328,32.607935 6.8556751,29.269059 5.8554765,26.796044 2.7379583,25.267071 c -3.2208627,-1.579661 -3.2208627,-5.556251 0,-7.135912 3.1171501,-1.528792 4.1176991,-4.002036 2.9693278,-7.339838 -1.2896858,-3.7485376 1.5508056,-6.2947523 5.6143949,-5.0327405 2.955772,0.9179615 5.284703,-0.1761676 6.754645,-3.173321 1.63333,-3.33029543 5.712653,-3.25471615 7.233426,0.1340117 1.392059,3.1019188 3.866844,4.0931804 7.421548,2.9726598 3.482519,-1.0977672 6.114858,1.6254852 4.92215,5.09215 -1.150979,3.34538 -0.152909,5.817006 2.966837,7.347072 3.201548,1.570188 3.222003,5.555692 0.03654,7.117995 -3.024153,1.483183 -4.099207,4.179889 -2.972202,7.455581 1.164648,3.385112 -1.665487,6.257818 -5.04378,5.119647 -3.318304,-1.11796 -5.608039,-0.201531 -7.260944,2.906063 -1.758964,3.307002 -5.720638,3.370082 -7.12957,0.113517 z m 6.231585,-1.517494 c 1.468414,-2.952035 4.607762,-4.203523 7.923025,-3.158476 3.32117,1.046906 4.857729,-0.550203 3.717588,-3.86408 C 35.02402,29.11107 36.48625,25.688988 39.565236,24.24687 42.619191,22.816474 42.5366,20.672384 39.362056,18.972231 36.39525,17.383333 34.945647,14.216186 35.89803,11.403906 37.150577,7.7052832 35.838194,6.1885857 32.299506,7.2451556 28.930259,8.2511345 25.82979,6.9852093 24.428965,4.0316059 23.003012,1.0250251 20.722022,1.0215209 19.074353,4.0233609 17.469409,6.947385 14.335837,8.2425788 11.205316,7.2758596 8.0291349,6.2950399 6.3840809,7.929259 7.3769517,11.079008 c 0.9767811,3.098706 -0.2979031,6.222515 -3.1912041,7.820537 -1.9165198,1.058528 -1.9843649,1.154244 -1.9843649,2.799547 0,1.645304 0.067845,1.741021 1.9843649,2.799549 2.7660693,1.527749 4.1909359,4.789442 3.2744689,7.495661 -1.2863421,3.798416 0.1948383,5.354727 3.8992595,4.097042 2.791146,-0.94762 6.171978,0.495455 7.714877,3.293016 1.656871,3.004215 3.896309,2.980231 5.407556,-0.05791 z M 18.955021,28.67488 c -5.18761,-2.249638 -6.265633,-9.12841 -1.993891,-12.722845 3.751637,-3.156793 9.072003,-1.979533 11.378336,2.517733 3.042529,5.932827 -3.308979,12.839774 -9.384445,10.205112 z m 6.161726,-1.995266 c 4.514736,-3.365016 2.623135,-10.421975 -2.921661,-10.89979 -6.524888,-0.562271 -9.028905,8.236212 -3.215155,11.297242 1.6886,0.889074 4.669768,0.695998 6.136816,-0.397452 z"
     id="path39778" /></svg>
