<?xml version="1.0" encoding="UTF-8" standalone="no"?>
<!-- Created with Inkscape (http://www.inkscape.org/) -->

<svg
   width="87.425163mm"
   height="78.45446mm"
   viewBox="0 0 87.425163 78.45446"
   version="1.1"
   id="svg1"
   xml:space="preserve"
   xmlns="http://www.w3.org/2000/svg"
   xmlns:svg="http://www.w3.org/2000/svg"><defs
     id="defs1" /><g
     id="layer1"
     transform="translate(-45.488516,-120.72333)"><path
       style="fill:#000000;stroke-width:3.05206"
       d="m 54.952028,198.93833 c -0.191516,-0.19167 -0.348203,-7.65218 -0.348203,-16.57926 v -16.23105 l -1.361736,1.07115 c -0.748954,0.5891 -1.80451,1.07115 -2.34568,1.07115 -1.225721,0 -4.880755,-3.46497 -5.338917,-5.06126 -0.413783,-1.4417 0.260035,-2.13964 24.772785,-25.6602 13.338545,-12.79865 17.840267,-16.82553 18.80954,-16.82553 0.909085,0 3.015096,1.62922 7.348773,5.68497 3.340964,3.12671 6.20215,5.68495 6.35817,5.68495 0.15596,0 0.35394,-1.22098 0.43986,-2.71328 l 0.15626,-2.71328 h 7.49384 7.49381 l 0.14009,10.5335 0.14009,10.53351 7.29106,7.0674 c 8.23426,7.98165 8.23325,7.97905 4.55403,11.53116 -2.28498,2.20603 -3.4021,2.38894 -5.32975,0.87264 l -1.35441,-1.06538 -0.13642,16.44064 -0.13643,16.44064 -34.14919,0.13276 c -18.782049,0.0729 -34.305878,-0.0244 -34.497389,-0.21517 z m 24.975735,-12.06271 c 0.293303,-11.43871 0.577297,-12.43649 4.227374,-14.85201 3.009999,-1.99192 7.140591,-1.99192 10.150591,0 3.650077,2.41552 3.934071,3.4133 4.227373,14.85201 l 0.25851,10.0779 11.240729,0.13917 11.24072,0.13917 -0.0397,-16.93577 -0.0397,-16.93577 -15.65241,-14.21242 c -8.608785,-7.81681 -15.942633,-14.21239 -16.297404,-14.21239 -0.354802,0 -7.69393,6.39558 -16.309236,14.21239 l -15.664182,14.21242 -0.04126,16.93577 -0.04126,16.93577 11.240725,-0.13917 11.240722,-0.13917 z m 16.538058,1.27546 c 0,-9.83574 -0.316223,-11.37108 -2.817506,-13.67898 -1.160484,-1.07079 -1.917058,-1.29206 -4.417883,-1.29206 -2.500855,0 -3.25743,0.22127 -4.417913,1.29206 -2.501252,2.3079 -2.817506,3.84324 -2.817506,13.67898 v 9.06085 h 7.235419 7.235389 z M 69.299882,149.27737 c 9.884156,-9.0249 18.41206,-16.61885 18.95087,-16.87547 0.582821,-0.27743 1.38307,-0.27743 1.975505,0 0.547722,0.25668 8.616018,7.44357 17.929583,15.97102 9.31353,8.52745 17.49097,15.94453 18.17207,16.48239 1.2344,0.97483 1.24335,0.9729 2.82105,-0.60477 l 1.5827,-1.58273 -7.32375,-7.14743 -7.32377,-7.14746 0.009,-9.69028 0.009,-9.69028 h -5.404 -5.40391 l -0.15199,3.70556 c -0.0858,2.09567 -0.39775,3.78678 -0.71785,3.8925 -0.31128,0.10286 -3.77771,-2.90195 -7.703237,-6.67726 -3.925494,-3.7753 -7.307112,-6.86416 -7.514683,-6.86416 -0.20754,0 -8.718322,8.03499 -18.912735,17.85557 -10.194413,9.82054 -19.465564,18.69958 -20.602556,19.73115 l -2.067259,1.87561 1.517932,1.58744 c 0.834862,0.8731 1.667778,1.58746 1.850926,1.58746 0.183154,0 8.420036,-7.38399 18.304201,-16.40886 z"
       id="path1" /></g></svg>
